%TF.GenerationSoftware,KiCad,Pcbnew,7.0.7*%
%TF.CreationDate,2023-09-20T03:29:36+03:00*%
%TF.ProjectId,TPB v1.1,54504220-7631-42e3-912e-6b696361645f,rev?*%
%TF.SameCoordinates,Original*%
%TF.FileFunction,Legend,Top*%
%TF.FilePolarity,Positive*%
%FSLAX46Y46*%
G04 Gerber Fmt 4.6, Leading zero omitted, Abs format (unit mm)*
G04 Created by KiCad (PCBNEW 7.0.7) date 2023-09-20 03:29:36*
%MOMM*%
%LPD*%
G01*
G04 APERTURE LIST*
G04 Aperture macros list*
%AMRoundRect*
0 Rectangle with rounded corners*
0 $1 Rounding radius*
0 $2 $3 $4 $5 $6 $7 $8 $9 X,Y pos of 4 corners*
0 Add a 4 corners polygon primitive as box body*
4,1,4,$2,$3,$4,$5,$6,$7,$8,$9,$2,$3,0*
0 Add four circle primitives for the rounded corners*
1,1,$1+$1,$2,$3*
1,1,$1+$1,$4,$5*
1,1,$1+$1,$6,$7*
1,1,$1+$1,$8,$9*
0 Add four rect primitives between the rounded corners*
20,1,$1+$1,$2,$3,$4,$5,0*
20,1,$1+$1,$4,$5,$6,$7,0*
20,1,$1+$1,$6,$7,$8,$9,0*
20,1,$1+$1,$8,$9,$2,$3,0*%
%AMOutline4P*
0 Free polygon, 4 corners , with rotation*
0 The origin of the aperture is its center*
0 number of corners: always 4*
0 $1 to $8 corner X, Y*
0 $9 Rotation angle, in degrees counterclockwise*
0 create outline with 4 corners*
4,1,4,$1,$2,$3,$4,$5,$6,$7,$8,$1,$2,$9*%
G04 Aperture macros list end*
%ADD10C,0.150000*%
%ADD11C,0.100000*%
%ADD12C,0.120000*%
%ADD13RoundRect,0.150000X-0.587500X-0.150000X0.587500X-0.150000X0.587500X0.150000X-0.587500X0.150000X0*%
%ADD14R,2.000000X1.500000*%
%ADD15R,2.000000X3.800000*%
%ADD16RoundRect,0.250000X0.450000X-0.325000X0.450000X0.325000X-0.450000X0.325000X-0.450000X-0.325000X0*%
%ADD17RoundRect,0.237500X0.300000X0.237500X-0.300000X0.237500X-0.300000X-0.237500X0.300000X-0.237500X0*%
%ADD18RoundRect,0.237500X-0.300000X-0.237500X0.300000X-0.237500X0.300000X0.237500X-0.300000X0.237500X0*%
%ADD19RoundRect,0.250000X-0.600000X0.600000X-0.600000X-0.600000X0.600000X-0.600000X0.600000X0.600000X0*%
%ADD20C,1.700000*%
%ADD21RoundRect,0.237500X0.250000X0.237500X-0.250000X0.237500X-0.250000X-0.237500X0.250000X-0.237500X0*%
%ADD22RoundRect,0.250000X-0.325000X-0.450000X0.325000X-0.450000X0.325000X0.450000X-0.325000X0.450000X0*%
%ADD23R,1.400000X1.600000*%
%ADD24RoundRect,0.237500X-0.237500X0.250000X-0.237500X-0.250000X0.237500X-0.250000X0.237500X0.250000X0*%
%ADD25RoundRect,0.237500X-0.250000X-0.237500X0.250000X-0.237500X0.250000X0.237500X-0.250000X0.237500X0*%
%ADD26RoundRect,0.250000X0.325000X0.450000X-0.325000X0.450000X-0.325000X-0.450000X0.325000X-0.450000X0*%
%ADD27C,0.700000*%
%ADD28Outline4P,-0.300000X-0.570000X0.300000X-0.570000X0.300000X0.570000X-0.300000X0.570000X0.000000*%
%ADD29Outline4P,-0.150000X-0.570000X0.150000X-0.570000X0.150000X0.570000X-0.150000X0.570000X0.000000*%
%ADD30O,0.900000X2.000000*%
G04 APERTURE END LIST*
D10*
X54269819Y-173606077D02*
X54269819Y-173034649D01*
X55269819Y-173320363D02*
X54269819Y-173320363D01*
X55269819Y-172701315D02*
X54269819Y-172701315D01*
X54269819Y-172701315D02*
X54269819Y-172320363D01*
X54269819Y-172320363D02*
X54317438Y-172225125D01*
X54317438Y-172225125D02*
X54365057Y-172177506D01*
X54365057Y-172177506D02*
X54460295Y-172129887D01*
X54460295Y-172129887D02*
X54603152Y-172129887D01*
X54603152Y-172129887D02*
X54698390Y-172177506D01*
X54698390Y-172177506D02*
X54746009Y-172225125D01*
X54746009Y-172225125D02*
X54793628Y-172320363D01*
X54793628Y-172320363D02*
X54793628Y-172701315D01*
X54746009Y-171367982D02*
X54793628Y-171225125D01*
X54793628Y-171225125D02*
X54841247Y-171177506D01*
X54841247Y-171177506D02*
X54936485Y-171129887D01*
X54936485Y-171129887D02*
X55079342Y-171129887D01*
X55079342Y-171129887D02*
X55174580Y-171177506D01*
X55174580Y-171177506D02*
X55222200Y-171225125D01*
X55222200Y-171225125D02*
X55269819Y-171320363D01*
X55269819Y-171320363D02*
X55269819Y-171701315D01*
X55269819Y-171701315D02*
X54269819Y-171701315D01*
X54269819Y-171701315D02*
X54269819Y-171367982D01*
X54269819Y-171367982D02*
X54317438Y-171272744D01*
X54317438Y-171272744D02*
X54365057Y-171225125D01*
X54365057Y-171225125D02*
X54460295Y-171177506D01*
X54460295Y-171177506D02*
X54555533Y-171177506D01*
X54555533Y-171177506D02*
X54650771Y-171225125D01*
X54650771Y-171225125D02*
X54698390Y-171272744D01*
X54698390Y-171272744D02*
X54746009Y-171367982D01*
X54746009Y-171367982D02*
X54746009Y-171701315D01*
X54603152Y-170034648D02*
X55269819Y-169796553D01*
X55269819Y-169796553D02*
X54603152Y-169558458D01*
X55269819Y-168653696D02*
X55269819Y-169225124D01*
X55269819Y-168939410D02*
X54269819Y-168939410D01*
X54269819Y-168939410D02*
X54412676Y-169034648D01*
X54412676Y-169034648D02*
X54507914Y-169129886D01*
X54507914Y-169129886D02*
X54555533Y-169225124D01*
X55174580Y-168225124D02*
X55222200Y-168177505D01*
X55222200Y-168177505D02*
X55269819Y-168225124D01*
X55269819Y-168225124D02*
X55222200Y-168272743D01*
X55222200Y-168272743D02*
X55174580Y-168225124D01*
X55174580Y-168225124D02*
X55269819Y-168225124D01*
X55269819Y-167225125D02*
X55269819Y-167796553D01*
X55269819Y-167510839D02*
X54269819Y-167510839D01*
X54269819Y-167510839D02*
X54412676Y-167606077D01*
X54412676Y-167606077D02*
X54507914Y-167701315D01*
X54507914Y-167701315D02*
X54555533Y-167796553D01*
X43242261Y-174740057D02*
X43147023Y-174692438D01*
X43147023Y-174692438D02*
X43051785Y-174597200D01*
X43051785Y-174597200D02*
X42908928Y-174454342D01*
X42908928Y-174454342D02*
X42813690Y-174406723D01*
X42813690Y-174406723D02*
X42718452Y-174406723D01*
X42766071Y-174644819D02*
X42670833Y-174597200D01*
X42670833Y-174597200D02*
X42575595Y-174501961D01*
X42575595Y-174501961D02*
X42527976Y-174311485D01*
X42527976Y-174311485D02*
X42527976Y-173978152D01*
X42527976Y-173978152D02*
X42575595Y-173787676D01*
X42575595Y-173787676D02*
X42670833Y-173692438D01*
X42670833Y-173692438D02*
X42766071Y-173644819D01*
X42766071Y-173644819D02*
X42956547Y-173644819D01*
X42956547Y-173644819D02*
X43051785Y-173692438D01*
X43051785Y-173692438D02*
X43147023Y-173787676D01*
X43147023Y-173787676D02*
X43194642Y-173978152D01*
X43194642Y-173978152D02*
X43194642Y-174311485D01*
X43194642Y-174311485D02*
X43147023Y-174501961D01*
X43147023Y-174501961D02*
X43051785Y-174597200D01*
X43051785Y-174597200D02*
X42956547Y-174644819D01*
X42956547Y-174644819D02*
X42766071Y-174644819D01*
X43575595Y-173740057D02*
X43623214Y-173692438D01*
X43623214Y-173692438D02*
X43718452Y-173644819D01*
X43718452Y-173644819D02*
X43956547Y-173644819D01*
X43956547Y-173644819D02*
X44051785Y-173692438D01*
X44051785Y-173692438D02*
X44099404Y-173740057D01*
X44099404Y-173740057D02*
X44147023Y-173835295D01*
X44147023Y-173835295D02*
X44147023Y-173930533D01*
X44147023Y-173930533D02*
X44099404Y-174073390D01*
X44099404Y-174073390D02*
X43527976Y-174644819D01*
X43527976Y-174644819D02*
X44147023Y-174644819D01*
X57538095Y-164154819D02*
X57538095Y-164964342D01*
X57538095Y-164964342D02*
X57585714Y-165059580D01*
X57585714Y-165059580D02*
X57633333Y-165107200D01*
X57633333Y-165107200D02*
X57728571Y-165154819D01*
X57728571Y-165154819D02*
X57919047Y-165154819D01*
X57919047Y-165154819D02*
X58014285Y-165107200D01*
X58014285Y-165107200D02*
X58061904Y-165059580D01*
X58061904Y-165059580D02*
X58109523Y-164964342D01*
X58109523Y-164964342D02*
X58109523Y-164154819D01*
X58538095Y-164250057D02*
X58585714Y-164202438D01*
X58585714Y-164202438D02*
X58680952Y-164154819D01*
X58680952Y-164154819D02*
X58919047Y-164154819D01*
X58919047Y-164154819D02*
X59014285Y-164202438D01*
X59014285Y-164202438D02*
X59061904Y-164250057D01*
X59061904Y-164250057D02*
X59109523Y-164345295D01*
X59109523Y-164345295D02*
X59109523Y-164440533D01*
X59109523Y-164440533D02*
X59061904Y-164583390D01*
X59061904Y-164583390D02*
X58490476Y-165154819D01*
X58490476Y-165154819D02*
X59109523Y-165154819D01*
X64261905Y-172454819D02*
X64261905Y-171454819D01*
X64261905Y-171454819D02*
X64500000Y-171454819D01*
X64500000Y-171454819D02*
X64642857Y-171502438D01*
X64642857Y-171502438D02*
X64738095Y-171597676D01*
X64738095Y-171597676D02*
X64785714Y-171692914D01*
X64785714Y-171692914D02*
X64833333Y-171883390D01*
X64833333Y-171883390D02*
X64833333Y-172026247D01*
X64833333Y-172026247D02*
X64785714Y-172216723D01*
X64785714Y-172216723D02*
X64738095Y-172311961D01*
X64738095Y-172311961D02*
X64642857Y-172407200D01*
X64642857Y-172407200D02*
X64500000Y-172454819D01*
X64500000Y-172454819D02*
X64261905Y-172454819D01*
X65785714Y-172454819D02*
X65214286Y-172454819D01*
X65500000Y-172454819D02*
X65500000Y-171454819D01*
X65500000Y-171454819D02*
X65404762Y-171597676D01*
X65404762Y-171597676D02*
X65309524Y-171692914D01*
X65309524Y-171692914D02*
X65214286Y-171740533D01*
X43304761Y-163650057D02*
X43209523Y-163602438D01*
X43209523Y-163602438D02*
X43114285Y-163507200D01*
X43114285Y-163507200D02*
X42971428Y-163364342D01*
X42971428Y-163364342D02*
X42876190Y-163316723D01*
X42876190Y-163316723D02*
X42780952Y-163316723D01*
X42828571Y-163554819D02*
X42733333Y-163507200D01*
X42733333Y-163507200D02*
X42638095Y-163411961D01*
X42638095Y-163411961D02*
X42590476Y-163221485D01*
X42590476Y-163221485D02*
X42590476Y-162888152D01*
X42590476Y-162888152D02*
X42638095Y-162697676D01*
X42638095Y-162697676D02*
X42733333Y-162602438D01*
X42733333Y-162602438D02*
X42828571Y-162554819D01*
X42828571Y-162554819D02*
X43019047Y-162554819D01*
X43019047Y-162554819D02*
X43114285Y-162602438D01*
X43114285Y-162602438D02*
X43209523Y-162697676D01*
X43209523Y-162697676D02*
X43257142Y-162888152D01*
X43257142Y-162888152D02*
X43257142Y-163221485D01*
X43257142Y-163221485D02*
X43209523Y-163411961D01*
X43209523Y-163411961D02*
X43114285Y-163507200D01*
X43114285Y-163507200D02*
X43019047Y-163554819D01*
X43019047Y-163554819D02*
X42828571Y-163554819D01*
X44209523Y-163554819D02*
X43638095Y-163554819D01*
X43923809Y-163554819D02*
X43923809Y-162554819D01*
X43923809Y-162554819D02*
X43828571Y-162697676D01*
X43828571Y-162697676D02*
X43733333Y-162792914D01*
X43733333Y-162792914D02*
X43638095Y-162840533D01*
X48093333Y-183239580D02*
X48045714Y-183287200D01*
X48045714Y-183287200D02*
X47902857Y-183334819D01*
X47902857Y-183334819D02*
X47807619Y-183334819D01*
X47807619Y-183334819D02*
X47664762Y-183287200D01*
X47664762Y-183287200D02*
X47569524Y-183191961D01*
X47569524Y-183191961D02*
X47521905Y-183096723D01*
X47521905Y-183096723D02*
X47474286Y-182906247D01*
X47474286Y-182906247D02*
X47474286Y-182763390D01*
X47474286Y-182763390D02*
X47521905Y-182572914D01*
X47521905Y-182572914D02*
X47569524Y-182477676D01*
X47569524Y-182477676D02*
X47664762Y-182382438D01*
X47664762Y-182382438D02*
X47807619Y-182334819D01*
X47807619Y-182334819D02*
X47902857Y-182334819D01*
X47902857Y-182334819D02*
X48045714Y-182382438D01*
X48045714Y-182382438D02*
X48093333Y-182430057D01*
X49045714Y-183334819D02*
X48474286Y-183334819D01*
X48760000Y-183334819D02*
X48760000Y-182334819D01*
X48760000Y-182334819D02*
X48664762Y-182477676D01*
X48664762Y-182477676D02*
X48569524Y-182572914D01*
X48569524Y-182572914D02*
X48474286Y-182620533D01*
X66363333Y-155319580D02*
X66315714Y-155367200D01*
X66315714Y-155367200D02*
X66172857Y-155414819D01*
X66172857Y-155414819D02*
X66077619Y-155414819D01*
X66077619Y-155414819D02*
X65934762Y-155367200D01*
X65934762Y-155367200D02*
X65839524Y-155271961D01*
X65839524Y-155271961D02*
X65791905Y-155176723D01*
X65791905Y-155176723D02*
X65744286Y-154986247D01*
X65744286Y-154986247D02*
X65744286Y-154843390D01*
X65744286Y-154843390D02*
X65791905Y-154652914D01*
X65791905Y-154652914D02*
X65839524Y-154557676D01*
X65839524Y-154557676D02*
X65934762Y-154462438D01*
X65934762Y-154462438D02*
X66077619Y-154414819D01*
X66077619Y-154414819D02*
X66172857Y-154414819D01*
X66172857Y-154414819D02*
X66315714Y-154462438D01*
X66315714Y-154462438D02*
X66363333Y-154510057D01*
X67220476Y-154748152D02*
X67220476Y-155414819D01*
X66982381Y-154367200D02*
X66744286Y-155081485D01*
X66744286Y-155081485D02*
X67363333Y-155081485D01*
X63054819Y-153133333D02*
X63769104Y-153133333D01*
X63769104Y-153133333D02*
X63911961Y-153180952D01*
X63911961Y-153180952D02*
X64007200Y-153276190D01*
X64007200Y-153276190D02*
X64054819Y-153419047D01*
X64054819Y-153419047D02*
X64054819Y-153514285D01*
X64054819Y-152133333D02*
X64054819Y-152704761D01*
X64054819Y-152419047D02*
X63054819Y-152419047D01*
X63054819Y-152419047D02*
X63197676Y-152514285D01*
X63197676Y-152514285D02*
X63292914Y-152609523D01*
X63292914Y-152609523D02*
X63340533Y-152704761D01*
X43233333Y-168514819D02*
X42900000Y-168038628D01*
X42661905Y-168514819D02*
X42661905Y-167514819D01*
X42661905Y-167514819D02*
X43042857Y-167514819D01*
X43042857Y-167514819D02*
X43138095Y-167562438D01*
X43138095Y-167562438D02*
X43185714Y-167610057D01*
X43185714Y-167610057D02*
X43233333Y-167705295D01*
X43233333Y-167705295D02*
X43233333Y-167848152D01*
X43233333Y-167848152D02*
X43185714Y-167943390D01*
X43185714Y-167943390D02*
X43138095Y-167991009D01*
X43138095Y-167991009D02*
X43042857Y-168038628D01*
X43042857Y-168038628D02*
X42661905Y-168038628D01*
X44090476Y-167848152D02*
X44090476Y-168514819D01*
X43852381Y-167467200D02*
X43614286Y-168181485D01*
X43614286Y-168181485D02*
X44233333Y-168181485D01*
X42757142Y-156304819D02*
X42423809Y-155828628D01*
X42185714Y-156304819D02*
X42185714Y-155304819D01*
X42185714Y-155304819D02*
X42566666Y-155304819D01*
X42566666Y-155304819D02*
X42661904Y-155352438D01*
X42661904Y-155352438D02*
X42709523Y-155400057D01*
X42709523Y-155400057D02*
X42757142Y-155495295D01*
X42757142Y-155495295D02*
X42757142Y-155638152D01*
X42757142Y-155638152D02*
X42709523Y-155733390D01*
X42709523Y-155733390D02*
X42661904Y-155781009D01*
X42661904Y-155781009D02*
X42566666Y-155828628D01*
X42566666Y-155828628D02*
X42185714Y-155828628D01*
X43709523Y-156304819D02*
X43138095Y-156304819D01*
X43423809Y-156304819D02*
X43423809Y-155304819D01*
X43423809Y-155304819D02*
X43328571Y-155447676D01*
X43328571Y-155447676D02*
X43233333Y-155542914D01*
X43233333Y-155542914D02*
X43138095Y-155590533D01*
X44328571Y-155304819D02*
X44423809Y-155304819D01*
X44423809Y-155304819D02*
X44519047Y-155352438D01*
X44519047Y-155352438D02*
X44566666Y-155400057D01*
X44566666Y-155400057D02*
X44614285Y-155495295D01*
X44614285Y-155495295D02*
X44661904Y-155685771D01*
X44661904Y-155685771D02*
X44661904Y-155923866D01*
X44661904Y-155923866D02*
X44614285Y-156114342D01*
X44614285Y-156114342D02*
X44566666Y-156209580D01*
X44566666Y-156209580D02*
X44519047Y-156257200D01*
X44519047Y-156257200D02*
X44423809Y-156304819D01*
X44423809Y-156304819D02*
X44328571Y-156304819D01*
X44328571Y-156304819D02*
X44233333Y-156257200D01*
X44233333Y-156257200D02*
X44185714Y-156209580D01*
X44185714Y-156209580D02*
X44138095Y-156114342D01*
X44138095Y-156114342D02*
X44090476Y-155923866D01*
X44090476Y-155923866D02*
X44090476Y-155685771D01*
X44090476Y-155685771D02*
X44138095Y-155495295D01*
X44138095Y-155495295D02*
X44185714Y-155400057D01*
X44185714Y-155400057D02*
X44233333Y-155352438D01*
X44233333Y-155352438D02*
X44328571Y-155304819D01*
X66433333Y-163559580D02*
X66385714Y-163607200D01*
X66385714Y-163607200D02*
X66242857Y-163654819D01*
X66242857Y-163654819D02*
X66147619Y-163654819D01*
X66147619Y-163654819D02*
X66004762Y-163607200D01*
X66004762Y-163607200D02*
X65909524Y-163511961D01*
X65909524Y-163511961D02*
X65861905Y-163416723D01*
X65861905Y-163416723D02*
X65814286Y-163226247D01*
X65814286Y-163226247D02*
X65814286Y-163083390D01*
X65814286Y-163083390D02*
X65861905Y-162892914D01*
X65861905Y-162892914D02*
X65909524Y-162797676D01*
X65909524Y-162797676D02*
X66004762Y-162702438D01*
X66004762Y-162702438D02*
X66147619Y-162654819D01*
X66147619Y-162654819D02*
X66242857Y-162654819D01*
X66242857Y-162654819D02*
X66385714Y-162702438D01*
X66385714Y-162702438D02*
X66433333Y-162750057D01*
X67290476Y-162654819D02*
X67100000Y-162654819D01*
X67100000Y-162654819D02*
X67004762Y-162702438D01*
X67004762Y-162702438D02*
X66957143Y-162750057D01*
X66957143Y-162750057D02*
X66861905Y-162892914D01*
X66861905Y-162892914D02*
X66814286Y-163083390D01*
X66814286Y-163083390D02*
X66814286Y-163464342D01*
X66814286Y-163464342D02*
X66861905Y-163559580D01*
X66861905Y-163559580D02*
X66909524Y-163607200D01*
X66909524Y-163607200D02*
X67004762Y-163654819D01*
X67004762Y-163654819D02*
X67195238Y-163654819D01*
X67195238Y-163654819D02*
X67290476Y-163607200D01*
X67290476Y-163607200D02*
X67338095Y-163559580D01*
X67338095Y-163559580D02*
X67385714Y-163464342D01*
X67385714Y-163464342D02*
X67385714Y-163226247D01*
X67385714Y-163226247D02*
X67338095Y-163131009D01*
X67338095Y-163131009D02*
X67290476Y-163083390D01*
X67290476Y-163083390D02*
X67195238Y-163035771D01*
X67195238Y-163035771D02*
X67004762Y-163035771D01*
X67004762Y-163035771D02*
X66909524Y-163083390D01*
X66909524Y-163083390D02*
X66861905Y-163131009D01*
X66861905Y-163131009D02*
X66814286Y-163226247D01*
X46387200Y-177633332D02*
X46434819Y-177490475D01*
X46434819Y-177490475D02*
X46434819Y-177252380D01*
X46434819Y-177252380D02*
X46387200Y-177157142D01*
X46387200Y-177157142D02*
X46339580Y-177109523D01*
X46339580Y-177109523D02*
X46244342Y-177061904D01*
X46244342Y-177061904D02*
X46149104Y-177061904D01*
X46149104Y-177061904D02*
X46053866Y-177109523D01*
X46053866Y-177109523D02*
X46006247Y-177157142D01*
X46006247Y-177157142D02*
X45958628Y-177252380D01*
X45958628Y-177252380D02*
X45911009Y-177442856D01*
X45911009Y-177442856D02*
X45863390Y-177538094D01*
X45863390Y-177538094D02*
X45815771Y-177585713D01*
X45815771Y-177585713D02*
X45720533Y-177633332D01*
X45720533Y-177633332D02*
X45625295Y-177633332D01*
X45625295Y-177633332D02*
X45530057Y-177585713D01*
X45530057Y-177585713D02*
X45482438Y-177538094D01*
X45482438Y-177538094D02*
X45434819Y-177442856D01*
X45434819Y-177442856D02*
X45434819Y-177204761D01*
X45434819Y-177204761D02*
X45482438Y-177061904D01*
X45434819Y-176728570D02*
X46434819Y-176490475D01*
X46434819Y-176490475D02*
X45720533Y-176299999D01*
X45720533Y-176299999D02*
X46434819Y-176109523D01*
X46434819Y-176109523D02*
X45434819Y-175871428D01*
X45530057Y-175538094D02*
X45482438Y-175490475D01*
X45482438Y-175490475D02*
X45434819Y-175395237D01*
X45434819Y-175395237D02*
X45434819Y-175157142D01*
X45434819Y-175157142D02*
X45482438Y-175061904D01*
X45482438Y-175061904D02*
X45530057Y-175014285D01*
X45530057Y-175014285D02*
X45625295Y-174966666D01*
X45625295Y-174966666D02*
X45720533Y-174966666D01*
X45720533Y-174966666D02*
X45863390Y-175014285D01*
X45863390Y-175014285D02*
X46434819Y-175585713D01*
X46434819Y-175585713D02*
X46434819Y-174966666D01*
X48133333Y-186554819D02*
X47800000Y-186078628D01*
X47561905Y-186554819D02*
X47561905Y-185554819D01*
X47561905Y-185554819D02*
X47942857Y-185554819D01*
X47942857Y-185554819D02*
X48038095Y-185602438D01*
X48038095Y-185602438D02*
X48085714Y-185650057D01*
X48085714Y-185650057D02*
X48133333Y-185745295D01*
X48133333Y-185745295D02*
X48133333Y-185888152D01*
X48133333Y-185888152D02*
X48085714Y-185983390D01*
X48085714Y-185983390D02*
X48038095Y-186031009D01*
X48038095Y-186031009D02*
X47942857Y-186078628D01*
X47942857Y-186078628D02*
X47561905Y-186078628D01*
X49085714Y-186554819D02*
X48514286Y-186554819D01*
X48800000Y-186554819D02*
X48800000Y-185554819D01*
X48800000Y-185554819D02*
X48704762Y-185697676D01*
X48704762Y-185697676D02*
X48609524Y-185792914D01*
X48609524Y-185792914D02*
X48514286Y-185840533D01*
X67833333Y-172454819D02*
X67500000Y-171978628D01*
X67261905Y-172454819D02*
X67261905Y-171454819D01*
X67261905Y-171454819D02*
X67642857Y-171454819D01*
X67642857Y-171454819D02*
X67738095Y-171502438D01*
X67738095Y-171502438D02*
X67785714Y-171550057D01*
X67785714Y-171550057D02*
X67833333Y-171645295D01*
X67833333Y-171645295D02*
X67833333Y-171788152D01*
X67833333Y-171788152D02*
X67785714Y-171883390D01*
X67785714Y-171883390D02*
X67738095Y-171931009D01*
X67738095Y-171931009D02*
X67642857Y-171978628D01*
X67642857Y-171978628D02*
X67261905Y-171978628D01*
X68404762Y-171883390D02*
X68309524Y-171835771D01*
X68309524Y-171835771D02*
X68261905Y-171788152D01*
X68261905Y-171788152D02*
X68214286Y-171692914D01*
X68214286Y-171692914D02*
X68214286Y-171645295D01*
X68214286Y-171645295D02*
X68261905Y-171550057D01*
X68261905Y-171550057D02*
X68309524Y-171502438D01*
X68309524Y-171502438D02*
X68404762Y-171454819D01*
X68404762Y-171454819D02*
X68595238Y-171454819D01*
X68595238Y-171454819D02*
X68690476Y-171502438D01*
X68690476Y-171502438D02*
X68738095Y-171550057D01*
X68738095Y-171550057D02*
X68785714Y-171645295D01*
X68785714Y-171645295D02*
X68785714Y-171692914D01*
X68785714Y-171692914D02*
X68738095Y-171788152D01*
X68738095Y-171788152D02*
X68690476Y-171835771D01*
X68690476Y-171835771D02*
X68595238Y-171883390D01*
X68595238Y-171883390D02*
X68404762Y-171883390D01*
X68404762Y-171883390D02*
X68309524Y-171931009D01*
X68309524Y-171931009D02*
X68261905Y-171978628D01*
X68261905Y-171978628D02*
X68214286Y-172073866D01*
X68214286Y-172073866D02*
X68214286Y-172264342D01*
X68214286Y-172264342D02*
X68261905Y-172359580D01*
X68261905Y-172359580D02*
X68309524Y-172407200D01*
X68309524Y-172407200D02*
X68404762Y-172454819D01*
X68404762Y-172454819D02*
X68595238Y-172454819D01*
X68595238Y-172454819D02*
X68690476Y-172407200D01*
X68690476Y-172407200D02*
X68738095Y-172359580D01*
X68738095Y-172359580D02*
X68785714Y-172264342D01*
X68785714Y-172264342D02*
X68785714Y-172073866D01*
X68785714Y-172073866D02*
X68738095Y-171978628D01*
X68738095Y-171978628D02*
X68690476Y-171931009D01*
X68690476Y-171931009D02*
X68595238Y-171883390D01*
X43233333Y-171614819D02*
X42900000Y-171138628D01*
X42661905Y-171614819D02*
X42661905Y-170614819D01*
X42661905Y-170614819D02*
X43042857Y-170614819D01*
X43042857Y-170614819D02*
X43138095Y-170662438D01*
X43138095Y-170662438D02*
X43185714Y-170710057D01*
X43185714Y-170710057D02*
X43233333Y-170805295D01*
X43233333Y-170805295D02*
X43233333Y-170948152D01*
X43233333Y-170948152D02*
X43185714Y-171043390D01*
X43185714Y-171043390D02*
X43138095Y-171091009D01*
X43138095Y-171091009D02*
X43042857Y-171138628D01*
X43042857Y-171138628D02*
X42661905Y-171138628D01*
X43566667Y-170614819D02*
X44185714Y-170614819D01*
X44185714Y-170614819D02*
X43852381Y-170995771D01*
X43852381Y-170995771D02*
X43995238Y-170995771D01*
X43995238Y-170995771D02*
X44090476Y-171043390D01*
X44090476Y-171043390D02*
X44138095Y-171091009D01*
X44138095Y-171091009D02*
X44185714Y-171186247D01*
X44185714Y-171186247D02*
X44185714Y-171424342D01*
X44185714Y-171424342D02*
X44138095Y-171519580D01*
X44138095Y-171519580D02*
X44090476Y-171567200D01*
X44090476Y-171567200D02*
X43995238Y-171614819D01*
X43995238Y-171614819D02*
X43709524Y-171614819D01*
X43709524Y-171614819D02*
X43614286Y-171567200D01*
X43614286Y-171567200D02*
X43566667Y-171519580D01*
X42661905Y-152654819D02*
X42661905Y-151654819D01*
X42661905Y-151654819D02*
X42900000Y-151654819D01*
X42900000Y-151654819D02*
X43042857Y-151702438D01*
X43042857Y-151702438D02*
X43138095Y-151797676D01*
X43138095Y-151797676D02*
X43185714Y-151892914D01*
X43185714Y-151892914D02*
X43233333Y-152083390D01*
X43233333Y-152083390D02*
X43233333Y-152226247D01*
X43233333Y-152226247D02*
X43185714Y-152416723D01*
X43185714Y-152416723D02*
X43138095Y-152511961D01*
X43138095Y-152511961D02*
X43042857Y-152607200D01*
X43042857Y-152607200D02*
X42900000Y-152654819D01*
X42900000Y-152654819D02*
X42661905Y-152654819D01*
X43566667Y-151654819D02*
X44185714Y-151654819D01*
X44185714Y-151654819D02*
X43852381Y-152035771D01*
X43852381Y-152035771D02*
X43995238Y-152035771D01*
X43995238Y-152035771D02*
X44090476Y-152083390D01*
X44090476Y-152083390D02*
X44138095Y-152131009D01*
X44138095Y-152131009D02*
X44185714Y-152226247D01*
X44185714Y-152226247D02*
X44185714Y-152464342D01*
X44185714Y-152464342D02*
X44138095Y-152559580D01*
X44138095Y-152559580D02*
X44090476Y-152607200D01*
X44090476Y-152607200D02*
X43995238Y-152654819D01*
X43995238Y-152654819D02*
X43709524Y-152654819D01*
X43709524Y-152654819D02*
X43614286Y-152607200D01*
X43614286Y-152607200D02*
X43566667Y-152559580D01*
X46477436Y-167033332D02*
X46525055Y-166890475D01*
X46525055Y-166890475D02*
X46525055Y-166652380D01*
X46525055Y-166652380D02*
X46477436Y-166557142D01*
X46477436Y-166557142D02*
X46429816Y-166509523D01*
X46429816Y-166509523D02*
X46334578Y-166461904D01*
X46334578Y-166461904D02*
X46239340Y-166461904D01*
X46239340Y-166461904D02*
X46144102Y-166509523D01*
X46144102Y-166509523D02*
X46096483Y-166557142D01*
X46096483Y-166557142D02*
X46048864Y-166652380D01*
X46048864Y-166652380D02*
X46001245Y-166842856D01*
X46001245Y-166842856D02*
X45953626Y-166938094D01*
X45953626Y-166938094D02*
X45906007Y-166985713D01*
X45906007Y-166985713D02*
X45810769Y-167033332D01*
X45810769Y-167033332D02*
X45715531Y-167033332D01*
X45715531Y-167033332D02*
X45620293Y-166985713D01*
X45620293Y-166985713D02*
X45572674Y-166938094D01*
X45572674Y-166938094D02*
X45525055Y-166842856D01*
X45525055Y-166842856D02*
X45525055Y-166604761D01*
X45525055Y-166604761D02*
X45572674Y-166461904D01*
X45525055Y-166128570D02*
X46525055Y-165890475D01*
X46525055Y-165890475D02*
X45810769Y-165699999D01*
X45810769Y-165699999D02*
X46525055Y-165509523D01*
X46525055Y-165509523D02*
X45525055Y-165271428D01*
X46525055Y-164366666D02*
X46525055Y-164938094D01*
X46525055Y-164652380D02*
X45525055Y-164652380D01*
X45525055Y-164652380D02*
X45667912Y-164747618D01*
X45667912Y-164747618D02*
X45763150Y-164842856D01*
X45763150Y-164842856D02*
X45810769Y-164938094D01*
X67833333Y-178854819D02*
X67500000Y-178378628D01*
X67261905Y-178854819D02*
X67261905Y-177854819D01*
X67261905Y-177854819D02*
X67642857Y-177854819D01*
X67642857Y-177854819D02*
X67738095Y-177902438D01*
X67738095Y-177902438D02*
X67785714Y-177950057D01*
X67785714Y-177950057D02*
X67833333Y-178045295D01*
X67833333Y-178045295D02*
X67833333Y-178188152D01*
X67833333Y-178188152D02*
X67785714Y-178283390D01*
X67785714Y-178283390D02*
X67738095Y-178331009D01*
X67738095Y-178331009D02*
X67642857Y-178378628D01*
X67642857Y-178378628D02*
X67261905Y-178378628D01*
X68309524Y-178854819D02*
X68500000Y-178854819D01*
X68500000Y-178854819D02*
X68595238Y-178807200D01*
X68595238Y-178807200D02*
X68642857Y-178759580D01*
X68642857Y-178759580D02*
X68738095Y-178616723D01*
X68738095Y-178616723D02*
X68785714Y-178426247D01*
X68785714Y-178426247D02*
X68785714Y-178045295D01*
X68785714Y-178045295D02*
X68738095Y-177950057D01*
X68738095Y-177950057D02*
X68690476Y-177902438D01*
X68690476Y-177902438D02*
X68595238Y-177854819D01*
X68595238Y-177854819D02*
X68404762Y-177854819D01*
X68404762Y-177854819D02*
X68309524Y-177902438D01*
X68309524Y-177902438D02*
X68261905Y-177950057D01*
X68261905Y-177950057D02*
X68214286Y-178045295D01*
X68214286Y-178045295D02*
X68214286Y-178283390D01*
X68214286Y-178283390D02*
X68261905Y-178378628D01*
X68261905Y-178378628D02*
X68309524Y-178426247D01*
X68309524Y-178426247D02*
X68404762Y-178473866D01*
X68404762Y-178473866D02*
X68595238Y-178473866D01*
X68595238Y-178473866D02*
X68690476Y-178426247D01*
X68690476Y-178426247D02*
X68738095Y-178378628D01*
X68738095Y-178378628D02*
X68785714Y-178283390D01*
X43233333Y-179574819D02*
X42900000Y-179098628D01*
X42661905Y-179574819D02*
X42661905Y-178574819D01*
X42661905Y-178574819D02*
X43042857Y-178574819D01*
X43042857Y-178574819D02*
X43138095Y-178622438D01*
X43138095Y-178622438D02*
X43185714Y-178670057D01*
X43185714Y-178670057D02*
X43233333Y-178765295D01*
X43233333Y-178765295D02*
X43233333Y-178908152D01*
X43233333Y-178908152D02*
X43185714Y-179003390D01*
X43185714Y-179003390D02*
X43138095Y-179051009D01*
X43138095Y-179051009D02*
X43042857Y-179098628D01*
X43042857Y-179098628D02*
X42661905Y-179098628D01*
X44138095Y-178574819D02*
X43661905Y-178574819D01*
X43661905Y-178574819D02*
X43614286Y-179051009D01*
X43614286Y-179051009D02*
X43661905Y-179003390D01*
X43661905Y-179003390D02*
X43757143Y-178955771D01*
X43757143Y-178955771D02*
X43995238Y-178955771D01*
X43995238Y-178955771D02*
X44090476Y-179003390D01*
X44090476Y-179003390D02*
X44138095Y-179051009D01*
X44138095Y-179051009D02*
X44185714Y-179146247D01*
X44185714Y-179146247D02*
X44185714Y-179384342D01*
X44185714Y-179384342D02*
X44138095Y-179479580D01*
X44138095Y-179479580D02*
X44090476Y-179527200D01*
X44090476Y-179527200D02*
X43995238Y-179574819D01*
X43995238Y-179574819D02*
X43757143Y-179574819D01*
X43757143Y-179574819D02*
X43661905Y-179527200D01*
X43661905Y-179527200D02*
X43614286Y-179479580D01*
X43233333Y-160624819D02*
X42900000Y-160148628D01*
X42661905Y-160624819D02*
X42661905Y-159624819D01*
X42661905Y-159624819D02*
X43042857Y-159624819D01*
X43042857Y-159624819D02*
X43138095Y-159672438D01*
X43138095Y-159672438D02*
X43185714Y-159720057D01*
X43185714Y-159720057D02*
X43233333Y-159815295D01*
X43233333Y-159815295D02*
X43233333Y-159958152D01*
X43233333Y-159958152D02*
X43185714Y-160053390D01*
X43185714Y-160053390D02*
X43138095Y-160101009D01*
X43138095Y-160101009D02*
X43042857Y-160148628D01*
X43042857Y-160148628D02*
X42661905Y-160148628D01*
X43614286Y-159720057D02*
X43661905Y-159672438D01*
X43661905Y-159672438D02*
X43757143Y-159624819D01*
X43757143Y-159624819D02*
X43995238Y-159624819D01*
X43995238Y-159624819D02*
X44090476Y-159672438D01*
X44090476Y-159672438D02*
X44138095Y-159720057D01*
X44138095Y-159720057D02*
X44185714Y-159815295D01*
X44185714Y-159815295D02*
X44185714Y-159910533D01*
X44185714Y-159910533D02*
X44138095Y-160053390D01*
X44138095Y-160053390D02*
X43566667Y-160624819D01*
X43566667Y-160624819D02*
X44185714Y-160624819D01*
X66363333Y-158159580D02*
X66315714Y-158207200D01*
X66315714Y-158207200D02*
X66172857Y-158254819D01*
X66172857Y-158254819D02*
X66077619Y-158254819D01*
X66077619Y-158254819D02*
X65934762Y-158207200D01*
X65934762Y-158207200D02*
X65839524Y-158111961D01*
X65839524Y-158111961D02*
X65791905Y-158016723D01*
X65791905Y-158016723D02*
X65744286Y-157826247D01*
X65744286Y-157826247D02*
X65744286Y-157683390D01*
X65744286Y-157683390D02*
X65791905Y-157492914D01*
X65791905Y-157492914D02*
X65839524Y-157397676D01*
X65839524Y-157397676D02*
X65934762Y-157302438D01*
X65934762Y-157302438D02*
X66077619Y-157254819D01*
X66077619Y-157254819D02*
X66172857Y-157254819D01*
X66172857Y-157254819D02*
X66315714Y-157302438D01*
X66315714Y-157302438D02*
X66363333Y-157350057D01*
X67268095Y-157254819D02*
X66791905Y-157254819D01*
X66791905Y-157254819D02*
X66744286Y-157731009D01*
X66744286Y-157731009D02*
X66791905Y-157683390D01*
X66791905Y-157683390D02*
X66887143Y-157635771D01*
X66887143Y-157635771D02*
X67125238Y-157635771D01*
X67125238Y-157635771D02*
X67220476Y-157683390D01*
X67220476Y-157683390D02*
X67268095Y-157731009D01*
X67268095Y-157731009D02*
X67315714Y-157826247D01*
X67315714Y-157826247D02*
X67315714Y-158064342D01*
X67315714Y-158064342D02*
X67268095Y-158159580D01*
X67268095Y-158159580D02*
X67220476Y-158207200D01*
X67220476Y-158207200D02*
X67125238Y-158254819D01*
X67125238Y-158254819D02*
X66887143Y-158254819D01*
X66887143Y-158254819D02*
X66791905Y-158207200D01*
X66791905Y-158207200D02*
X66744286Y-158159580D01*
X64261905Y-178854819D02*
X64261905Y-177854819D01*
X64261905Y-177854819D02*
X64500000Y-177854819D01*
X64500000Y-177854819D02*
X64642857Y-177902438D01*
X64642857Y-177902438D02*
X64738095Y-177997676D01*
X64738095Y-177997676D02*
X64785714Y-178092914D01*
X64785714Y-178092914D02*
X64833333Y-178283390D01*
X64833333Y-178283390D02*
X64833333Y-178426247D01*
X64833333Y-178426247D02*
X64785714Y-178616723D01*
X64785714Y-178616723D02*
X64738095Y-178711961D01*
X64738095Y-178711961D02*
X64642857Y-178807200D01*
X64642857Y-178807200D02*
X64500000Y-178854819D01*
X64500000Y-178854819D02*
X64261905Y-178854819D01*
X65214286Y-177950057D02*
X65261905Y-177902438D01*
X65261905Y-177902438D02*
X65357143Y-177854819D01*
X65357143Y-177854819D02*
X65595238Y-177854819D01*
X65595238Y-177854819D02*
X65690476Y-177902438D01*
X65690476Y-177902438D02*
X65738095Y-177950057D01*
X65738095Y-177950057D02*
X65785714Y-178045295D01*
X65785714Y-178045295D02*
X65785714Y-178140533D01*
X65785714Y-178140533D02*
X65738095Y-178283390D01*
X65738095Y-178283390D02*
X65166667Y-178854819D01*
X65166667Y-178854819D02*
X65785714Y-178854819D01*
X66363333Y-160759580D02*
X66315714Y-160807200D01*
X66315714Y-160807200D02*
X66172857Y-160854819D01*
X66172857Y-160854819D02*
X66077619Y-160854819D01*
X66077619Y-160854819D02*
X65934762Y-160807200D01*
X65934762Y-160807200D02*
X65839524Y-160711961D01*
X65839524Y-160711961D02*
X65791905Y-160616723D01*
X65791905Y-160616723D02*
X65744286Y-160426247D01*
X65744286Y-160426247D02*
X65744286Y-160283390D01*
X65744286Y-160283390D02*
X65791905Y-160092914D01*
X65791905Y-160092914D02*
X65839524Y-159997676D01*
X65839524Y-159997676D02*
X65934762Y-159902438D01*
X65934762Y-159902438D02*
X66077619Y-159854819D01*
X66077619Y-159854819D02*
X66172857Y-159854819D01*
X66172857Y-159854819D02*
X66315714Y-159902438D01*
X66315714Y-159902438D02*
X66363333Y-159950057D01*
X66696667Y-159854819D02*
X67363333Y-159854819D01*
X67363333Y-159854819D02*
X66934762Y-160854819D01*
D11*
X54009523Y-179562180D02*
X53961904Y-179609800D01*
X53961904Y-179609800D02*
X53819047Y-179657419D01*
X53819047Y-179657419D02*
X53723809Y-179657419D01*
X53723809Y-179657419D02*
X53580952Y-179609800D01*
X53580952Y-179609800D02*
X53485714Y-179514561D01*
X53485714Y-179514561D02*
X53438095Y-179419323D01*
X53438095Y-179419323D02*
X53390476Y-179228847D01*
X53390476Y-179228847D02*
X53390476Y-179085990D01*
X53390476Y-179085990D02*
X53438095Y-178895514D01*
X53438095Y-178895514D02*
X53485714Y-178800276D01*
X53485714Y-178800276D02*
X53580952Y-178705038D01*
X53580952Y-178705038D02*
X53723809Y-178657419D01*
X53723809Y-178657419D02*
X53819047Y-178657419D01*
X53819047Y-178657419D02*
X53961904Y-178705038D01*
X53961904Y-178705038D02*
X54009523Y-178752657D01*
X54438095Y-179657419D02*
X54438095Y-178657419D01*
X54438095Y-178657419D02*
X55009523Y-179657419D01*
X55009523Y-179657419D02*
X55009523Y-178657419D01*
X56009523Y-179657419D02*
X55438095Y-179657419D01*
X55723809Y-179657419D02*
X55723809Y-178657419D01*
X55723809Y-178657419D02*
X55628571Y-178800276D01*
X55628571Y-178800276D02*
X55533333Y-178895514D01*
X55533333Y-178895514D02*
X55438095Y-178943133D01*
D12*
%TO.C,Q2*%
X43337500Y-175030000D02*
X41662500Y-175030000D01*
X43337500Y-175030000D02*
X43987500Y-175030000D01*
X43337500Y-178150000D02*
X42687500Y-178150000D01*
X43337500Y-178150000D02*
X43987500Y-178150000D01*
%TO.C,U2*%
X62400000Y-163610000D02*
X56390000Y-163610000D01*
X60150000Y-156790000D02*
X56390000Y-156790000D01*
X56390000Y-163610000D02*
X56390000Y-162350000D01*
X56390000Y-156790000D02*
X56390000Y-158050000D01*
%TO.C,D1*%
X64040000Y-176860000D02*
X65960000Y-176860000D01*
X65960000Y-176860000D02*
X65960000Y-174000000D01*
X64040000Y-174000000D02*
X64040000Y-176860000D01*
%TO.C,Q1*%
X43400000Y-163940000D02*
X41725000Y-163940000D01*
X43400000Y-163940000D02*
X44050000Y-163940000D01*
X43400000Y-167060000D02*
X42750000Y-167060000D01*
X43400000Y-167060000D02*
X44050000Y-167060000D01*
%TO.C,C1*%
X48406267Y-184660000D02*
X48113733Y-184660000D01*
X48406267Y-183640000D02*
X48113733Y-183640000D01*
%TO.C,G\u002A\u002A\u002A*%
G36*
X58718452Y-166867673D02*
G01*
X59016368Y-166872622D01*
X59060082Y-166915047D01*
X59103797Y-166957472D01*
X59105916Y-167891125D01*
X59108035Y-168824778D01*
X59156298Y-168737306D01*
X59166457Y-168718739D01*
X59183985Y-168686517D01*
X59208335Y-168641652D01*
X59238958Y-168585157D01*
X59275309Y-168518044D01*
X59316838Y-168441325D01*
X59362998Y-168356011D01*
X59413242Y-168263115D01*
X59467022Y-168163648D01*
X59523790Y-168058623D01*
X59583000Y-167949052D01*
X59644102Y-167835946D01*
X59685000Y-167760223D01*
X60165440Y-166870612D01*
X60446296Y-166870612D01*
X60727152Y-166870612D01*
X60764606Y-166934167D01*
X60802060Y-166997723D01*
X60787164Y-167023750D01*
X60776197Y-167043293D01*
X60758345Y-167075590D01*
X60734160Y-167119623D01*
X60704194Y-167174375D01*
X60668997Y-167238829D01*
X60629122Y-167311966D01*
X60585120Y-167392769D01*
X60537543Y-167480219D01*
X60486942Y-167573301D01*
X60433869Y-167670995D01*
X60378875Y-167772283D01*
X60322513Y-167876150D01*
X60265333Y-167981575D01*
X60207887Y-168087543D01*
X60150727Y-168193035D01*
X60094404Y-168297033D01*
X60039470Y-168398520D01*
X59986477Y-168496478D01*
X59935976Y-168589890D01*
X59888518Y-168677737D01*
X59844656Y-168759002D01*
X59804941Y-168832668D01*
X59769924Y-168897716D01*
X59740157Y-168953128D01*
X59716191Y-168997888D01*
X59698579Y-169030978D01*
X59687871Y-169051379D01*
X59684593Y-169058067D01*
X59688106Y-169066404D01*
X59698358Y-169089015D01*
X59714975Y-169125100D01*
X59737582Y-169173858D01*
X59765806Y-169234490D01*
X59799271Y-169306198D01*
X59837604Y-169388180D01*
X59880429Y-169479639D01*
X59927374Y-169579774D01*
X59978063Y-169687786D01*
X60032122Y-169802875D01*
X60089177Y-169924242D01*
X60148854Y-170051087D01*
X60210778Y-170182611D01*
X60260767Y-170288719D01*
X60324208Y-170423355D01*
X60385720Y-170553931D01*
X60444929Y-170679648D01*
X60501458Y-170799706D01*
X60554931Y-170913307D01*
X60604974Y-171019652D01*
X60651209Y-171117941D01*
X60693262Y-171207376D01*
X60730757Y-171287157D01*
X60763318Y-171356487D01*
X60790569Y-171414564D01*
X60812134Y-171460592D01*
X60827639Y-171493770D01*
X60836706Y-171513300D01*
X60839071Y-171518549D01*
X60835976Y-171528622D01*
X60825734Y-171548906D01*
X60810300Y-171575649D01*
X60803956Y-171585964D01*
X60766543Y-171645823D01*
X60479803Y-171643634D01*
X60193063Y-171641445D01*
X59737782Y-170700982D01*
X59680835Y-170583475D01*
X59625816Y-170470194D01*
X59573169Y-170362038D01*
X59523335Y-170259907D01*
X59476758Y-170164697D01*
X59433879Y-170077309D01*
X59395140Y-169998639D01*
X59360985Y-169929586D01*
X59331855Y-169871049D01*
X59308193Y-169823927D01*
X59290442Y-169789117D01*
X59279043Y-169767518D01*
X59274439Y-169760028D01*
X59274434Y-169760028D01*
X59267866Y-169766709D01*
X59254379Y-169785602D01*
X59235419Y-169814503D01*
X59212429Y-169851207D01*
X59186854Y-169893508D01*
X59185181Y-169896324D01*
X59103993Y-170033112D01*
X59103931Y-171557267D01*
X59103868Y-173081423D01*
X58768452Y-173609253D01*
X58714462Y-173694086D01*
X58663000Y-173774704D01*
X58614770Y-173850015D01*
X58570477Y-173918933D01*
X58530825Y-173980366D01*
X58496520Y-174033226D01*
X58468266Y-174076425D01*
X58446768Y-174108872D01*
X58432732Y-174129478D01*
X58426861Y-174137155D01*
X58426785Y-174137181D01*
X58426363Y-174128943D01*
X58425949Y-174104573D01*
X58425543Y-174064604D01*
X58425146Y-174009570D01*
X58424759Y-173940006D01*
X58424383Y-173856445D01*
X58424019Y-173759421D01*
X58423668Y-173649469D01*
X58423331Y-173527122D01*
X58423008Y-173392914D01*
X58422700Y-173247380D01*
X58422409Y-173091053D01*
X58422136Y-172924467D01*
X58421881Y-172748157D01*
X58421644Y-172562656D01*
X58421429Y-172368499D01*
X58421234Y-172166219D01*
X58421061Y-171956350D01*
X58420911Y-171739427D01*
X58420784Y-171515983D01*
X58420683Y-171286552D01*
X58420607Y-171051669D01*
X58420558Y-170811867D01*
X58420536Y-170567681D01*
X58420535Y-170500001D01*
X58420535Y-166862723D01*
X58718452Y-166867673D01*
G37*
G36*
X58037202Y-170501178D02*
G01*
X58037195Y-170800956D01*
X58037174Y-171084489D01*
X58037137Y-171352197D01*
X58037083Y-171604500D01*
X58037011Y-171841821D01*
X58036920Y-172064580D01*
X58036808Y-172273197D01*
X58036674Y-172468094D01*
X58036516Y-172649692D01*
X58036334Y-172818411D01*
X58036126Y-172974672D01*
X58035891Y-173118897D01*
X58035627Y-173251506D01*
X58035334Y-173372920D01*
X58035009Y-173483560D01*
X58034652Y-173583846D01*
X58034262Y-173674201D01*
X58033837Y-173755044D01*
X58033376Y-173826797D01*
X58032877Y-173889880D01*
X58032339Y-173944715D01*
X58031762Y-173991722D01*
X58031143Y-174031322D01*
X58030482Y-174063937D01*
X58029777Y-174089986D01*
X58029027Y-174109891D01*
X58028230Y-174124073D01*
X58027386Y-174132953D01*
X58026493Y-174136951D01*
X58026133Y-174137278D01*
X58019997Y-174130402D01*
X58005719Y-174110507D01*
X57984018Y-174078691D01*
X57955610Y-174036051D01*
X57921212Y-173983686D01*
X57881543Y-173922693D01*
X57837319Y-173854170D01*
X57789259Y-173779216D01*
X57738078Y-173698928D01*
X57684495Y-173614404D01*
X57684468Y-173614362D01*
X57353872Y-173091445D01*
X57353870Y-171384183D01*
X57353868Y-169676921D01*
X57147618Y-169681352D01*
X57066327Y-169683556D01*
X56999157Y-169686602D01*
X56943571Y-169690888D01*
X56897028Y-169696814D01*
X56856990Y-169704776D01*
X56820919Y-169715175D01*
X56786274Y-169728410D01*
X56754053Y-169743152D01*
X56691416Y-169780944D01*
X56639038Y-169828968D01*
X56596402Y-169888127D01*
X56562990Y-169959325D01*
X56538283Y-170043464D01*
X56521764Y-170141447D01*
X56520796Y-170149778D01*
X56519170Y-170172654D01*
X56517653Y-170210490D01*
X56516272Y-170261578D01*
X56515052Y-170324211D01*
X56514021Y-170396682D01*
X56513204Y-170477284D01*
X56512627Y-170564311D01*
X56512317Y-170656054D01*
X56512270Y-170704581D01*
X56512084Y-170810069D01*
X56511572Y-170908669D01*
X56510756Y-170998970D01*
X56509660Y-171079564D01*
X56508306Y-171149040D01*
X56506716Y-171205991D01*
X56504915Y-171249005D01*
X56503054Y-171275414D01*
X56486863Y-171384784D01*
X56461227Y-171489870D01*
X56428943Y-171581643D01*
X56402313Y-171645612D01*
X56117674Y-171645509D01*
X55833035Y-171645407D01*
X55796982Y-171583169D01*
X55760930Y-171520931D01*
X55781721Y-171468688D01*
X55790709Y-171445876D01*
X55798536Y-171424822D01*
X55805294Y-171404227D01*
X55811077Y-171382793D01*
X55815977Y-171359224D01*
X55820089Y-171332222D01*
X55823505Y-171300490D01*
X55826319Y-171262729D01*
X55828622Y-171217642D01*
X55830510Y-171163933D01*
X55832074Y-171100302D01*
X55833407Y-171025454D01*
X55834604Y-170938090D01*
X55835757Y-170836913D01*
X55836959Y-170720625D01*
X55837212Y-170695612D01*
X55838468Y-170576528D01*
X55839691Y-170472863D01*
X55840917Y-170383370D01*
X55842183Y-170306799D01*
X55843524Y-170241905D01*
X55844978Y-170187438D01*
X55846580Y-170142151D01*
X55848366Y-170104797D01*
X55850373Y-170074127D01*
X55852637Y-170048894D01*
X55855194Y-170027851D01*
X55856929Y-170016445D01*
X55882460Y-169889303D01*
X55915379Y-169775970D01*
X55956546Y-169674919D01*
X56006816Y-169584627D01*
X56067048Y-169503567D01*
X56138100Y-169430213D01*
X56220828Y-169363042D01*
X56226711Y-169358795D01*
X56270388Y-169327487D01*
X56218378Y-169289415D01*
X56133472Y-169218552D01*
X56060292Y-169138491D01*
X55998310Y-169048305D01*
X55946997Y-168947067D01*
X55905824Y-168833848D01*
X55874260Y-168707723D01*
X55868064Y-168675471D01*
X55863701Y-168650598D01*
X55860090Y-168627115D01*
X55857158Y-168603176D01*
X55854836Y-168576934D01*
X55853054Y-168546545D01*
X55851739Y-168510161D01*
X55850823Y-168465938D01*
X55850234Y-168412029D01*
X55849902Y-168346589D01*
X55849770Y-168274801D01*
X56512521Y-168274801D01*
X56512826Y-168349068D01*
X56513608Y-168420434D01*
X56514866Y-168486105D01*
X56516598Y-168543288D01*
X56518803Y-168589189D01*
X56521168Y-168618347D01*
X56536687Y-168712942D01*
X56561083Y-168793951D01*
X56595114Y-168862085D01*
X56639538Y-168918057D01*
X56695110Y-168962580D01*
X56762589Y-168996364D01*
X56842732Y-169020124D01*
X56936295Y-169034570D01*
X56966368Y-169037142D01*
X57031669Y-169040932D01*
X57100094Y-169043311D01*
X57167197Y-169044240D01*
X57228535Y-169043678D01*
X57279664Y-169041583D01*
X57297618Y-169040181D01*
X57353868Y-169034868D01*
X57353868Y-168274084D01*
X57353868Y-167513299D01*
X57315684Y-167507573D01*
X57288807Y-167505204D01*
X57249130Y-167503883D01*
X57199598Y-167503516D01*
X57143154Y-167504011D01*
X57082741Y-167505274D01*
X57021304Y-167507213D01*
X56961787Y-167509734D01*
X56907132Y-167512744D01*
X56860285Y-167516151D01*
X56824187Y-167519860D01*
X56801784Y-167523781D01*
X56801645Y-167523819D01*
X56732397Y-167548910D01*
X56673996Y-167583327D01*
X56625741Y-167628069D01*
X56586933Y-167684134D01*
X56556872Y-167752523D01*
X56534857Y-167834234D01*
X56520796Y-167924778D01*
X56518206Y-167957766D01*
X56516103Y-168004620D01*
X56514484Y-168062544D01*
X56513349Y-168128745D01*
X56512695Y-168200429D01*
X56512521Y-168274801D01*
X55849770Y-168274801D01*
X55849757Y-168267772D01*
X55849727Y-168195612D01*
X55849802Y-168102174D01*
X55850078Y-168023587D01*
X55850613Y-167958035D01*
X55851462Y-167903701D01*
X55852685Y-167858770D01*
X55854337Y-167821426D01*
X55856475Y-167789854D01*
X55859157Y-167762237D01*
X55862440Y-167736759D01*
X55864591Y-167722572D01*
X55893133Y-167584300D01*
X55932949Y-167458229D01*
X55984009Y-167344392D01*
X56046285Y-167242826D01*
X56119749Y-167153566D01*
X56204371Y-167076648D01*
X56300123Y-167012106D01*
X56406978Y-166959977D01*
X56506684Y-166925403D01*
X56535921Y-166917017D01*
X56563133Y-166909570D01*
X56589460Y-166903000D01*
X56616042Y-166897245D01*
X56644019Y-166892242D01*
X56674533Y-166887930D01*
X56708724Y-166884245D01*
X56747733Y-166881125D01*
X56792699Y-166878510D01*
X56844764Y-166876335D01*
X56905067Y-166874539D01*
X56974750Y-166873060D01*
X57054954Y-166871835D01*
X57146817Y-166870802D01*
X57251482Y-166869899D01*
X57370089Y-166869064D01*
X57503778Y-166868233D01*
X57560118Y-166867898D01*
X58037202Y-166865077D01*
X58037202Y-170501178D01*
G37*
%TO.C,C4*%
X66383733Y-155880000D02*
X66676267Y-155880000D01*
X66383733Y-156900000D02*
X66676267Y-156900000D01*
%TO.C,J1*%
X62505000Y-145957500D02*
X62505000Y-155077500D01*
X56805000Y-145957500D02*
X56805000Y-147267500D01*
X47005000Y-145957500D02*
X62505000Y-145957500D01*
X61205000Y-147267500D02*
X61205000Y-153767500D01*
X56805000Y-147267500D02*
X61205000Y-147267500D01*
X52705000Y-147267500D02*
X52705000Y-145957500D01*
X52705000Y-147267500D02*
X52705000Y-147267500D01*
X48305000Y-147267500D02*
X52705000Y-147267500D01*
X61205000Y-153767500D02*
X48305000Y-153767500D01*
X48305000Y-153767500D02*
X48305000Y-147267500D01*
X62505000Y-155077500D02*
X47005000Y-155077500D01*
X47005000Y-155077500D02*
X47005000Y-145957500D01*
%TO.C,R4*%
X43654724Y-170022500D02*
X43145276Y-170022500D01*
X43654724Y-168977500D02*
X43145276Y-168977500D01*
%TO.C,R10*%
X41540000Y-156540000D02*
X41540000Y-158460000D01*
X41540000Y-158460000D02*
X44400000Y-158460000D01*
X44400000Y-156540000D02*
X41540000Y-156540000D01*
%TO.C,C6*%
X66383733Y-164090000D02*
X66676267Y-164090000D01*
X66383733Y-165110000D02*
X66676267Y-165110000D01*
%TO.C,SW2*%
X46810000Y-177630000D02*
X47210000Y-177630000D01*
X46810000Y-177630000D02*
X46810000Y-172890000D01*
X50210000Y-177630000D02*
X48150000Y-177630000D01*
X51550000Y-177630000D02*
X51150000Y-177630000D01*
X51550000Y-177630000D02*
X51550000Y-172890000D01*
X46810000Y-172890000D02*
X47210000Y-172890000D01*
X50210000Y-172890000D02*
X48150000Y-172890000D01*
X51550000Y-172890000D02*
X51150000Y-172890000D01*
%TO.C,R1*%
X48514724Y-188482500D02*
X48005276Y-188482500D01*
X48514724Y-187437500D02*
X48005276Y-187437500D01*
%TO.C,R8*%
X68522500Y-174745276D02*
X68522500Y-175254724D01*
X67477500Y-174745276D02*
X67477500Y-175254724D01*
%TO.C,R3*%
X43145276Y-172067500D02*
X43654724Y-172067500D01*
X43145276Y-173112500D02*
X43654724Y-173112500D01*
%TO.C,D3*%
X45260000Y-154960000D02*
X45260000Y-153040000D01*
X45260000Y-153040000D02*
X42400000Y-153040000D01*
X42400000Y-154960000D02*
X45260000Y-154960000D01*
%TO.C,SW1*%
X46810000Y-167240000D02*
X47210000Y-167240000D01*
X46810000Y-167240000D02*
X46810000Y-162500000D01*
X50210000Y-167240000D02*
X48150000Y-167240000D01*
X51550000Y-167240000D02*
X51150000Y-167240000D01*
X51550000Y-167240000D02*
X51550000Y-162500000D01*
X46810000Y-162500000D02*
X47210000Y-162500000D01*
X50210000Y-162500000D02*
X48150000Y-162500000D01*
X51550000Y-162500000D02*
X51150000Y-162500000D01*
%TO.C,R9*%
X68522500Y-180745276D02*
X68522500Y-181254724D01*
X67477500Y-180745276D02*
X67477500Y-181254724D01*
%TO.C,R5*%
X43654724Y-181112500D02*
X43145276Y-181112500D01*
X43654724Y-180067500D02*
X43145276Y-180067500D01*
%TO.C,R2*%
X43654724Y-162022500D02*
X43145276Y-162022500D01*
X43654724Y-160977500D02*
X43145276Y-160977500D01*
%TO.C,C5*%
X66383733Y-158420000D02*
X66676267Y-158420000D01*
X66383733Y-159440000D02*
X66676267Y-159440000D01*
%TO.C,D2*%
X64040000Y-182860000D02*
X65960000Y-182860000D01*
X65960000Y-182860000D02*
X65960000Y-180000000D01*
X64040000Y-180000000D02*
X64040000Y-182860000D01*
%TO.C,C7*%
X66383733Y-161260000D02*
X66676267Y-161260000D01*
X66383733Y-162280000D02*
X66676267Y-162280000D01*
D11*
%TO.C,CN1*%
X50375000Y-186387313D02*
X50375000Y-184487313D01*
X50375000Y-189687313D02*
X50375000Y-188687313D01*
X59075000Y-184487313D02*
X59075000Y-186387313D01*
X59075000Y-188687313D02*
X59075000Y-189687313D01*
%TD*%
%LPC*%
D13*
%TO.C,Q2*%
X42400000Y-175640000D03*
X42400000Y-177540000D03*
X44275000Y-176590000D03*
%TD*%
D14*
%TO.C,U2*%
X61450000Y-162500000D03*
X61450000Y-160200000D03*
D15*
X55150000Y-160200000D03*
D14*
X61450000Y-157900000D03*
%TD*%
D16*
%TO.C,D1*%
X65000000Y-176025000D03*
X65000000Y-173975000D03*
%TD*%
D13*
%TO.C,Q1*%
X42462500Y-164550000D03*
X42462500Y-166450000D03*
X44337500Y-165500000D03*
%TD*%
D17*
%TO.C,C1*%
X49122500Y-184150000D03*
X47397500Y-184150000D03*
%TD*%
D18*
%TO.C,C4*%
X65667500Y-156390000D03*
X67392500Y-156390000D03*
%TD*%
D19*
%TO.C,J1*%
X57295000Y-149247500D03*
D20*
X57295000Y-151787500D03*
X54755000Y-149247500D03*
X54755000Y-151787500D03*
X52215000Y-149247500D03*
X52215000Y-151787500D03*
%TD*%
D21*
%TO.C,R4*%
X44312500Y-169500000D03*
X42487500Y-169500000D03*
%TD*%
D22*
%TO.C,R10*%
X42375000Y-157500000D03*
X44425000Y-157500000D03*
%TD*%
D18*
%TO.C,C6*%
X65667500Y-164600000D03*
X67392500Y-164600000D03*
%TD*%
D23*
%TO.C,SW2*%
X47680000Y-178860000D03*
X47680000Y-171660000D03*
X50680000Y-178860000D03*
X50680000Y-171660000D03*
%TD*%
D21*
%TO.C,R1*%
X49172500Y-187960000D03*
X47347500Y-187960000D03*
%TD*%
D24*
%TO.C,R8*%
X68000000Y-174087500D03*
X68000000Y-175912500D03*
%TD*%
D25*
%TO.C,R3*%
X42487500Y-172590000D03*
X44312500Y-172590000D03*
%TD*%
D26*
%TO.C,D3*%
X44425000Y-154000000D03*
X42375000Y-154000000D03*
%TD*%
D23*
%TO.C,SW1*%
X47680000Y-168470000D03*
X47680000Y-161270000D03*
X50680000Y-168470000D03*
X50680000Y-161270000D03*
%TD*%
D24*
%TO.C,R9*%
X68000000Y-180087500D03*
X68000000Y-181912500D03*
%TD*%
D21*
%TO.C,R5*%
X44312500Y-180590000D03*
X42487500Y-180590000D03*
%TD*%
%TO.C,R2*%
X44312500Y-161500000D03*
X42487500Y-161500000D03*
%TD*%
D18*
%TO.C,C5*%
X65667500Y-158930000D03*
X67392500Y-158930000D03*
%TD*%
D16*
%TO.C,D2*%
X65000000Y-182025000D03*
X65000000Y-179975000D03*
%TD*%
D18*
%TO.C,C7*%
X65667500Y-161770000D03*
X67392500Y-161770000D03*
%TD*%
D27*
%TO.C,CN1*%
X51975000Y-183877313D03*
X57775000Y-183877313D03*
D28*
X51645000Y-182797313D03*
X52445000Y-182797313D03*
D29*
X53595000Y-182797313D03*
X54595000Y-182797313D03*
X55095000Y-182797313D03*
X56095000Y-182797313D03*
D28*
X58045000Y-182797313D03*
X57245000Y-182797313D03*
D29*
X56595000Y-182797313D03*
X55595000Y-182797313D03*
X54095000Y-182797313D03*
X53095000Y-182797313D03*
D30*
X50425000Y-183387313D03*
X59075000Y-183387313D03*
X50425000Y-187557313D03*
X59075000Y-187557313D03*
%TD*%
%LPD*%
M02*
