%TF.GenerationSoftware,KiCad,Pcbnew,7.0.7*%
%TF.CreationDate,2023-09-20T03:29:36+03:00*%
%TF.ProjectId,TPB v1.1,54504220-7631-42e3-912e-6b696361645f,rev?*%
%TF.SameCoordinates,Original*%
%TF.FileFunction,Legend,Bot*%
%TF.FilePolarity,Positive*%
%FSLAX46Y46*%
G04 Gerber Fmt 4.6, Leading zero omitted, Abs format (unit mm)*
G04 Created by KiCad (PCBNEW 7.0.7) date 2023-09-20 03:29:36*
%MOMM*%
%LPD*%
G01*
G04 APERTURE LIST*
G04 Aperture macros list*
%AMRoundRect*
0 Rectangle with rounded corners*
0 $1 Rounding radius*
0 $2 $3 $4 $5 $6 $7 $8 $9 X,Y pos of 4 corners*
0 Add a 4 corners polygon primitive as box body*
4,1,4,$2,$3,$4,$5,$6,$7,$8,$9,$2,$3,0*
0 Add four circle primitives for the rounded corners*
1,1,$1+$1,$2,$3*
1,1,$1+$1,$4,$5*
1,1,$1+$1,$6,$7*
1,1,$1+$1,$8,$9*
0 Add four rect primitives between the rounded corners*
20,1,$1+$1,$2,$3,$4,$5,0*
20,1,$1+$1,$4,$5,$6,$7,0*
20,1,$1+$1,$6,$7,$8,$9,0*
20,1,$1+$1,$8,$9,$2,$3,0*%
G04 Aperture macros list end*
%ADD10C,0.150000*%
%ADD11C,0.120000*%
%ADD12RoundRect,0.250000X-0.600000X0.600000X-0.600000X-0.600000X0.600000X-0.600000X0.600000X0.600000X0*%
%ADD13C,1.700000*%
%ADD14C,0.700000*%
%ADD15O,0.900000X2.000000*%
%ADD16RoundRect,0.150000X0.150000X-0.825000X0.150000X0.825000X-0.150000X0.825000X-0.150000X-0.825000X0*%
%ADD17RoundRect,0.237500X-0.237500X0.250000X-0.237500X-0.250000X0.237500X-0.250000X0.237500X0.250000X0*%
%ADD18RoundRect,0.237500X0.237500X-0.300000X0.237500X0.300000X-0.237500X0.300000X-0.237500X-0.300000X0*%
%ADD19RoundRect,0.237500X-0.237500X0.300000X-0.237500X-0.300000X0.237500X-0.300000X0.237500X0.300000X0*%
G04 APERTURE END LIST*
D10*
X55091792Y-154369819D02*
X55425125Y-153893628D01*
X55663220Y-154369819D02*
X55663220Y-153369819D01*
X55663220Y-153369819D02*
X55282268Y-153369819D01*
X55282268Y-153369819D02*
X55187030Y-153417438D01*
X55187030Y-153417438D02*
X55139411Y-153465057D01*
X55139411Y-153465057D02*
X55091792Y-153560295D01*
X55091792Y-153560295D02*
X55091792Y-153703152D01*
X55091792Y-153703152D02*
X55139411Y-153798390D01*
X55139411Y-153798390D02*
X55187030Y-153846009D01*
X55187030Y-153846009D02*
X55282268Y-153893628D01*
X55282268Y-153893628D02*
X55663220Y-153893628D01*
X54758458Y-153369819D02*
X54091792Y-154369819D01*
X54091792Y-153369819D02*
X54758458Y-154369819D01*
X58558458Y-146669819D02*
X57939411Y-146669819D01*
X57939411Y-146669819D02*
X58272744Y-147050771D01*
X58272744Y-147050771D02*
X58129887Y-147050771D01*
X58129887Y-147050771D02*
X58034649Y-147098390D01*
X58034649Y-147098390D02*
X57987030Y-147146009D01*
X57987030Y-147146009D02*
X57939411Y-147241247D01*
X57939411Y-147241247D02*
X57939411Y-147479342D01*
X57939411Y-147479342D02*
X57987030Y-147574580D01*
X57987030Y-147574580D02*
X58034649Y-147622200D01*
X58034649Y-147622200D02*
X58129887Y-147669819D01*
X58129887Y-147669819D02*
X58415601Y-147669819D01*
X58415601Y-147669819D02*
X58510839Y-147622200D01*
X58510839Y-147622200D02*
X58558458Y-147574580D01*
X57653696Y-146669819D02*
X57320363Y-147669819D01*
X57320363Y-147669819D02*
X56987030Y-146669819D01*
X56748934Y-146669819D02*
X56129887Y-146669819D01*
X56129887Y-146669819D02*
X56463220Y-147050771D01*
X56463220Y-147050771D02*
X56320363Y-147050771D01*
X56320363Y-147050771D02*
X56225125Y-147098390D01*
X56225125Y-147098390D02*
X56177506Y-147146009D01*
X56177506Y-147146009D02*
X56129887Y-147241247D01*
X56129887Y-147241247D02*
X56129887Y-147479342D01*
X56129887Y-147479342D02*
X56177506Y-147574580D01*
X56177506Y-147574580D02*
X56225125Y-147622200D01*
X56225125Y-147622200D02*
X56320363Y-147669819D01*
X56320363Y-147669819D02*
X56606077Y-147669819D01*
X56606077Y-147669819D02*
X56701315Y-147622200D01*
X56701315Y-147622200D02*
X56748934Y-147574580D01*
X55663220Y-147669819D02*
X55663220Y-146669819D01*
X54996554Y-146669819D02*
X54806078Y-146669819D01*
X54806078Y-146669819D02*
X54710840Y-146717438D01*
X54710840Y-146717438D02*
X54615602Y-146812676D01*
X54615602Y-146812676D02*
X54567983Y-147003152D01*
X54567983Y-147003152D02*
X54567983Y-147336485D01*
X54567983Y-147336485D02*
X54615602Y-147526961D01*
X54615602Y-147526961D02*
X54710840Y-147622200D01*
X54710840Y-147622200D02*
X54806078Y-147669819D01*
X54806078Y-147669819D02*
X54996554Y-147669819D01*
X54996554Y-147669819D02*
X55091792Y-147622200D01*
X55091792Y-147622200D02*
X55187030Y-147526961D01*
X55187030Y-147526961D02*
X55234649Y-147336485D01*
X55234649Y-147336485D02*
X55234649Y-147003152D01*
X55234649Y-147003152D02*
X55187030Y-146812676D01*
X55187030Y-146812676D02*
X55091792Y-146717438D01*
X55091792Y-146717438D02*
X54996554Y-146669819D01*
X53948935Y-146669819D02*
X53853697Y-146669819D01*
X53853697Y-146669819D02*
X53758459Y-146717438D01*
X53758459Y-146717438D02*
X53710840Y-146765057D01*
X53710840Y-146765057D02*
X53663221Y-146860295D01*
X53663221Y-146860295D02*
X53615602Y-147050771D01*
X53615602Y-147050771D02*
X53615602Y-147288866D01*
X53615602Y-147288866D02*
X53663221Y-147479342D01*
X53663221Y-147479342D02*
X53710840Y-147574580D01*
X53710840Y-147574580D02*
X53758459Y-147622200D01*
X53758459Y-147622200D02*
X53853697Y-147669819D01*
X53853697Y-147669819D02*
X53948935Y-147669819D01*
X53948935Y-147669819D02*
X54044173Y-147622200D01*
X54044173Y-147622200D02*
X54091792Y-147574580D01*
X54091792Y-147574580D02*
X54139411Y-147479342D01*
X54139411Y-147479342D02*
X54187030Y-147288866D01*
X54187030Y-147288866D02*
X54187030Y-147050771D01*
X54187030Y-147050771D02*
X54139411Y-146860295D01*
X54139411Y-146860295D02*
X54091792Y-146765057D01*
X54091792Y-146765057D02*
X54044173Y-146717438D01*
X54044173Y-146717438D02*
X53948935Y-146669819D01*
X52639411Y-146717438D02*
X52734649Y-146669819D01*
X52734649Y-146669819D02*
X52877506Y-146669819D01*
X52877506Y-146669819D02*
X53020363Y-146717438D01*
X53020363Y-146717438D02*
X53115601Y-146812676D01*
X53115601Y-146812676D02*
X53163220Y-146907914D01*
X53163220Y-146907914D02*
X53210839Y-147098390D01*
X53210839Y-147098390D02*
X53210839Y-147241247D01*
X53210839Y-147241247D02*
X53163220Y-147431723D01*
X53163220Y-147431723D02*
X53115601Y-147526961D01*
X53115601Y-147526961D02*
X53020363Y-147622200D01*
X53020363Y-147622200D02*
X52877506Y-147669819D01*
X52877506Y-147669819D02*
X52782268Y-147669819D01*
X52782268Y-147669819D02*
X52639411Y-147622200D01*
X52639411Y-147622200D02*
X52591792Y-147574580D01*
X52591792Y-147574580D02*
X52591792Y-147241247D01*
X52591792Y-147241247D02*
X52782268Y-147241247D01*
X52163220Y-147669819D02*
X52163220Y-146669819D01*
X52163220Y-146669819D02*
X51591792Y-147669819D01*
X51591792Y-147669819D02*
X51591792Y-146669819D01*
X51115601Y-147669819D02*
X51115601Y-146669819D01*
X51115601Y-146669819D02*
X50877506Y-146669819D01*
X50877506Y-146669819D02*
X50734649Y-146717438D01*
X50734649Y-146717438D02*
X50639411Y-146812676D01*
X50639411Y-146812676D02*
X50591792Y-146907914D01*
X50591792Y-146907914D02*
X50544173Y-147098390D01*
X50544173Y-147098390D02*
X50544173Y-147241247D01*
X50544173Y-147241247D02*
X50591792Y-147431723D01*
X50591792Y-147431723D02*
X50639411Y-147526961D01*
X50639411Y-147526961D02*
X50734649Y-147622200D01*
X50734649Y-147622200D02*
X50877506Y-147669819D01*
X50877506Y-147669819D02*
X51115601Y-147669819D01*
X58606077Y-153369819D02*
X58034649Y-153369819D01*
X58320363Y-154369819D02*
X58320363Y-153369819D01*
X57796553Y-153369819D02*
X57129887Y-154369819D01*
X57129887Y-153369819D02*
X57796553Y-154369819D01*
X53163220Y-153846009D02*
X52829887Y-153846009D01*
X52687030Y-154369819D02*
X53163220Y-154369819D01*
X53163220Y-154369819D02*
X53163220Y-153369819D01*
X53163220Y-153369819D02*
X52687030Y-153369819D01*
X52258458Y-154369819D02*
X52258458Y-153369819D01*
X52258458Y-153369819D02*
X51687030Y-154369819D01*
X51687030Y-154369819D02*
X51687030Y-153369819D01*
X61179819Y-171713095D02*
X61989342Y-171713095D01*
X61989342Y-171713095D02*
X62084580Y-171760714D01*
X62084580Y-171760714D02*
X62132200Y-171808333D01*
X62132200Y-171808333D02*
X62179819Y-171903571D01*
X62179819Y-171903571D02*
X62179819Y-172094047D01*
X62179819Y-172094047D02*
X62132200Y-172189285D01*
X62132200Y-172189285D02*
X62084580Y-172236904D01*
X62084580Y-172236904D02*
X61989342Y-172284523D01*
X61989342Y-172284523D02*
X61179819Y-172284523D01*
X62179819Y-173284523D02*
X62179819Y-172713095D01*
X62179819Y-172998809D02*
X61179819Y-172998809D01*
X61179819Y-172998809D02*
X61322676Y-172903571D01*
X61322676Y-172903571D02*
X61417914Y-172808333D01*
X61417914Y-172808333D02*
X61465533Y-172713095D01*
X61454819Y-178133333D02*
X60978628Y-177800000D01*
X61454819Y-177561905D02*
X60454819Y-177561905D01*
X60454819Y-177561905D02*
X60454819Y-177942857D01*
X60454819Y-177942857D02*
X60502438Y-178038095D01*
X60502438Y-178038095D02*
X60550057Y-178085714D01*
X60550057Y-178085714D02*
X60645295Y-178133333D01*
X60645295Y-178133333D02*
X60788152Y-178133333D01*
X60788152Y-178133333D02*
X60883390Y-178085714D01*
X60883390Y-178085714D02*
X60931009Y-178038095D01*
X60931009Y-178038095D02*
X60978628Y-177942857D01*
X60978628Y-177942857D02*
X60978628Y-177561905D01*
X60454819Y-178990476D02*
X60454819Y-178800000D01*
X60454819Y-178800000D02*
X60502438Y-178704762D01*
X60502438Y-178704762D02*
X60550057Y-178657143D01*
X60550057Y-178657143D02*
X60692914Y-178561905D01*
X60692914Y-178561905D02*
X60883390Y-178514286D01*
X60883390Y-178514286D02*
X61264342Y-178514286D01*
X61264342Y-178514286D02*
X61359580Y-178561905D01*
X61359580Y-178561905D02*
X61407200Y-178609524D01*
X61407200Y-178609524D02*
X61454819Y-178704762D01*
X61454819Y-178704762D02*
X61454819Y-178895238D01*
X61454819Y-178895238D02*
X61407200Y-178990476D01*
X61407200Y-178990476D02*
X61359580Y-179038095D01*
X61359580Y-179038095D02*
X61264342Y-179085714D01*
X61264342Y-179085714D02*
X61026247Y-179085714D01*
X61026247Y-179085714D02*
X60931009Y-179038095D01*
X60931009Y-179038095D02*
X60883390Y-178990476D01*
X60883390Y-178990476D02*
X60835771Y-178895238D01*
X60835771Y-178895238D02*
X60835771Y-178704762D01*
X60835771Y-178704762D02*
X60883390Y-178609524D01*
X60883390Y-178609524D02*
X60931009Y-178561905D01*
X60931009Y-178561905D02*
X61026247Y-178514286D01*
X61539580Y-166203333D02*
X61587200Y-166155714D01*
X61587200Y-166155714D02*
X61634819Y-166012857D01*
X61634819Y-166012857D02*
X61634819Y-165917619D01*
X61634819Y-165917619D02*
X61587200Y-165774762D01*
X61587200Y-165774762D02*
X61491961Y-165679524D01*
X61491961Y-165679524D02*
X61396723Y-165631905D01*
X61396723Y-165631905D02*
X61206247Y-165584286D01*
X61206247Y-165584286D02*
X61063390Y-165584286D01*
X61063390Y-165584286D02*
X60872914Y-165631905D01*
X60872914Y-165631905D02*
X60777676Y-165679524D01*
X60777676Y-165679524D02*
X60682438Y-165774762D01*
X60682438Y-165774762D02*
X60634819Y-165917619D01*
X60634819Y-165917619D02*
X60634819Y-166012857D01*
X60634819Y-166012857D02*
X60682438Y-166155714D01*
X60682438Y-166155714D02*
X60730057Y-166203333D01*
X60634819Y-166536667D02*
X60634819Y-167155714D01*
X60634819Y-167155714D02*
X61015771Y-166822381D01*
X61015771Y-166822381D02*
X61015771Y-166965238D01*
X61015771Y-166965238D02*
X61063390Y-167060476D01*
X61063390Y-167060476D02*
X61111009Y-167108095D01*
X61111009Y-167108095D02*
X61206247Y-167155714D01*
X61206247Y-167155714D02*
X61444342Y-167155714D01*
X61444342Y-167155714D02*
X61539580Y-167108095D01*
X61539580Y-167108095D02*
X61587200Y-167060476D01*
X61587200Y-167060476D02*
X61634819Y-166965238D01*
X61634819Y-166965238D02*
X61634819Y-166679524D01*
X61634819Y-166679524D02*
X61587200Y-166584286D01*
X61587200Y-166584286D02*
X61539580Y-166536667D01*
X58654819Y-178133333D02*
X58178628Y-177800000D01*
X58654819Y-177561905D02*
X57654819Y-177561905D01*
X57654819Y-177561905D02*
X57654819Y-177942857D01*
X57654819Y-177942857D02*
X57702438Y-178038095D01*
X57702438Y-178038095D02*
X57750057Y-178085714D01*
X57750057Y-178085714D02*
X57845295Y-178133333D01*
X57845295Y-178133333D02*
X57988152Y-178133333D01*
X57988152Y-178133333D02*
X58083390Y-178085714D01*
X58083390Y-178085714D02*
X58131009Y-178038095D01*
X58131009Y-178038095D02*
X58178628Y-177942857D01*
X58178628Y-177942857D02*
X58178628Y-177561905D01*
X57654819Y-178466667D02*
X57654819Y-179133333D01*
X57654819Y-179133333D02*
X58654819Y-178704762D01*
X55679580Y-178133333D02*
X55727200Y-178085714D01*
X55727200Y-178085714D02*
X55774819Y-177942857D01*
X55774819Y-177942857D02*
X55774819Y-177847619D01*
X55774819Y-177847619D02*
X55727200Y-177704762D01*
X55727200Y-177704762D02*
X55631961Y-177609524D01*
X55631961Y-177609524D02*
X55536723Y-177561905D01*
X55536723Y-177561905D02*
X55346247Y-177514286D01*
X55346247Y-177514286D02*
X55203390Y-177514286D01*
X55203390Y-177514286D02*
X55012914Y-177561905D01*
X55012914Y-177561905D02*
X54917676Y-177609524D01*
X54917676Y-177609524D02*
X54822438Y-177704762D01*
X54822438Y-177704762D02*
X54774819Y-177847619D01*
X54774819Y-177847619D02*
X54774819Y-177942857D01*
X54774819Y-177942857D02*
X54822438Y-178085714D01*
X54822438Y-178085714D02*
X54870057Y-178133333D01*
X54870057Y-178514286D02*
X54822438Y-178561905D01*
X54822438Y-178561905D02*
X54774819Y-178657143D01*
X54774819Y-178657143D02*
X54774819Y-178895238D01*
X54774819Y-178895238D02*
X54822438Y-178990476D01*
X54822438Y-178990476D02*
X54870057Y-179038095D01*
X54870057Y-179038095D02*
X54965295Y-179085714D01*
X54965295Y-179085714D02*
X55060533Y-179085714D01*
X55060533Y-179085714D02*
X55203390Y-179038095D01*
X55203390Y-179038095D02*
X55774819Y-178466667D01*
X55774819Y-178466667D02*
X55774819Y-179085714D01*
D11*
%TO.C,U1*%
X50765000Y-172475000D02*
X50765000Y-174425000D01*
X50765000Y-172475000D02*
X50765000Y-170525000D01*
X60885000Y-172475000D02*
X60885000Y-175925000D01*
X60885000Y-172475000D02*
X60885000Y-170525000D01*
%TO.C,R6*%
X63022500Y-178745276D02*
X63022500Y-179254724D01*
X61977500Y-178745276D02*
X61977500Y-179254724D01*
%TO.C,C3*%
X59240000Y-166516267D02*
X59240000Y-166223733D01*
X60260000Y-166516267D02*
X60260000Y-166223733D01*
%TO.C,R7*%
X60272500Y-178745276D02*
X60272500Y-179254724D01*
X59227500Y-178745276D02*
X59227500Y-179254724D01*
%TO.C,C2*%
X57260000Y-178853733D02*
X57260000Y-179146267D01*
X56240000Y-178853733D02*
X56240000Y-179146267D01*
%TD*%
%LPC*%
D12*
%TO.C,J1*%
X57295000Y-149247500D03*
D13*
X57295000Y-151787500D03*
X54755000Y-149247500D03*
X54755000Y-151787500D03*
X52215000Y-149247500D03*
X52215000Y-151787500D03*
%TD*%
D14*
%TO.C,CN1*%
X51975000Y-183877313D03*
X57775000Y-183877313D03*
D15*
X50425000Y-183387313D03*
X59075000Y-183387313D03*
X50425000Y-187557313D03*
X59075000Y-187557313D03*
%TD*%
D16*
%TO.C,U1*%
X60270000Y-174950000D03*
X59000000Y-174950000D03*
X57730000Y-174950000D03*
X56460000Y-174950000D03*
X55190000Y-174950000D03*
X53920000Y-174950000D03*
X52650000Y-174950000D03*
X51380000Y-174950000D03*
X51380000Y-170000000D03*
X52650000Y-170000000D03*
X53920000Y-170000000D03*
X55190000Y-170000000D03*
X56460000Y-170000000D03*
X57730000Y-170000000D03*
X59000000Y-170000000D03*
X60270000Y-170000000D03*
%TD*%
D17*
%TO.C,R6*%
X62500000Y-178087500D03*
X62500000Y-179912500D03*
%TD*%
D18*
%TO.C,C3*%
X59750000Y-167232500D03*
X59750000Y-165507500D03*
%TD*%
D17*
%TO.C,R7*%
X59750000Y-178087500D03*
X59750000Y-179912500D03*
%TD*%
D19*
%TO.C,C2*%
X56750000Y-178137500D03*
X56750000Y-179862500D03*
%TD*%
%LPD*%
M02*
