%TF.GenerationSoftware,KiCad,Pcbnew,7.0.7*%
%TF.CreationDate,2023-09-20T03:29:36+03:00*%
%TF.ProjectId,TPB v1.1,54504220-7631-42e3-912e-6b696361645f,rev?*%
%TF.SameCoordinates,Original*%
%TF.FileFunction,Copper,L2,Bot*%
%TF.FilePolarity,Positive*%
%FSLAX46Y46*%
G04 Gerber Fmt 4.6, Leading zero omitted, Abs format (unit mm)*
G04 Created by KiCad (PCBNEW 7.0.7) date 2023-09-20 03:29:36*
%MOMM*%
%LPD*%
G01*
G04 APERTURE LIST*
G04 Aperture macros list*
%AMRoundRect*
0 Rectangle with rounded corners*
0 $1 Rounding radius*
0 $2 $3 $4 $5 $6 $7 $8 $9 X,Y pos of 4 corners*
0 Add a 4 corners polygon primitive as box body*
4,1,4,$2,$3,$4,$5,$6,$7,$8,$9,$2,$3,0*
0 Add four circle primitives for the rounded corners*
1,1,$1+$1,$2,$3*
1,1,$1+$1,$4,$5*
1,1,$1+$1,$6,$7*
1,1,$1+$1,$8,$9*
0 Add four rect primitives between the rounded corners*
20,1,$1+$1,$2,$3,$4,$5,0*
20,1,$1+$1,$4,$5,$6,$7,0*
20,1,$1+$1,$6,$7,$8,$9,0*
20,1,$1+$1,$8,$9,$2,$3,0*%
G04 Aperture macros list end*
%TA.AperFunction,ComponentPad*%
%ADD10RoundRect,0.250000X-0.600000X0.600000X-0.600000X-0.600000X0.600000X-0.600000X0.600000X0.600000X0*%
%TD*%
%TA.AperFunction,ComponentPad*%
%ADD11C,1.700000*%
%TD*%
%TA.AperFunction,WasherPad*%
%ADD12C,0.700000*%
%TD*%
%TA.AperFunction,ComponentPad*%
%ADD13O,0.900000X2.000000*%
%TD*%
%TA.AperFunction,SMDPad,CuDef*%
%ADD14RoundRect,0.150000X0.150000X-0.825000X0.150000X0.825000X-0.150000X0.825000X-0.150000X-0.825000X0*%
%TD*%
%TA.AperFunction,SMDPad,CuDef*%
%ADD15RoundRect,0.237500X-0.237500X0.250000X-0.237500X-0.250000X0.237500X-0.250000X0.237500X0.250000X0*%
%TD*%
%TA.AperFunction,SMDPad,CuDef*%
%ADD16RoundRect,0.237500X0.237500X-0.300000X0.237500X0.300000X-0.237500X0.300000X-0.237500X-0.300000X0*%
%TD*%
%TA.AperFunction,SMDPad,CuDef*%
%ADD17RoundRect,0.237500X-0.237500X0.300000X-0.237500X-0.300000X0.237500X-0.300000X0.237500X0.300000X0*%
%TD*%
%TA.AperFunction,ViaPad*%
%ADD18C,0.800000*%
%TD*%
%TA.AperFunction,Conductor*%
%ADD19C,0.250000*%
%TD*%
%TA.AperFunction,Conductor*%
%ADD20C,0.200000*%
%TD*%
G04 APERTURE END LIST*
D10*
%TO.P,J1,1,Pin_1*%
%TO.N,+3V3*%
X57295000Y-149247500D03*
D11*
%TO.P,J1,2,Pin_2*%
%TO.N,/TX*%
X57295000Y-151787500D03*
%TO.P,J1,3,Pin_3*%
%TO.N,/IO0*%
X54755000Y-149247500D03*
%TO.P,J1,4,Pin_4*%
%TO.N,/RX*%
X54755000Y-151787500D03*
%TO.P,J1,5,Pin_5*%
%TO.N,GND*%
X52215000Y-149247500D03*
%TO.P,J1,6,Pin_6*%
%TO.N,/EN*%
X52215000Y-151787500D03*
%TD*%
D12*
%TO.P,CN1,*%
%TO.N,*%
X51975000Y-183877313D03*
X57775000Y-183877313D03*
D13*
%TO.P,CN1,S1,SHIELD*%
%TO.N,Earth*%
X50425000Y-183387313D03*
%TO.P,CN1,S2,SHIELD*%
X59075000Y-183387313D03*
%TO.P,CN1,S3,SHIELD*%
X50425000Y-187557313D03*
%TO.P,CN1,S4,SHIELD*%
X59075000Y-187557313D03*
%TD*%
D14*
%TO.P,U1,1,GND*%
%TO.N,GND*%
X60270000Y-174950000D03*
%TO.P,U1,2,TXD*%
%TO.N,Net-(U1-TXD)*%
X59000000Y-174950000D03*
%TO.P,U1,3,RXD*%
%TO.N,Net-(U1-RXD)*%
X57730000Y-174950000D03*
%TO.P,U1,4,V3*%
%TO.N,Net-(U1-V3)*%
X56460000Y-174950000D03*
%TO.P,U1,5,UD+*%
%TO.N,/USB_P*%
X55190000Y-174950000D03*
%TO.P,U1,6,UD-*%
%TO.N,/USB_N*%
X53920000Y-174950000D03*
%TO.P,U1,7,NC*%
%TO.N,unconnected-(U1-NC-Pad7)*%
X52650000Y-174950000D03*
%TO.P,U1,8,NC*%
%TO.N,unconnected-(U1-NC-Pad8)*%
X51380000Y-174950000D03*
%TO.P,U1,9,~{CTS}*%
%TO.N,unconnected-(U1-~{CTS}-Pad9)*%
X51380000Y-170000000D03*
%TO.P,U1,10,~{DSR}*%
%TO.N,unconnected-(U1-~{DSR}-Pad10)*%
X52650000Y-170000000D03*
%TO.P,U1,11,~{RI}*%
%TO.N,unconnected-(U1-~{RI}-Pad11)*%
X53920000Y-170000000D03*
%TO.P,U1,12,~{DCD}*%
%TO.N,unconnected-(U1-~{DCD}-Pad12)*%
X55190000Y-170000000D03*
%TO.P,U1,13,~{DTR}*%
%TO.N,/DTR*%
X56460000Y-170000000D03*
%TO.P,U1,14,~{RTS}*%
%TO.N,/RTS*%
X57730000Y-170000000D03*
%TO.P,U1,15,R232*%
%TO.N,unconnected-(U1-R232-Pad15)*%
X59000000Y-170000000D03*
%TO.P,U1,16,VCC*%
%TO.N,+5V*%
X60270000Y-170000000D03*
%TD*%
D15*
%TO.P,R6,1*%
%TO.N,Net-(U1-TXD)*%
X62500000Y-178087500D03*
%TO.P,R6,2*%
%TO.N,/TX*%
X62500000Y-179912500D03*
%TD*%
D16*
%TO.P,C3,1*%
%TO.N,+5V*%
X59750000Y-167232500D03*
%TO.P,C3,2*%
%TO.N,GND*%
X59750000Y-165507500D03*
%TD*%
D15*
%TO.P,R7,1*%
%TO.N,Net-(U1-RXD)*%
X59750000Y-178087500D03*
%TO.P,R7,2*%
%TO.N,/RX*%
X59750000Y-179912500D03*
%TD*%
D17*
%TO.P,C2,1*%
%TO.N,Net-(U1-V3)*%
X56750000Y-178137500D03*
%TO.P,C2,2*%
%TO.N,GND*%
X56750000Y-179862500D03*
%TD*%
D18*
%TO.N,GND*%
X65600000Y-187900000D03*
X62500000Y-172000000D03*
X41400000Y-151400000D03*
X61400000Y-164400000D03*
X51100000Y-157700000D03*
X55700000Y-164000000D03*
X45500000Y-163800000D03*
X42700000Y-148500000D03*
X44900000Y-182900000D03*
X50680000Y-163000000D03*
X57800000Y-179800000D03*
X45600000Y-179100000D03*
X61600000Y-154400000D03*
X61400000Y-174800000D03*
X62300000Y-188000000D03*
X49700000Y-176900000D03*
X61400000Y-183800000D03*
X66400000Y-168500000D03*
X47100000Y-181600000D03*
X60400000Y-149100000D03*
X66700000Y-177400000D03*
X67000000Y-185700000D03*
X54900000Y-166600000D03*
X53400000Y-185700000D03*
X46300000Y-151400000D03*
X59700000Y-172800000D03*
X61100000Y-179800000D03*
X46200000Y-147000000D03*
X64400000Y-169200000D03*
X45900000Y-174300000D03*
%TO.N,+3V3*%
X42400000Y-182000000D03*
X57100000Y-159900000D03*
X57100000Y-157600000D03*
X68000000Y-183200000D03*
X59200000Y-157600000D03*
X64600000Y-163800000D03*
X42000000Y-171000000D03*
X59200000Y-160100000D03*
X45800000Y-157400000D03*
X68000000Y-177200000D03*
X58200000Y-158800000D03*
X55200000Y-160200000D03*
%TO.N,+5V*%
X63600000Y-158000000D03*
X56600000Y-181600000D03*
%TO.N,/USB_P*%
X55600000Y-181200000D03*
%TO.N,/IO0*%
X47600000Y-159000000D03*
%TO.N,/TX*%
X62400000Y-181400000D03*
%TO.N,/RX*%
X59800000Y-181600000D03*
%TO.N,/DTR*%
X41400000Y-168000000D03*
%TO.N,/RTS*%
X44200000Y-177800000D03*
%TO.N,/USB_N*%
X54200000Y-181200000D03*
%TD*%
D19*
%TO.N,GND*%
X59800000Y-164600000D02*
X60000000Y-164400000D01*
X61200000Y-163000000D02*
X61400000Y-163200000D01*
X60000000Y-164400000D02*
X61400000Y-164400000D01*
X50680000Y-163000000D02*
X61200000Y-163000000D01*
X56750000Y-179862500D02*
X57737500Y-179862500D01*
X57737500Y-179862500D02*
X57800000Y-179800000D01*
X61400000Y-163200000D02*
X61400000Y-164400000D01*
X59750000Y-165507500D02*
X59800000Y-165457500D01*
X59800000Y-165457500D02*
X59800000Y-164600000D01*
X60270000Y-174950000D02*
X61250000Y-174950000D01*
X61250000Y-174950000D02*
X61400000Y-174800000D01*
%TO.N,+3V3*%
X68000000Y-183200000D02*
X68000000Y-177200000D01*
X68000000Y-177200000D02*
X68000000Y-164400000D01*
X55200000Y-160900000D02*
X55200000Y-160200000D01*
X41200000Y-157400000D02*
X45800000Y-157400000D01*
X40600000Y-161400000D02*
X40600000Y-160900000D01*
X40600000Y-158000000D02*
X41200000Y-157400000D01*
X68000000Y-164400000D02*
X67400000Y-163800000D01*
X41200000Y-171000000D02*
X42000000Y-171000000D01*
X40600000Y-161400000D02*
X40600000Y-158000000D01*
X40600000Y-160900000D02*
X55200000Y-160900000D01*
X40600000Y-170400000D02*
X40600000Y-161400000D01*
X67400000Y-163800000D02*
X64600000Y-163800000D01*
X42400000Y-171400000D02*
X42000000Y-171000000D01*
X40600000Y-170400000D02*
X41200000Y-171000000D01*
X42400000Y-182000000D02*
X42400000Y-172000000D01*
X42400000Y-172000000D02*
X42400000Y-171400000D01*
%TO.N,+5V*%
X63600000Y-157800000D02*
X63600000Y-158000000D01*
X63600000Y-170000000D02*
X63600000Y-168200000D01*
X60270000Y-167752500D02*
X59750000Y-167232500D01*
X57200000Y-185400000D02*
X56600000Y-184800000D01*
X63000000Y-185400000D02*
X57200000Y-185400000D01*
X63600000Y-168200000D02*
X63600000Y-184800000D01*
X63600000Y-184800000D02*
X63000000Y-185400000D01*
X60270000Y-170000000D02*
X63600000Y-170000000D01*
X56600000Y-184800000D02*
X56600000Y-181600000D01*
X60270000Y-170000000D02*
X60270000Y-167752500D01*
X63600000Y-168200000D02*
X63600000Y-158000000D01*
D20*
%TO.N,/USB_P*%
X55600000Y-181200000D02*
X55190000Y-180790000D01*
X55190000Y-180790000D02*
X55190000Y-174950000D01*
D19*
%TO.N,/IO0*%
X47600000Y-148400000D02*
X48200000Y-147800000D01*
X48200000Y-147800000D02*
X54200000Y-147800000D01*
X54200000Y-147800000D02*
X54755000Y-148355000D01*
X47600000Y-159000000D02*
X47600000Y-148400000D01*
X54755000Y-148355000D02*
X54755000Y-149247500D01*
%TO.N,/TX*%
X62400000Y-180012500D02*
X62500000Y-179912500D01*
X62400000Y-181400000D02*
X62400000Y-180012500D01*
%TO.N,/RX*%
X59800000Y-179962500D02*
X59750000Y-179912500D01*
X59800000Y-181600000D02*
X59800000Y-179962500D01*
%TO.N,/DTR*%
X44200000Y-169000000D02*
X43200000Y-168000000D01*
X55800000Y-172200000D02*
X44900000Y-172200000D01*
X56460000Y-171540000D02*
X55800000Y-172200000D01*
X43200000Y-168000000D02*
X41400000Y-168000000D01*
X56460000Y-170000000D02*
X56460000Y-171540000D01*
X44200000Y-171500000D02*
X44200000Y-169000000D01*
X44900000Y-172200000D02*
X44200000Y-171500000D01*
%TO.N,/RTS*%
X45000000Y-173200000D02*
X44200000Y-174000000D01*
X57730000Y-172070000D02*
X56600000Y-173200000D01*
X57730000Y-170000000D02*
X57730000Y-172070000D01*
X44200000Y-174000000D02*
X44200000Y-177800000D01*
X56600000Y-173200000D02*
X45000000Y-173200000D01*
%TO.N,Net-(U1-TXD)*%
X62000000Y-176800000D02*
X62500000Y-177300000D01*
X59800000Y-176800000D02*
X62000000Y-176800000D01*
X62500000Y-177300000D02*
X62500000Y-178087500D01*
X59000000Y-176000000D02*
X59800000Y-176800000D01*
X62400000Y-177987500D02*
X62500000Y-178087500D01*
X59000000Y-174950000D02*
X59000000Y-176000000D01*
%TO.N,Net-(U1-RXD)*%
X57730000Y-176330000D02*
X59487500Y-178087500D01*
X57730000Y-174950000D02*
X57730000Y-176330000D01*
X59487500Y-178087500D02*
X59750000Y-178087500D01*
%TO.N,Net-(U1-V3)*%
X56460000Y-177847500D02*
X56750000Y-178137500D01*
X56460000Y-174950000D02*
X56460000Y-177847500D01*
D20*
%TO.N,/USB_N*%
X53920000Y-180920000D02*
X53920000Y-174950000D01*
X54200000Y-181200000D02*
X53920000Y-180920000D01*
%TD*%
%TA.AperFunction,Conductor*%
%TO.N,GND*%
G36*
X67186245Y-164345207D02*
G01*
X67240613Y-164383783D01*
X67416216Y-164559385D01*
X67463333Y-164634371D01*
X67474500Y-164700097D01*
X67474500Y-176510993D01*
X67454793Y-176597336D01*
X67416214Y-176651707D01*
X67370187Y-176697733D01*
X67274210Y-176850478D01*
X67274210Y-176850479D01*
X67229068Y-176979488D01*
X67214632Y-177020745D01*
X67194435Y-177200000D01*
X67214632Y-177379255D01*
X67214632Y-177379257D01*
X67214633Y-177379258D01*
X67274210Y-177549520D01*
X67274210Y-177549521D01*
X67281742Y-177561508D01*
X67370184Y-177702262D01*
X67416214Y-177748292D01*
X67463332Y-177823279D01*
X67474500Y-177889006D01*
X67474500Y-182510993D01*
X67454793Y-182597336D01*
X67416214Y-182651707D01*
X67370187Y-182697733D01*
X67274210Y-182850478D01*
X67274210Y-182850479D01*
X67214633Y-183020741D01*
X67214632Y-183020745D01*
X67194435Y-183200000D01*
X67214632Y-183379255D01*
X67214632Y-183379257D01*
X67214633Y-183379258D01*
X67274210Y-183549520D01*
X67274210Y-183549521D01*
X67308471Y-183604047D01*
X67368603Y-183699746D01*
X67370187Y-183702266D01*
X67497733Y-183829812D01*
X67497735Y-183829813D01*
X67497738Y-183829816D01*
X67650478Y-183925789D01*
X67820745Y-183985368D01*
X68000000Y-184005565D01*
X68179255Y-183985368D01*
X68349522Y-183925789D01*
X68502262Y-183829816D01*
X68629816Y-183702262D01*
X68725789Y-183549522D01*
X68725789Y-183549521D01*
X68731735Y-183540059D01*
X68734586Y-183541850D01*
X68776914Y-183488766D01*
X68856704Y-183450334D01*
X68945267Y-183450327D01*
X69025063Y-183488747D01*
X69080286Y-183557985D01*
X69100000Y-183644326D01*
X69100000Y-187687606D01*
X69099745Y-187694727D01*
X69080550Y-187962353D01*
X69076487Y-187990535D01*
X69021575Y-188242230D01*
X69013531Y-188269543D01*
X68923264Y-188510818D01*
X68911405Y-188536702D01*
X68787632Y-188762623D01*
X68772201Y-188786551D01*
X68617447Y-188992505D01*
X68598758Y-189013986D01*
X68416200Y-189195741D01*
X68394637Y-189214334D01*
X68188007Y-189368178D01*
X68164012Y-189383505D01*
X67937547Y-189506283D01*
X67911609Y-189518028D01*
X67669935Y-189607231D01*
X67642588Y-189615154D01*
X67390655Y-189668956D01*
X67362456Y-189672895D01*
X67094743Y-189690911D01*
X67087642Y-189691134D01*
X48394716Y-189608786D01*
X48387675Y-189608505D01*
X48170027Y-189592018D01*
X48121600Y-189588350D01*
X48093592Y-189584209D01*
X47843477Y-189528803D01*
X47816339Y-189520728D01*
X47576628Y-189430389D01*
X47550911Y-189418545D01*
X47326439Y-189295097D01*
X47302664Y-189279723D01*
X47097991Y-189125675D01*
X47076637Y-189107082D01*
X46895892Y-188925538D01*
X46877400Y-188904111D01*
X46724245Y-188698749D01*
X46708982Y-188674914D01*
X46586521Y-188449895D01*
X46574790Y-188424126D01*
X46485509Y-188184021D01*
X46477555Y-188156853D01*
X46476812Y-188153426D01*
X49574500Y-188153426D01*
X49584158Y-188242230D01*
X49589486Y-188291223D01*
X49648555Y-188466531D01*
X49648557Y-188466537D01*
X49724696Y-188593082D01*
X49743930Y-188625049D01*
X49871151Y-188759354D01*
X50024270Y-188863171D01*
X50196125Y-188931644D01*
X50378679Y-188961572D01*
X50378680Y-188961573D01*
X50378682Y-188961572D01*
X50378683Y-188961573D01*
X50563407Y-188951558D01*
X50741659Y-188902067D01*
X50905104Y-188815413D01*
X51046100Y-188695650D01*
X51158054Y-188548377D01*
X51158057Y-188548371D01*
X51235730Y-188380485D01*
X51235730Y-188380483D01*
X51235732Y-188380480D01*
X51275500Y-188199810D01*
X51275500Y-186961200D01*
X51260514Y-186823403D01*
X51201444Y-186648092D01*
X51106070Y-186489577D01*
X50978849Y-186355272D01*
X50896168Y-186299213D01*
X50825729Y-186251454D01*
X50653877Y-186182982D01*
X50653872Y-186182981D01*
X50471320Y-186153053D01*
X50471319Y-186153052D01*
X50286596Y-186163067D01*
X50286594Y-186163067D01*
X50286593Y-186163068D01*
X50214869Y-186182982D01*
X50108337Y-186212560D01*
X50108333Y-186212562D01*
X49944897Y-186299211D01*
X49944896Y-186299212D01*
X49803901Y-186418974D01*
X49691942Y-186566254D01*
X49614269Y-186734140D01*
X49594621Y-186823403D01*
X49574500Y-186914816D01*
X49574500Y-188153426D01*
X46476812Y-188153426D01*
X46423251Y-187906495D01*
X46419233Y-187878468D01*
X46400252Y-187612323D01*
X46400000Y-187605242D01*
X46400000Y-185700005D01*
X46400000Y-185700000D01*
X46400000Y-183983426D01*
X49574500Y-183983426D01*
X49589486Y-184121223D01*
X49617714Y-184205001D01*
X49648555Y-184296531D01*
X49648557Y-184296537D01*
X49743929Y-184455047D01*
X49743931Y-184455050D01*
X49835223Y-184551426D01*
X49871151Y-184589354D01*
X50024270Y-184693171D01*
X50196125Y-184761644D01*
X50378679Y-184791572D01*
X50378680Y-184791573D01*
X50378682Y-184791572D01*
X50378683Y-184791573D01*
X50563407Y-184781558D01*
X50741659Y-184732067D01*
X50905104Y-184645413D01*
X51046100Y-184525650D01*
X51130943Y-184414039D01*
X51198880Y-184357232D01*
X51284742Y-184335526D01*
X51371520Y-184353223D01*
X51430077Y-184393758D01*
X51504105Y-184467786D01*
X51504107Y-184467787D01*
X51504110Y-184467790D01*
X51647310Y-184557769D01*
X51806941Y-184613626D01*
X51975000Y-184632562D01*
X52143059Y-184613626D01*
X52302690Y-184557769D01*
X52445890Y-184467790D01*
X52565477Y-184348203D01*
X52655456Y-184205003D01*
X52711313Y-184045372D01*
X52730249Y-183877313D01*
X52711313Y-183709254D01*
X52655456Y-183549623D01*
X52565477Y-183406423D01*
X52565473Y-183406419D01*
X52565473Y-183406418D01*
X52445894Y-183286839D01*
X52445891Y-183286837D01*
X52445890Y-183286836D01*
X52302690Y-183196857D01*
X52302689Y-183196856D01*
X52302688Y-183196856D01*
X52143063Y-183141001D01*
X52143061Y-183141000D01*
X52143059Y-183141000D01*
X51975000Y-183122064D01*
X51806941Y-183141000D01*
X51806939Y-183141000D01*
X51806936Y-183141001D01*
X51647311Y-183196856D01*
X51647305Y-183196859D01*
X51580374Y-183238915D01*
X51496781Y-183268166D01*
X51408774Y-183258250D01*
X51333786Y-183211131D01*
X51286667Y-183136142D01*
X51275500Y-183070417D01*
X51275500Y-182791207D01*
X51275500Y-182791200D01*
X51260514Y-182653403D01*
X51201444Y-182478092D01*
X51106070Y-182319577D01*
X51039191Y-182248974D01*
X50978852Y-182185275D01*
X50978850Y-182185273D01*
X50969974Y-182179255D01*
X50896168Y-182129213D01*
X50825729Y-182081454D01*
X50653877Y-182012982D01*
X50653872Y-182012981D01*
X50471320Y-181983053D01*
X50471319Y-181983052D01*
X50286596Y-181993067D01*
X50286594Y-181993067D01*
X50286593Y-181993068D01*
X50214869Y-182012982D01*
X50108337Y-182042560D01*
X50108333Y-182042562D01*
X49944897Y-182129211D01*
X49944896Y-182129212D01*
X49803901Y-182248974D01*
X49691942Y-182396254D01*
X49614269Y-182564140D01*
X49578688Y-182725789D01*
X49574500Y-182744816D01*
X49574500Y-183983426D01*
X46400000Y-183983426D01*
X46400000Y-183700000D01*
X44400000Y-183700000D01*
X44399995Y-183700000D01*
X42403554Y-183700000D01*
X42396454Y-183699746D01*
X42129565Y-183680658D01*
X42101462Y-183676617D01*
X41850442Y-183622011D01*
X41823203Y-183614013D01*
X41582502Y-183524236D01*
X41556677Y-183512442D01*
X41442921Y-183450327D01*
X41331207Y-183389326D01*
X41307328Y-183373980D01*
X41152731Y-183258250D01*
X41101670Y-183220026D01*
X41080213Y-183201433D01*
X40898566Y-183019786D01*
X40879973Y-182998329D01*
X40726016Y-182792668D01*
X40710675Y-182768795D01*
X40587556Y-182543320D01*
X40575765Y-182517504D01*
X40485983Y-182276787D01*
X40477988Y-182249557D01*
X40477861Y-182248974D01*
X40423381Y-181998533D01*
X40419342Y-181970441D01*
X40403219Y-181745007D01*
X40400254Y-181703545D01*
X40400000Y-181696444D01*
X40400000Y-171423597D01*
X40419707Y-171337254D01*
X40474926Y-171268013D01*
X40554718Y-171229586D01*
X40643282Y-171229586D01*
X40723074Y-171268013D01*
X40739712Y-171282881D01*
X40822060Y-171365229D01*
X40865245Y-171411469D01*
X40899596Y-171432358D01*
X40907995Y-171438075D01*
X40940025Y-171462364D01*
X40940029Y-171462365D01*
X40940030Y-171462366D01*
X40949539Y-171466116D01*
X40979934Y-171481212D01*
X40988672Y-171486526D01*
X41027360Y-171497365D01*
X41037017Y-171500612D01*
X41074411Y-171515359D01*
X41084580Y-171516404D01*
X41117928Y-171522741D01*
X41127772Y-171525500D01*
X41167955Y-171525500D01*
X41178136Y-171526022D01*
X41190064Y-171527247D01*
X41218110Y-171530131D01*
X41227354Y-171528537D01*
X41228191Y-171528393D01*
X41262000Y-171525500D01*
X41310993Y-171525500D01*
X41397336Y-171545207D01*
X41451707Y-171583786D01*
X41497733Y-171629812D01*
X41497735Y-171629813D01*
X41497738Y-171629816D01*
X41650478Y-171725789D01*
X41741225Y-171757542D01*
X41816213Y-171804660D01*
X41863332Y-171879648D01*
X41874500Y-171945375D01*
X41874500Y-181310993D01*
X41854793Y-181397336D01*
X41816214Y-181451707D01*
X41770187Y-181497733D01*
X41674210Y-181650478D01*
X41674210Y-181650479D01*
X41614633Y-181820741D01*
X41614632Y-181820745D01*
X41594435Y-182000000D01*
X41614632Y-182179255D01*
X41614632Y-182179257D01*
X41614633Y-182179258D01*
X41674210Y-182349520D01*
X41674210Y-182349521D01*
X41703575Y-182396254D01*
X41754998Y-182478094D01*
X41770187Y-182502266D01*
X41897733Y-182629812D01*
X41897735Y-182629813D01*
X41897738Y-182629816D01*
X42050478Y-182725789D01*
X42220745Y-182785368D01*
X42400000Y-182805565D01*
X42579255Y-182785368D01*
X42749522Y-182725789D01*
X42902262Y-182629816D01*
X43029816Y-182502262D01*
X43125789Y-182349522D01*
X43185368Y-182179255D01*
X43205565Y-182000000D01*
X43185368Y-181820745D01*
X43125789Y-181650478D01*
X43029816Y-181497738D01*
X43029813Y-181497735D01*
X43029812Y-181497733D01*
X42983786Y-181451707D01*
X42936667Y-181376719D01*
X42925500Y-181310993D01*
X42925500Y-171408982D01*
X42927660Y-171345755D01*
X42927659Y-171345752D01*
X42918147Y-171306719D01*
X42916243Y-171296700D01*
X42912807Y-171271703D01*
X42910771Y-171256889D01*
X42906694Y-171247504D01*
X42895877Y-171215337D01*
X42893457Y-171205405D01*
X42873765Y-171170383D01*
X42869230Y-171161253D01*
X42853219Y-171124391D01*
X42850193Y-171120671D01*
X42846902Y-171114004D01*
X42846145Y-171112759D01*
X42846254Y-171112692D01*
X42810994Y-171041256D01*
X42807440Y-171011035D01*
X42806816Y-171011106D01*
X42800671Y-170956568D01*
X42785368Y-170820745D01*
X42725789Y-170650478D01*
X42629816Y-170497738D01*
X42629813Y-170497735D01*
X42629812Y-170497733D01*
X42502266Y-170370187D01*
X42502263Y-170370185D01*
X42502262Y-170370184D01*
X42349522Y-170274211D01*
X42349521Y-170274210D01*
X42349520Y-170274210D01*
X42179258Y-170214633D01*
X42179257Y-170214632D01*
X42179255Y-170214632D01*
X42000000Y-170194435D01*
X41820745Y-170214632D01*
X41820742Y-170214632D01*
X41820741Y-170214633D01*
X41650479Y-170274210D01*
X41650473Y-170274213D01*
X41518875Y-170356902D01*
X41435282Y-170386153D01*
X41347275Y-170376237D01*
X41272287Y-170329118D01*
X41183786Y-170240617D01*
X41136667Y-170165629D01*
X41125500Y-170099903D01*
X41125500Y-168997317D01*
X41145207Y-168910974D01*
X41200426Y-168841733D01*
X41280218Y-168803306D01*
X41346777Y-168799568D01*
X41400000Y-168805565D01*
X41579255Y-168785368D01*
X41749522Y-168725789D01*
X41902262Y-168629816D01*
X41919744Y-168612334D01*
X41948293Y-168583786D01*
X42023281Y-168536667D01*
X42089007Y-168525500D01*
X42899902Y-168525500D01*
X42986245Y-168545207D01*
X43040616Y-168583786D01*
X43616214Y-169159384D01*
X43663333Y-169234372D01*
X43674500Y-169300098D01*
X43674500Y-171491016D01*
X43672339Y-171554242D01*
X43672340Y-171554245D01*
X43681852Y-171593282D01*
X43683755Y-171603294D01*
X43689228Y-171643108D01*
X43689229Y-171643111D01*
X43693310Y-171652508D01*
X43704121Y-171684657D01*
X43706542Y-171694591D01*
X43706545Y-171694598D01*
X43726233Y-171729614D01*
X43730768Y-171738744D01*
X43746781Y-171775609D01*
X43753233Y-171783539D01*
X43772331Y-171811601D01*
X43777339Y-171820509D01*
X43777342Y-171820512D01*
X43792890Y-171836060D01*
X43805752Y-171848921D01*
X43812586Y-171856493D01*
X43837943Y-171887662D01*
X43837944Y-171887662D01*
X43837946Y-171887665D01*
X43846301Y-171893562D01*
X43872254Y-171915424D01*
X44522059Y-172565228D01*
X44545785Y-172590632D01*
X44569252Y-172615759D01*
X44613782Y-172692313D01*
X44620687Y-172780607D01*
X44588598Y-172863153D01*
X44564528Y-172892300D01*
X44192123Y-173264705D01*
X43834771Y-173622059D01*
X43819827Y-173636016D01*
X43788531Y-173665243D01*
X43767654Y-173699575D01*
X43761920Y-173707999D01*
X43737635Y-173740025D01*
X43737633Y-173740029D01*
X43733879Y-173749549D01*
X43718791Y-173779928D01*
X43713473Y-173788672D01*
X43702631Y-173827365D01*
X43699384Y-173837022D01*
X43684641Y-173874409D01*
X43684640Y-173874413D01*
X43683594Y-173884592D01*
X43677261Y-173917915D01*
X43674500Y-173927770D01*
X43674500Y-173967954D01*
X43673978Y-173978136D01*
X43669869Y-174018108D01*
X43669869Y-174018110D01*
X43671607Y-174028191D01*
X43674500Y-174062000D01*
X43674500Y-177110993D01*
X43654793Y-177197336D01*
X43616214Y-177251707D01*
X43570187Y-177297733D01*
X43474210Y-177450478D01*
X43474210Y-177450479D01*
X43428153Y-177582103D01*
X43414632Y-177620745D01*
X43394435Y-177800000D01*
X43414632Y-177979255D01*
X43414632Y-177979257D01*
X43414633Y-177979258D01*
X43474210Y-178149520D01*
X43474210Y-178149521D01*
X43474211Y-178149522D01*
X43568822Y-178300095D01*
X43570187Y-178302266D01*
X43697733Y-178429812D01*
X43697735Y-178429813D01*
X43697738Y-178429816D01*
X43850478Y-178525789D01*
X44020745Y-178585368D01*
X44200000Y-178605565D01*
X44379255Y-178585368D01*
X44549522Y-178525789D01*
X44702262Y-178429816D01*
X44829816Y-178302262D01*
X44925789Y-178149522D01*
X44985368Y-177979255D01*
X45005565Y-177800000D01*
X44985368Y-177620745D01*
X44925789Y-177450478D01*
X44829816Y-177297738D01*
X44829813Y-177297735D01*
X44829812Y-177297733D01*
X44783786Y-177251707D01*
X44736667Y-177176719D01*
X44725500Y-177110993D01*
X44725500Y-174300098D01*
X44745207Y-174213755D01*
X44783786Y-174159384D01*
X45159384Y-173783786D01*
X45234372Y-173736667D01*
X45300098Y-173725500D01*
X50503393Y-173725500D01*
X50589736Y-173745207D01*
X50658977Y-173800426D01*
X50697404Y-173880218D01*
X50697404Y-173968782D01*
X50691667Y-173987327D01*
X50690122Y-173993439D01*
X50679500Y-174081892D01*
X50679500Y-175818107D01*
X50690122Y-175906560D01*
X50690124Y-175906568D01*
X50745635Y-176047334D01*
X50745639Y-176047342D01*
X50837078Y-176167922D01*
X50957658Y-176259361D01*
X50957662Y-176259362D01*
X50957665Y-176259364D01*
X51021763Y-176284641D01*
X51098436Y-176314877D01*
X51131013Y-176318789D01*
X51186893Y-176325500D01*
X51186898Y-176325500D01*
X51573106Y-176325500D01*
X51617332Y-176320188D01*
X51661564Y-176314877D01*
X51802342Y-176259361D01*
X51894759Y-176189278D01*
X51975462Y-176152811D01*
X52063999Y-176154971D01*
X52135240Y-176189278D01*
X52227658Y-176259361D01*
X52227662Y-176259362D01*
X52227665Y-176259364D01*
X52291763Y-176284641D01*
X52368436Y-176314877D01*
X52401013Y-176318789D01*
X52456893Y-176325500D01*
X52456898Y-176325500D01*
X52843106Y-176325500D01*
X52887333Y-176320188D01*
X52931564Y-176314877D01*
X53072342Y-176259361D01*
X53100257Y-176238191D01*
X53180961Y-176201723D01*
X53269498Y-176203883D01*
X53348331Y-176244243D01*
X53401844Y-176314810D01*
X53419500Y-176396756D01*
X53419500Y-180844792D01*
X53416332Y-180874255D01*
X53415640Y-180883924D01*
X53419246Y-180934335D01*
X53419500Y-180941436D01*
X53419500Y-180955802D01*
X53419760Y-180959439D01*
X53419500Y-180962831D01*
X53419500Y-180962905D01*
X53419494Y-180962905D01*
X53415279Y-181017906D01*
X53414632Y-181020738D01*
X53405957Y-181097738D01*
X53394435Y-181200000D01*
X53414632Y-181379255D01*
X53414632Y-181379257D01*
X53414633Y-181379258D01*
X53474210Y-181549520D01*
X53474210Y-181549521D01*
X53492895Y-181579258D01*
X53566528Y-181696444D01*
X53570187Y-181702266D01*
X53697733Y-181829812D01*
X53697735Y-181829813D01*
X53697738Y-181829816D01*
X53850478Y-181925789D01*
X54020745Y-181985368D01*
X54200000Y-182005565D01*
X54379255Y-181985368D01*
X54549522Y-181925789D01*
X54702262Y-181829816D01*
X54759284Y-181772793D01*
X54834273Y-181725674D01*
X54922279Y-181715757D01*
X55005873Y-181745007D01*
X55040715Y-181772793D01*
X55097734Y-181829812D01*
X55097733Y-181829812D01*
X55097735Y-181829813D01*
X55097738Y-181829816D01*
X55250478Y-181925789D01*
X55420745Y-181985368D01*
X55600000Y-182005565D01*
X55764719Y-181987005D01*
X55852719Y-181996921D01*
X55927707Y-182044039D01*
X55955489Y-182078875D01*
X55970184Y-182102262D01*
X56016214Y-182148292D01*
X56063332Y-182223279D01*
X56074500Y-182289006D01*
X56074500Y-184791016D01*
X56072339Y-184854242D01*
X56072340Y-184854245D01*
X56081852Y-184893282D01*
X56083755Y-184903294D01*
X56089228Y-184943108D01*
X56089229Y-184943111D01*
X56093310Y-184952508D01*
X56104121Y-184984657D01*
X56106542Y-184994591D01*
X56106545Y-184994598D01*
X56126233Y-185029614D01*
X56130768Y-185038744D01*
X56146781Y-185075609D01*
X56153233Y-185083539D01*
X56172329Y-185111597D01*
X56177342Y-185120512D01*
X56205760Y-185148930D01*
X56212580Y-185156487D01*
X56237946Y-185187665D01*
X56237949Y-185187667D01*
X56246299Y-185193561D01*
X56272255Y-185215425D01*
X56822060Y-185765229D01*
X56865245Y-185811469D01*
X56899596Y-185832358D01*
X56907995Y-185838075D01*
X56940025Y-185862364D01*
X56940029Y-185862365D01*
X56940030Y-185862366D01*
X56949539Y-185866116D01*
X56979934Y-185881212D01*
X56988672Y-185886526D01*
X57027360Y-185897365D01*
X57037017Y-185900612D01*
X57074411Y-185915359D01*
X57084580Y-185916404D01*
X57117928Y-185922741D01*
X57127772Y-185925500D01*
X57167955Y-185925500D01*
X57178136Y-185926022D01*
X57190064Y-185927247D01*
X57218110Y-185930131D01*
X57227354Y-185928537D01*
X57228191Y-185928393D01*
X57262000Y-185925500D01*
X58499597Y-185925500D01*
X58585940Y-185945207D01*
X58655181Y-186000426D01*
X58693608Y-186080218D01*
X58693608Y-186168782D01*
X58655181Y-186248574D01*
X58602967Y-186291891D01*
X58603826Y-186293158D01*
X58594896Y-186299212D01*
X58453901Y-186418974D01*
X58341942Y-186566254D01*
X58264269Y-186734140D01*
X58244621Y-186823403D01*
X58224500Y-186914816D01*
X58224500Y-188153426D01*
X58234158Y-188242230D01*
X58239486Y-188291223D01*
X58298555Y-188466531D01*
X58298557Y-188466537D01*
X58374696Y-188593082D01*
X58393930Y-188625049D01*
X58521151Y-188759354D01*
X58674270Y-188863171D01*
X58846125Y-188931644D01*
X59028679Y-188961572D01*
X59028680Y-188961573D01*
X59028682Y-188961572D01*
X59028683Y-188961573D01*
X59213407Y-188951558D01*
X59391659Y-188902067D01*
X59555104Y-188815413D01*
X59696100Y-188695650D01*
X59808054Y-188548377D01*
X59808057Y-188548371D01*
X59885730Y-188380485D01*
X59885730Y-188380483D01*
X59885732Y-188380480D01*
X59925500Y-188199810D01*
X59925500Y-186961200D01*
X59910514Y-186823403D01*
X59851444Y-186648092D01*
X59756070Y-186489577D01*
X59628849Y-186355272D01*
X59531412Y-186289208D01*
X59471009Y-186224444D01*
X59444686Y-186139883D01*
X59457660Y-186052275D01*
X59507361Y-185978972D01*
X59583945Y-185934493D01*
X59643091Y-185925500D01*
X62991016Y-185925500D01*
X63054243Y-185927660D01*
X63054243Y-185927659D01*
X63054245Y-185927660D01*
X63093278Y-185918147D01*
X63103293Y-185916244D01*
X63115047Y-185914628D01*
X63143111Y-185910771D01*
X63152491Y-185906696D01*
X63184660Y-185895877D01*
X63194594Y-185893457D01*
X63229615Y-185873764D01*
X63238742Y-185869232D01*
X63254554Y-185862364D01*
X63275609Y-185853219D01*
X63283537Y-185846769D01*
X63311603Y-185827667D01*
X63312964Y-185826901D01*
X63320512Y-185822658D01*
X63348941Y-185794227D01*
X63356472Y-185787430D01*
X63387665Y-185762054D01*
X63393560Y-185753701D01*
X63415422Y-185727746D01*
X63965229Y-185177939D01*
X64011469Y-185134755D01*
X64032359Y-185100401D01*
X64038070Y-185092009D01*
X64062364Y-185059975D01*
X64066114Y-185050463D01*
X64081208Y-185020072D01*
X64086526Y-185011328D01*
X64097365Y-184972637D01*
X64100610Y-184962987D01*
X64115359Y-184925589D01*
X64116404Y-184915420D01*
X64122742Y-184882073D01*
X64125499Y-184872233D01*
X64125500Y-184872227D01*
X64125500Y-184832045D01*
X64126022Y-184821864D01*
X64128313Y-184799574D01*
X64130131Y-184781890D01*
X64129542Y-184778478D01*
X64128393Y-184771806D01*
X64125500Y-184737999D01*
X64125500Y-170021349D01*
X64125732Y-170014556D01*
X64129204Y-169963801D01*
X64129202Y-169963793D01*
X64128743Y-169957065D01*
X64125500Y-169925519D01*
X64125500Y-165488464D01*
X64145207Y-165402121D01*
X64200426Y-165332880D01*
X64280218Y-165294453D01*
X64363328Y-165293290D01*
X64375882Y-165295787D01*
X64474500Y-165305500D01*
X64474502Y-165305500D01*
X65900101Y-165305500D01*
X65916637Y-165304959D01*
X65933022Y-165303885D01*
X65949409Y-165302811D01*
X65965874Y-165301189D01*
X66028959Y-165292883D01*
X66079295Y-165286257D01*
X66079294Y-165286257D01*
X66079295Y-165286256D01*
X66079301Y-165286256D01*
X66095532Y-165283027D01*
X66111772Y-165279798D01*
X66206514Y-165254410D01*
X66237847Y-165243774D01*
X66237846Y-165243774D01*
X66237856Y-165243770D01*
X66328446Y-165206247D01*
X66358129Y-165191609D01*
X66407170Y-165163295D01*
X66443079Y-165142565D01*
X66443081Y-165142563D01*
X66443082Y-165142562D01*
X66443086Y-165142560D01*
X66452461Y-165136295D01*
X66470601Y-165124176D01*
X66470600Y-165124177D01*
X66548400Y-165064477D01*
X66548403Y-165064475D01*
X66562377Y-165052220D01*
X66573283Y-165042657D01*
X66642657Y-164973283D01*
X66661052Y-164952306D01*
X66664475Y-164948403D01*
X66724172Y-164870606D01*
X66724177Y-164870600D01*
X66724176Y-164870601D01*
X66742563Y-164843081D01*
X66742565Y-164843079D01*
X66791611Y-164758125D01*
X66791611Y-164758126D01*
X66806245Y-164728450D01*
X66806246Y-164728448D01*
X66817990Y-164700097D01*
X66843771Y-164637855D01*
X66843771Y-164637854D01*
X66843773Y-164637850D01*
X66843773Y-164637851D01*
X66854407Y-164606522D01*
X66854407Y-164606521D01*
X66864193Y-164570000D01*
X66879800Y-164511757D01*
X66884988Y-164485677D01*
X66921161Y-164404838D01*
X66988827Y-164347699D01*
X67074583Y-164325578D01*
X67080164Y-164325500D01*
X67099902Y-164325500D01*
X67186245Y-164345207D01*
G37*
%TD.AperFunction*%
%TA.AperFunction,Conductor*%
G36*
X61568170Y-177345207D02*
G01*
X61637411Y-177400426D01*
X61675838Y-177480218D01*
X61675838Y-177568782D01*
X61672925Y-177580020D01*
X61627346Y-177736901D01*
X61624500Y-177773066D01*
X61624500Y-177773068D01*
X61624501Y-178401929D01*
X61627346Y-178438101D01*
X61652823Y-178525789D01*
X61670132Y-178585368D01*
X61672320Y-178592896D01*
X61754371Y-178731639D01*
X61754375Y-178731644D01*
X61877210Y-178854479D01*
X61875595Y-178856093D01*
X61920814Y-178911267D01*
X61941674Y-178997339D01*
X61923124Y-179083937D01*
X61876159Y-179144470D01*
X61877210Y-179145521D01*
X61868891Y-179153839D01*
X61868836Y-179153911D01*
X61868756Y-179153974D01*
X61754375Y-179268355D01*
X61754371Y-179268360D01*
X61672319Y-179407104D01*
X61672319Y-179407105D01*
X61627346Y-179561901D01*
X61624500Y-179598066D01*
X61624500Y-179598068D01*
X61624501Y-180226929D01*
X61627346Y-180263101D01*
X61657720Y-180367645D01*
X61671371Y-180414632D01*
X61672320Y-180417896D01*
X61754371Y-180556639D01*
X61754375Y-180556644D01*
X61792112Y-180594381D01*
X61839231Y-180669369D01*
X61849147Y-180757376D01*
X61819896Y-180840969D01*
X61792112Y-180875809D01*
X61770187Y-180897733D01*
X61674210Y-181050478D01*
X61674210Y-181050479D01*
X61621891Y-181199999D01*
X61614632Y-181220745D01*
X61594435Y-181400000D01*
X61614632Y-181579255D01*
X61614632Y-181579257D01*
X61614633Y-181579258D01*
X61674210Y-181749520D01*
X61674210Y-181749521D01*
X61692895Y-181779258D01*
X61725499Y-181831147D01*
X61770187Y-181902266D01*
X61897733Y-182029812D01*
X61897735Y-182029813D01*
X61897738Y-182029816D01*
X62050478Y-182125789D01*
X62220745Y-182185368D01*
X62400000Y-182205565D01*
X62579255Y-182185368D01*
X62749522Y-182125789D01*
X62769624Y-182113157D01*
X62853217Y-182083907D01*
X62941223Y-182093821D01*
X63016213Y-182140939D01*
X63063332Y-182215927D01*
X63074500Y-182281655D01*
X63074499Y-184499903D01*
X63054792Y-184586246D01*
X63016214Y-184640617D01*
X62840615Y-184816215D01*
X62765629Y-184863333D01*
X62699903Y-184874500D01*
X59827072Y-184874500D01*
X59740729Y-184854793D01*
X59671488Y-184799574D01*
X59633061Y-184719782D01*
X59633061Y-184631218D01*
X59671488Y-184551426D01*
X59688788Y-184533581D01*
X59688682Y-184533481D01*
X59696095Y-184525654D01*
X59696094Y-184525654D01*
X59696100Y-184525650D01*
X59808054Y-184378377D01*
X59827879Y-184335526D01*
X59885730Y-184210485D01*
X59885730Y-184210483D01*
X59885732Y-184210480D01*
X59925500Y-184029810D01*
X59925500Y-182791200D01*
X59910514Y-182653403D01*
X59899784Y-182621559D01*
X59890890Y-182533448D01*
X59921107Y-182450200D01*
X59984452Y-182388306D01*
X60022640Y-182370186D01*
X60149522Y-182325789D01*
X60302262Y-182229816D01*
X60429816Y-182102262D01*
X60525789Y-181949522D01*
X60585368Y-181779255D01*
X60605565Y-181600000D01*
X60585368Y-181420745D01*
X60525789Y-181250478D01*
X60429816Y-181097738D01*
X60429813Y-181097735D01*
X60429812Y-181097733D01*
X60383785Y-181051706D01*
X60336666Y-180976718D01*
X60325499Y-180910992D01*
X60325499Y-180848878D01*
X60325499Y-180809195D01*
X60345206Y-180722855D01*
X60383785Y-180668484D01*
X60383785Y-180668483D01*
X60495626Y-180556643D01*
X60577681Y-180417894D01*
X60622654Y-180263098D01*
X60625500Y-180226935D01*
X60625499Y-179598066D01*
X60622654Y-179561902D01*
X60577681Y-179407106D01*
X60495626Y-179268357D01*
X60381643Y-179154374D01*
X60372790Y-179145521D01*
X60374406Y-179143904D01*
X60329192Y-179088747D01*
X60308325Y-179002677D01*
X60326869Y-178916077D01*
X60373837Y-178855526D01*
X60372790Y-178854479D01*
X60381085Y-178846183D01*
X60381151Y-178846099D01*
X60381244Y-178846024D01*
X60381640Y-178845627D01*
X60381643Y-178845626D01*
X60495626Y-178731643D01*
X60577681Y-178592894D01*
X60622654Y-178438098D01*
X60625500Y-178401935D01*
X60625499Y-177773066D01*
X60622654Y-177736902D01*
X60612589Y-177702260D01*
X60577075Y-177580021D01*
X60571910Y-177491608D01*
X60605618Y-177409710D01*
X60671521Y-177350548D01*
X60756568Y-177325839D01*
X60768173Y-177325500D01*
X61481827Y-177325500D01*
X61568170Y-177345207D01*
G37*
%TD.AperFunction*%
%TA.AperFunction,Conductor*%
G36*
X57308574Y-176653513D02*
G01*
X57325214Y-176668384D01*
X57335763Y-176678933D01*
X57342586Y-176686493D01*
X57367946Y-176717665D01*
X57376301Y-176723562D01*
X57402256Y-176745426D01*
X58816214Y-178159383D01*
X58863333Y-178234371D01*
X58874500Y-178300095D01*
X58874501Y-178401928D01*
X58874501Y-178401929D01*
X58877346Y-178438101D01*
X58902823Y-178525789D01*
X58920132Y-178585368D01*
X58922320Y-178592896D01*
X59004371Y-178731639D01*
X59004375Y-178731644D01*
X59127210Y-178854479D01*
X59125595Y-178856093D01*
X59170814Y-178911267D01*
X59191674Y-178997339D01*
X59173124Y-179083937D01*
X59126159Y-179144470D01*
X59127210Y-179145521D01*
X59118891Y-179153839D01*
X59118836Y-179153911D01*
X59118756Y-179153974D01*
X59004375Y-179268355D01*
X59004371Y-179268360D01*
X58922319Y-179407104D01*
X58922319Y-179407105D01*
X58877346Y-179561901D01*
X58874500Y-179598066D01*
X58874500Y-179598068D01*
X58874501Y-180226929D01*
X58877346Y-180263101D01*
X58907720Y-180367645D01*
X58921371Y-180414632D01*
X58922320Y-180417896D01*
X59004371Y-180556639D01*
X59004373Y-180556642D01*
X59004374Y-180556643D01*
X59118357Y-180670626D01*
X59143607Y-180685558D01*
X59176798Y-180705188D01*
X59241086Y-180766103D01*
X59272577Y-180848878D01*
X59274500Y-180876476D01*
X59274500Y-180910993D01*
X59254793Y-180997336D01*
X59216214Y-181051707D01*
X59170187Y-181097733D01*
X59074210Y-181250478D01*
X59074210Y-181250479D01*
X59022823Y-181397336D01*
X59014632Y-181420745D01*
X58994435Y-181600000D01*
X59014632Y-181779255D01*
X59014633Y-181779258D01*
X59015884Y-181790360D01*
X59013606Y-181790616D01*
X59013594Y-181863339D01*
X58975155Y-181943125D01*
X58905904Y-181998332D01*
X58872829Y-182010771D01*
X58758345Y-182042557D01*
X58758333Y-182042562D01*
X58594897Y-182129211D01*
X58594896Y-182129212D01*
X58453901Y-182248974D01*
X58341942Y-182396254D01*
X58264269Y-182564140D01*
X58224500Y-182744816D01*
X58224500Y-182959016D01*
X58204793Y-183045359D01*
X58149574Y-183114600D01*
X58069782Y-183153027D01*
X57981218Y-183153027D01*
X57959775Y-183146849D01*
X57943063Y-183141001D01*
X57943061Y-183141000D01*
X57943059Y-183141000D01*
X57775000Y-183122064D01*
X57606941Y-183141000D01*
X57606939Y-183141000D01*
X57606936Y-183141001D01*
X57447311Y-183196856D01*
X57447309Y-183196857D01*
X57430371Y-183207500D01*
X57346777Y-183236749D01*
X57258770Y-183226832D01*
X57183782Y-183179712D01*
X57136665Y-183104723D01*
X57125499Y-183039003D01*
X57125499Y-182289005D01*
X57145206Y-182202663D01*
X57183782Y-182148295D01*
X57229816Y-182102262D01*
X57325789Y-181949522D01*
X57385368Y-181779255D01*
X57405565Y-181600000D01*
X57385368Y-181420745D01*
X57325789Y-181250478D01*
X57229816Y-181097738D01*
X57229813Y-181097735D01*
X57229812Y-181097733D01*
X57198893Y-181066814D01*
X57151774Y-180991826D01*
X57141858Y-180903819D01*
X57171109Y-180820226D01*
X57233733Y-180757602D01*
X57238309Y-180754812D01*
X57381329Y-180670230D01*
X57381335Y-180670226D01*
X57495228Y-180556333D01*
X57577218Y-180417693D01*
X57622155Y-180263020D01*
X57625000Y-180226881D01*
X57625000Y-180062500D01*
X56749000Y-180062500D01*
X56662657Y-180042793D01*
X56593416Y-179987574D01*
X56554989Y-179907782D01*
X56550000Y-179863500D01*
X56550000Y-179861500D01*
X56569707Y-179775157D01*
X56624926Y-179705916D01*
X56704718Y-179667489D01*
X56749000Y-179662500D01*
X57624999Y-179662500D01*
X57624999Y-179498123D01*
X57622155Y-179461974D01*
X57577219Y-179307306D01*
X57495228Y-179168666D01*
X57467629Y-179141067D01*
X57420510Y-179066079D01*
X57410594Y-178978072D01*
X57439845Y-178894479D01*
X57467627Y-178859641D01*
X57495626Y-178831643D01*
X57577681Y-178692894D01*
X57622654Y-178538098D01*
X57625500Y-178501935D01*
X57625499Y-177773066D01*
X57622654Y-177736902D01*
X57577681Y-177582106D01*
X57499838Y-177450479D01*
X57495628Y-177443360D01*
X57495624Y-177443355D01*
X57381644Y-177329375D01*
X57381639Y-177329371D01*
X57242896Y-177247320D01*
X57242895Y-177247319D01*
X57242894Y-177247319D01*
X57164281Y-177224479D01*
X57128979Y-177214223D01*
X57051563Y-177171209D01*
X57000477Y-177098865D01*
X56985500Y-177023125D01*
X56985500Y-176809097D01*
X57005207Y-176722754D01*
X57060426Y-176653513D01*
X57140218Y-176615086D01*
X57228782Y-176615086D01*
X57308574Y-176653513D01*
G37*
%TD.AperFunction*%
%TA.AperFunction,Conductor*%
G36*
X52828890Y-149581840D02*
G01*
X52852002Y-149601659D01*
X53229003Y-149978660D01*
X53229004Y-149978660D01*
X53301663Y-149874893D01*
X53304361Y-149869108D01*
X53358705Y-149799179D01*
X53438010Y-149759754D01*
X53526566Y-149758643D01*
X53606835Y-149796064D01*
X53662918Y-149864607D01*
X53665073Y-149869080D01*
X53667898Y-149875139D01*
X53667899Y-149875141D01*
X53667900Y-149875142D01*
X53793403Y-150054379D01*
X53948120Y-150209096D01*
X54127357Y-150334600D01*
X54127360Y-150334601D01*
X54127361Y-150334602D01*
X54132815Y-150337145D01*
X54202739Y-150391496D01*
X54242157Y-150470804D01*
X54243260Y-150559360D01*
X54205832Y-150639626D01*
X54137284Y-150695703D01*
X54132820Y-150697853D01*
X54127362Y-150700398D01*
X53948127Y-150825898D01*
X53948119Y-150825905D01*
X53793405Y-150980619D01*
X53793398Y-150980627D01*
X53667898Y-151159862D01*
X53665355Y-151165316D01*
X53611004Y-151235240D01*
X53531696Y-151274658D01*
X53443140Y-151275761D01*
X53362874Y-151238333D01*
X53306797Y-151169785D01*
X53304645Y-151165316D01*
X53302102Y-151159862D01*
X53176598Y-150980623D01*
X53021877Y-150825902D01*
X53021876Y-150825901D01*
X53021875Y-150825900D01*
X52842642Y-150700400D01*
X52842641Y-150700399D01*
X52842639Y-150700398D01*
X52836586Y-150697575D01*
X52766664Y-150643223D01*
X52727249Y-150563914D01*
X52726148Y-150475357D01*
X52763579Y-150395093D01*
X52832128Y-150339018D01*
X52836608Y-150336861D01*
X52842393Y-150334163D01*
X52946160Y-150261504D01*
X52946160Y-150261503D01*
X52569058Y-149884401D01*
X52521939Y-149809413D01*
X52512023Y-149721406D01*
X52541274Y-149637813D01*
X52579427Y-149593317D01*
X52580954Y-149591993D01*
X52659102Y-149550337D01*
X52747591Y-149546712D01*
X52828890Y-149581840D01*
G37*
%TD.AperFunction*%
%TA.AperFunction,Conductor*%
G36*
X61203546Y-145800254D02*
G01*
X61306340Y-145807605D01*
X61470441Y-145819342D01*
X61498533Y-145823381D01*
X61749563Y-145877989D01*
X61776787Y-145885983D01*
X62017504Y-145975765D01*
X62043320Y-145987556D01*
X62268795Y-146110675D01*
X62292668Y-146126016D01*
X62498329Y-146279973D01*
X62519786Y-146298566D01*
X62701433Y-146480213D01*
X62720026Y-146501670D01*
X62873978Y-146707324D01*
X62889329Y-146731211D01*
X63012442Y-146956677D01*
X63024237Y-146982503D01*
X63114012Y-147223198D01*
X63122011Y-147250442D01*
X63176617Y-147501462D01*
X63180658Y-147529565D01*
X63199746Y-147796454D01*
X63200000Y-147803554D01*
X63200000Y-151800000D01*
X67096445Y-151800000D01*
X67103546Y-151800254D01*
X67206340Y-151807605D01*
X67370441Y-151819342D01*
X67398533Y-151823381D01*
X67649563Y-151877989D01*
X67676787Y-151885983D01*
X67917504Y-151975765D01*
X67943320Y-151987556D01*
X68168795Y-152110675D01*
X68192668Y-152126016D01*
X68313987Y-152216835D01*
X68398329Y-152279973D01*
X68419786Y-152298566D01*
X68601433Y-152480213D01*
X68620026Y-152501670D01*
X68773978Y-152707324D01*
X68789329Y-152731211D01*
X68912442Y-152956677D01*
X68924237Y-152982503D01*
X69014012Y-153223198D01*
X69022011Y-153250442D01*
X69076617Y-153501462D01*
X69080658Y-153529565D01*
X69099746Y-153796454D01*
X69100000Y-153803554D01*
X69100000Y-176755658D01*
X69080293Y-176842001D01*
X69025074Y-176911242D01*
X68945282Y-176949669D01*
X68856718Y-176949669D01*
X68776926Y-176911242D01*
X68734580Y-176858152D01*
X68731735Y-176859941D01*
X68722293Y-176844914D01*
X68629816Y-176697738D01*
X68629813Y-176697735D01*
X68629812Y-176697733D01*
X68583786Y-176651707D01*
X68536667Y-176576719D01*
X68525500Y-176510993D01*
X68525500Y-164408982D01*
X68527660Y-164345756D01*
X68527526Y-164345207D01*
X68518146Y-164306717D01*
X68516244Y-164296707D01*
X68514446Y-164283633D01*
X68510771Y-164256889D01*
X68506695Y-164247506D01*
X68495877Y-164215340D01*
X68493457Y-164205406D01*
X68473767Y-164170387D01*
X68469230Y-164161254D01*
X68453219Y-164124391D01*
X68446762Y-164116455D01*
X68427663Y-164088392D01*
X68422657Y-164079488D01*
X68394247Y-164051078D01*
X68387416Y-164043509D01*
X68362053Y-164012334D01*
X68353692Y-164006432D01*
X68327740Y-163984571D01*
X68327739Y-163984570D01*
X67777940Y-163434771D01*
X67734755Y-163388531D01*
X67734754Y-163388530D01*
X67726234Y-163383349D01*
X67700407Y-163367643D01*
X67691994Y-163361917D01*
X67659976Y-163337636D01*
X67650451Y-163333880D01*
X67620071Y-163318790D01*
X67611328Y-163313474D01*
X67572645Y-163302635D01*
X67562984Y-163299386D01*
X67525591Y-163284641D01*
X67525588Y-163284640D01*
X67515407Y-163283594D01*
X67482079Y-163277260D01*
X67472228Y-163274500D01*
X67472227Y-163274500D01*
X67432045Y-163274500D01*
X67421864Y-163273978D01*
X67381892Y-163269869D01*
X67381889Y-163269869D01*
X67371809Y-163271607D01*
X67338000Y-163274500D01*
X67104499Y-163274500D01*
X67018156Y-163254793D01*
X66948915Y-163199574D01*
X66910488Y-163119782D01*
X66905499Y-163075500D01*
X66905499Y-160799900D01*
X66904958Y-160783368D01*
X66902810Y-160750591D01*
X66901188Y-160734126D01*
X66886257Y-160620704D01*
X66879799Y-160588239D01*
X66854407Y-160493478D01*
X66854407Y-160493477D01*
X66843773Y-160462148D01*
X66843773Y-160462149D01*
X66843772Y-160462148D01*
X66806246Y-160371551D01*
X66806245Y-160371549D01*
X66791611Y-160341873D01*
X66791612Y-160341874D01*
X66742556Y-160256907D01*
X66742557Y-160256908D01*
X66724173Y-160229394D01*
X66724173Y-160229395D01*
X66724170Y-160229391D01*
X66664470Y-160151590D01*
X66664468Y-160151587D01*
X66642645Y-160126704D01*
X66642645Y-160126703D01*
X66573290Y-160057349D01*
X66548411Y-160035530D01*
X66548409Y-160035529D01*
X66548404Y-160035524D01*
X66470600Y-159975822D01*
X66470601Y-159975823D01*
X66443080Y-159957435D01*
X66443079Y-159957434D01*
X66358127Y-159908389D01*
X66328453Y-159893756D01*
X66328449Y-159893754D01*
X66283152Y-159874991D01*
X66237852Y-159856226D01*
X66237854Y-159856227D01*
X66228310Y-159852987D01*
X66206513Y-159845589D01*
X66206502Y-159845586D01*
X66206501Y-159845585D01*
X66111757Y-159820199D01*
X66103695Y-159818595D01*
X66079293Y-159813741D01*
X66079295Y-159813742D01*
X65965872Y-159798810D01*
X65949406Y-159797189D01*
X65949405Y-159797189D01*
X65916631Y-159795041D01*
X65900099Y-159794500D01*
X64474500Y-159794500D01*
X64474495Y-159794500D01*
X64375887Y-159804212D01*
X64375881Y-159804213D01*
X64375882Y-159804213D01*
X64363319Y-159806711D01*
X64274793Y-159804227D01*
X64196110Y-159763578D01*
X64142856Y-159692814D01*
X64125500Y-159611535D01*
X64125500Y-158689006D01*
X64145207Y-158602663D01*
X64183784Y-158548293D01*
X64229816Y-158502262D01*
X64325789Y-158349522D01*
X64385368Y-158179255D01*
X64405565Y-158000000D01*
X64385368Y-157820745D01*
X64325789Y-157650478D01*
X64229816Y-157497738D01*
X64229813Y-157497735D01*
X64229812Y-157497733D01*
X64102266Y-157370187D01*
X64102263Y-157370185D01*
X64102262Y-157370184D01*
X64015662Y-157315770D01*
X63949521Y-157274210D01*
X63827341Y-157231458D01*
X63752352Y-157184339D01*
X63705233Y-157109351D01*
X63694173Y-157050137D01*
X63691157Y-156957931D01*
X63686258Y-156920716D01*
X63679801Y-156888254D01*
X63679799Y-156888246D01*
X63679799Y-156888244D01*
X63654415Y-156793503D01*
X63654415Y-156793502D01*
X63643772Y-156762145D01*
X63606249Y-156671556D01*
X63606248Y-156671555D01*
X63591611Y-156641873D01*
X63591612Y-156641874D01*
X63549468Y-156568879D01*
X63542559Y-156556912D01*
X63542558Y-156556910D01*
X63542556Y-156556907D01*
X63542557Y-156556908D01*
X63524173Y-156529394D01*
X63524173Y-156529395D01*
X63524170Y-156529391D01*
X63464470Y-156451590D01*
X63464468Y-156451587D01*
X63442645Y-156426704D01*
X63442645Y-156426703D01*
X63373290Y-156357349D01*
X63348411Y-156335530D01*
X63348409Y-156335529D01*
X63348404Y-156335524D01*
X63270600Y-156275822D01*
X63270601Y-156275823D01*
X63243080Y-156257435D01*
X63243079Y-156257434D01*
X63158127Y-156208389D01*
X63128453Y-156193756D01*
X63128451Y-156193755D01*
X63128449Y-156193754D01*
X63083152Y-156174991D01*
X63037852Y-156156226D01*
X63037854Y-156156227D01*
X63028310Y-156152987D01*
X63006513Y-156145589D01*
X63006502Y-156145586D01*
X63006501Y-156145585D01*
X62911757Y-156120199D01*
X62903695Y-156118595D01*
X62879293Y-156113741D01*
X62879295Y-156113742D01*
X62765872Y-156098810D01*
X62749406Y-156097189D01*
X62749405Y-156097189D01*
X62716631Y-156095041D01*
X62700099Y-156094500D01*
X54199901Y-156094500D01*
X54183369Y-156095041D01*
X54150594Y-156097189D01*
X54134128Y-156098810D01*
X54020711Y-156113741D01*
X54020707Y-156113741D01*
X54020705Y-156113742D01*
X54010290Y-156115813D01*
X53988253Y-156120196D01*
X53988247Y-156120197D01*
X53988245Y-156120198D01*
X53948203Y-156130927D01*
X53893495Y-156145586D01*
X53893496Y-156145586D01*
X53893492Y-156145587D01*
X53862148Y-156156226D01*
X53781350Y-156189694D01*
X53771542Y-156193757D01*
X53741869Y-156208390D01*
X53741870Y-156208390D01*
X53741866Y-156208392D01*
X53721144Y-156220355D01*
X53656925Y-156257431D01*
X53656922Y-156257433D01*
X53656918Y-156257436D01*
X53647541Y-156263700D01*
X53629400Y-156275822D01*
X53629402Y-156275821D01*
X53551581Y-156335536D01*
X53526698Y-156357358D01*
X53526698Y-156357359D01*
X53457359Y-156426698D01*
X53457358Y-156426698D01*
X53435536Y-156451581D01*
X53435529Y-156451590D01*
X53375826Y-156529395D01*
X53357444Y-156556907D01*
X53357433Y-156556923D01*
X53357431Y-156556925D01*
X53324115Y-156614632D01*
X53308392Y-156641866D01*
X53308390Y-156641870D01*
X53308390Y-156641869D01*
X53308388Y-156641874D01*
X53293755Y-156671547D01*
X53256226Y-156762147D01*
X53253498Y-156770184D01*
X53245584Y-156793498D01*
X53245583Y-156793503D01*
X53220199Y-156888240D01*
X53216558Y-156906544D01*
X53213741Y-156920706D01*
X53213742Y-156920704D01*
X53198810Y-157034127D01*
X53197189Y-157050593D01*
X53195041Y-157083369D01*
X53194500Y-157099900D01*
X53194500Y-160175500D01*
X53174793Y-160261843D01*
X53119574Y-160331084D01*
X53039782Y-160369511D01*
X52995500Y-160374500D01*
X41324500Y-160374500D01*
X41238157Y-160354793D01*
X41168916Y-160299574D01*
X41130489Y-160219782D01*
X41125500Y-160175500D01*
X41125500Y-159000000D01*
X46794435Y-159000000D01*
X46814632Y-159179255D01*
X46814632Y-159179257D01*
X46814633Y-159179258D01*
X46874210Y-159349520D01*
X46874210Y-159349521D01*
X46970187Y-159502266D01*
X47097733Y-159629812D01*
X47097735Y-159629813D01*
X47097738Y-159629816D01*
X47250478Y-159725789D01*
X47420745Y-159785368D01*
X47600000Y-159805565D01*
X47779255Y-159785368D01*
X47949522Y-159725789D01*
X48102262Y-159629816D01*
X48229816Y-159502262D01*
X48325789Y-159349522D01*
X48385368Y-159179255D01*
X48405565Y-159000000D01*
X48385368Y-158820745D01*
X48325789Y-158650478D01*
X48229816Y-158497738D01*
X48229813Y-158497735D01*
X48229812Y-158497733D01*
X48183786Y-158451707D01*
X48136667Y-158376719D01*
X48125500Y-158310993D01*
X48125500Y-148700097D01*
X48145207Y-148613754D01*
X48183786Y-148559383D01*
X48359383Y-148383786D01*
X48434371Y-148336667D01*
X48500097Y-148325500D01*
X50953750Y-148325500D01*
X51040093Y-148345207D01*
X51109334Y-148400426D01*
X51147761Y-148480218D01*
X51147761Y-148568782D01*
X51130905Y-148611725D01*
X51132005Y-148612238D01*
X51035895Y-148818344D01*
X51035895Y-148818345D01*
X50979289Y-149029604D01*
X50960225Y-149247500D01*
X50979289Y-149465395D01*
X51035894Y-149676651D01*
X51035895Y-149676653D01*
X51128332Y-149874887D01*
X51128333Y-149874888D01*
X51200995Y-149978660D01*
X51200995Y-149978661D01*
X51577997Y-149601659D01*
X51652985Y-149554540D01*
X51740992Y-149544624D01*
X51824585Y-149573875D01*
X51848987Y-149591943D01*
X51850511Y-149593264D01*
X51902874Y-149664685D01*
X51919063Y-149751756D01*
X51895871Y-149837229D01*
X51860941Y-149884400D01*
X51483838Y-150261503D01*
X51483838Y-150261504D01*
X51587607Y-150334163D01*
X51593397Y-150336863D01*
X51663324Y-150391210D01*
X51702747Y-150470515D01*
X51703856Y-150559071D01*
X51666432Y-150639339D01*
X51597888Y-150695420D01*
X51593418Y-150697573D01*
X51587367Y-150700394D01*
X51587364Y-150700396D01*
X51408127Y-150825898D01*
X51408119Y-150825905D01*
X51253405Y-150980619D01*
X51253398Y-150980627D01*
X51127896Y-151159864D01*
X51035426Y-151358165D01*
X51035424Y-151358171D01*
X50978793Y-151569520D01*
X50978792Y-151569527D01*
X50959723Y-151787499D01*
X50978792Y-152005472D01*
X50978793Y-152005479D01*
X51035424Y-152216828D01*
X51035427Y-152216835D01*
X51127897Y-152415138D01*
X51127899Y-152415142D01*
X51253403Y-152594379D01*
X51408120Y-152749096D01*
X51587357Y-152874600D01*
X51587361Y-152874602D01*
X51785670Y-152967075D01*
X51997023Y-153023707D01*
X52215000Y-153042777D01*
X52432977Y-153023707D01*
X52644330Y-152967075D01*
X52842639Y-152874602D01*
X53021877Y-152749098D01*
X53176598Y-152594377D01*
X53302102Y-152415139D01*
X53304640Y-152409695D01*
X53358981Y-152339771D01*
X53438285Y-152300347D01*
X53526842Y-152299235D01*
X53607111Y-152336656D01*
X53663194Y-152405199D01*
X53665351Y-152409678D01*
X53667897Y-152415138D01*
X53667899Y-152415142D01*
X53793403Y-152594379D01*
X53948120Y-152749096D01*
X54127357Y-152874600D01*
X54127361Y-152874602D01*
X54325670Y-152967075D01*
X54537023Y-153023707D01*
X54755000Y-153042777D01*
X54972977Y-153023707D01*
X55184330Y-152967075D01*
X55382639Y-152874602D01*
X55561877Y-152749098D01*
X55716598Y-152594377D01*
X55842102Y-152415139D01*
X55844642Y-152409690D01*
X55898992Y-152339764D01*
X55978298Y-152300344D01*
X56066855Y-152299237D01*
X56147121Y-152336664D01*
X56203200Y-152405210D01*
X56205357Y-152409690D01*
X56207897Y-152415138D01*
X56207899Y-152415142D01*
X56333403Y-152594379D01*
X56488120Y-152749096D01*
X56667357Y-152874600D01*
X56667361Y-152874602D01*
X56865670Y-152967075D01*
X57077023Y-153023707D01*
X57295000Y-153042777D01*
X57512977Y-153023707D01*
X57724330Y-152967075D01*
X57922639Y-152874602D01*
X58101877Y-152749098D01*
X58256598Y-152594377D01*
X58382102Y-152415139D01*
X58474575Y-152216830D01*
X58531207Y-152005477D01*
X58550277Y-151787500D01*
X58531207Y-151569523D01*
X58474575Y-151358170D01*
X58447628Y-151300383D01*
X58382103Y-151159864D01*
X58256601Y-150980627D01*
X58256599Y-150980625D01*
X58256598Y-150980623D01*
X58101877Y-150825902D01*
X58101876Y-150825901D01*
X58101874Y-150825899D01*
X58077620Y-150808916D01*
X58018196Y-150743248D01*
X57993149Y-150658301D01*
X58007440Y-150570898D01*
X58058239Y-150498352D01*
X58135483Y-150455030D01*
X58135527Y-150455016D01*
X58155398Y-150449244D01*
X58296865Y-150365581D01*
X58413081Y-150249365D01*
X58496744Y-150107898D01*
X58542598Y-149950069D01*
X58545500Y-149913194D01*
X58545500Y-148581806D01*
X58542598Y-148544931D01*
X58496744Y-148387102D01*
X58485420Y-148367954D01*
X58413082Y-148245636D01*
X58296863Y-148129417D01*
X58155399Y-148045756D01*
X57997569Y-147999902D01*
X57997568Y-147999902D01*
X57960694Y-147997000D01*
X56629306Y-147997000D01*
X56610119Y-147998510D01*
X56592430Y-147999902D01*
X56434600Y-148045756D01*
X56293136Y-148129417D01*
X56176917Y-148245636D01*
X56093257Y-148387099D01*
X56087691Y-148406258D01*
X56044676Y-148483674D01*
X55972331Y-148534760D01*
X55884986Y-148549397D01*
X55799940Y-148524687D01*
X55734037Y-148465525D01*
X55733582Y-148464878D01*
X55716603Y-148440630D01*
X55716599Y-148440625D01*
X55716598Y-148440623D01*
X55561877Y-148285902D01*
X55561876Y-148285901D01*
X55561875Y-148285900D01*
X55382642Y-148160399D01*
X55382638Y-148160397D01*
X55257911Y-148102236D01*
X55187986Y-148047885D01*
X55183445Y-148042121D01*
X55177654Y-148034484D01*
X55149247Y-148006078D01*
X55142417Y-147998510D01*
X55140580Y-147996252D01*
X55117054Y-147967335D01*
X55112872Y-147964383D01*
X55108692Y-147961432D01*
X55082740Y-147939571D01*
X54843661Y-147700492D01*
X54577940Y-147434771D01*
X54534755Y-147388531D01*
X54534754Y-147388530D01*
X54526234Y-147383349D01*
X54500407Y-147367643D01*
X54491994Y-147361917D01*
X54459976Y-147337636D01*
X54450451Y-147333880D01*
X54420071Y-147318790D01*
X54411328Y-147313474D01*
X54372645Y-147302635D01*
X54362984Y-147299386D01*
X54325591Y-147284641D01*
X54325588Y-147284640D01*
X54315407Y-147283594D01*
X54282079Y-147277260D01*
X54272228Y-147274500D01*
X54272227Y-147274500D01*
X54232045Y-147274500D01*
X54221864Y-147273978D01*
X54181892Y-147269869D01*
X54181889Y-147269869D01*
X54171809Y-147271607D01*
X54138000Y-147274500D01*
X48208984Y-147274500D01*
X48207082Y-147274435D01*
X48145758Y-147272339D01*
X48145755Y-147272340D01*
X48106719Y-147281852D01*
X48096706Y-147283755D01*
X48056891Y-147289228D01*
X48056888Y-147289229D01*
X48047494Y-147293309D01*
X48015347Y-147304119D01*
X48005414Y-147306540D01*
X48005402Y-147306544D01*
X47970383Y-147326233D01*
X47961259Y-147330766D01*
X47924395Y-147346778D01*
X47924382Y-147346787D01*
X47916446Y-147353243D01*
X47888407Y-147372327D01*
X47879487Y-147377342D01*
X47851079Y-147405750D01*
X47843514Y-147412578D01*
X47812336Y-147437944D01*
X47812335Y-147437945D01*
X47806431Y-147446309D01*
X47784574Y-147472255D01*
X47556338Y-147700492D01*
X47234771Y-148022059D01*
X47221467Y-148034484D01*
X47188531Y-148065243D01*
X47167654Y-148099575D01*
X47161920Y-148107999D01*
X47137635Y-148140025D01*
X47137633Y-148140029D01*
X47133879Y-148149549D01*
X47118791Y-148179928D01*
X47113473Y-148188672D01*
X47102631Y-148227365D01*
X47099384Y-148237022D01*
X47084641Y-148274409D01*
X47084640Y-148274413D01*
X47083594Y-148284592D01*
X47077261Y-148317915D01*
X47074500Y-148327770D01*
X47074500Y-148367954D01*
X47073978Y-148378136D01*
X47069869Y-148418108D01*
X47069869Y-148418110D01*
X47071607Y-148428191D01*
X47074500Y-148462000D01*
X47074500Y-158310993D01*
X47054793Y-158397336D01*
X47016214Y-158451707D01*
X46970187Y-158497733D01*
X46874210Y-158650478D01*
X46874210Y-158650479D01*
X46860729Y-158689006D01*
X46814632Y-158820745D01*
X46794435Y-159000000D01*
X41125500Y-159000000D01*
X41125500Y-158300096D01*
X41145207Y-158213753D01*
X41183781Y-158159387D01*
X41359385Y-157983783D01*
X41434372Y-157936667D01*
X41500097Y-157925500D01*
X45110993Y-157925500D01*
X45197336Y-157945207D01*
X45251707Y-157983786D01*
X45297733Y-158029812D01*
X45297735Y-158029813D01*
X45297738Y-158029816D01*
X45450478Y-158125789D01*
X45620745Y-158185368D01*
X45800000Y-158205565D01*
X45979255Y-158185368D01*
X46149522Y-158125789D01*
X46302262Y-158029816D01*
X46429816Y-157902262D01*
X46525789Y-157749522D01*
X46585368Y-157579255D01*
X46605565Y-157400000D01*
X46585368Y-157220745D01*
X46525789Y-157050478D01*
X46429816Y-156897738D01*
X46429813Y-156897735D01*
X46429812Y-156897733D01*
X46302266Y-156770187D01*
X46302263Y-156770185D01*
X46302262Y-156770184D01*
X46149522Y-156674211D01*
X46149521Y-156674210D01*
X46149520Y-156674210D01*
X45979258Y-156614633D01*
X45979257Y-156614632D01*
X45979255Y-156614632D01*
X45800000Y-156594435D01*
X45620745Y-156614632D01*
X45620742Y-156614632D01*
X45620741Y-156614633D01*
X45450479Y-156674210D01*
X45450478Y-156674210D01*
X45297733Y-156770187D01*
X45251707Y-156816214D01*
X45176719Y-156863333D01*
X45110993Y-156874500D01*
X41208984Y-156874500D01*
X41207082Y-156874435D01*
X41145758Y-156872339D01*
X41145755Y-156872340D01*
X41106719Y-156881852D01*
X41096706Y-156883755D01*
X41056891Y-156889228D01*
X41056888Y-156889229D01*
X41047494Y-156893309D01*
X41015347Y-156904119D01*
X41005414Y-156906540D01*
X41005402Y-156906544D01*
X40970383Y-156926233D01*
X40961259Y-156930766D01*
X40924395Y-156946778D01*
X40924382Y-156946787D01*
X40916446Y-156953243D01*
X40888407Y-156972327D01*
X40879487Y-156977342D01*
X40851079Y-157005750D01*
X40843514Y-157012578D01*
X40812336Y-157037944D01*
X40812335Y-157037945D01*
X40806431Y-157046309D01*
X40784574Y-157072255D01*
X40739714Y-157117115D01*
X40664726Y-157164234D01*
X40576719Y-157174150D01*
X40493126Y-157144899D01*
X40430502Y-157082275D01*
X40401251Y-156998682D01*
X40400000Y-156976401D01*
X40400000Y-147803555D01*
X40400254Y-147796454D01*
X40407116Y-147700492D01*
X40419342Y-147529556D01*
X40423381Y-147501468D01*
X40477990Y-147250432D01*
X40485981Y-147223216D01*
X40575767Y-146982490D01*
X40587553Y-146956684D01*
X40710678Y-146731197D01*
X40726012Y-146707337D01*
X40879978Y-146501663D01*
X40898559Y-146480220D01*
X41080220Y-146298559D01*
X41101663Y-146279978D01*
X41307337Y-146126012D01*
X41331197Y-146110678D01*
X41556684Y-145987553D01*
X41582490Y-145975767D01*
X41823216Y-145885981D01*
X41850432Y-145877990D01*
X42101468Y-145823381D01*
X42129556Y-145819342D01*
X42300492Y-145807116D01*
X42396454Y-145800254D01*
X42403555Y-145800000D01*
X61196445Y-145800000D01*
X61203546Y-145800254D01*
G37*
%TD.AperFunction*%
%TA.AperFunction,Conductor*%
G36*
X62961843Y-170545207D02*
G01*
X63031084Y-170600426D01*
X63069511Y-170680218D01*
X63074500Y-170724500D01*
X63074500Y-176650903D01*
X63054793Y-176737246D01*
X62999574Y-176806487D01*
X62919782Y-176844914D01*
X62831218Y-176844914D01*
X62751426Y-176806487D01*
X62734786Y-176791617D01*
X62558255Y-176615086D01*
X62377939Y-176434770D01*
X62334755Y-176388531D01*
X62334754Y-176388530D01*
X62326234Y-176383349D01*
X62300407Y-176367643D01*
X62291994Y-176361917D01*
X62259976Y-176337636D01*
X62250451Y-176333880D01*
X62220071Y-176318790D01*
X62211328Y-176313474D01*
X62172645Y-176302635D01*
X62162984Y-176299386D01*
X62125591Y-176284641D01*
X62125588Y-176284640D01*
X62115407Y-176283594D01*
X62082079Y-176277260D01*
X62076186Y-176275609D01*
X62072228Y-176274500D01*
X62072227Y-176274500D01*
X62032045Y-176274500D01*
X62021864Y-176273978D01*
X61981892Y-176269869D01*
X61981889Y-176269869D01*
X61971809Y-176271607D01*
X61938000Y-176274500D01*
X61106634Y-176274500D01*
X61020291Y-176254793D01*
X60951050Y-176199574D01*
X60912623Y-176119782D01*
X60912623Y-176031218D01*
X60921509Y-176002496D01*
X60959384Y-175906450D01*
X60959386Y-175906441D01*
X60969999Y-175818066D01*
X60970000Y-175150000D01*
X60269000Y-175150000D01*
X60182657Y-175130293D01*
X60113416Y-175075074D01*
X60074989Y-174995282D01*
X60070000Y-174951000D01*
X60069999Y-173575833D01*
X60069999Y-173575832D01*
X60470000Y-173575832D01*
X60470000Y-174750000D01*
X60970000Y-174750000D01*
X60969999Y-174081933D01*
X60959386Y-173993558D01*
X60959386Y-173993556D01*
X60903921Y-173852906D01*
X60903920Y-173852905D01*
X60812564Y-173732435D01*
X60692094Y-173641079D01*
X60692093Y-173641078D01*
X60551441Y-173585613D01*
X60470000Y-173575832D01*
X60069999Y-173575832D01*
X59988558Y-173585613D01*
X59847906Y-173641078D01*
X59847905Y-173641079D01*
X59755656Y-173711034D01*
X59674949Y-173747502D01*
X59586412Y-173745342D01*
X59515172Y-173711034D01*
X59422342Y-173640639D01*
X59422334Y-173640635D01*
X59281568Y-173585124D01*
X59281560Y-173585122D01*
X59193107Y-173574500D01*
X59193102Y-173574500D01*
X58806898Y-173574500D01*
X58806893Y-173574500D01*
X58718439Y-173585122D01*
X58718431Y-173585124D01*
X58577665Y-173640635D01*
X58577653Y-173640642D01*
X58485243Y-173710719D01*
X58404536Y-173747188D01*
X58315999Y-173745028D01*
X58244757Y-173710719D01*
X58152346Y-173640642D01*
X58152345Y-173640641D01*
X58152342Y-173640639D01*
X58152338Y-173640637D01*
X58152334Y-173640635D01*
X58011568Y-173585124D01*
X58011560Y-173585122D01*
X57923107Y-173574500D01*
X57923102Y-173574500D01*
X57536898Y-173574500D01*
X57525806Y-173575832D01*
X57462465Y-173583438D01*
X57374388Y-173574165D01*
X57299057Y-173527596D01*
X57251392Y-173452953D01*
X57240833Y-173365022D01*
X57269472Y-173281217D01*
X57298022Y-173245146D01*
X58095228Y-172447940D01*
X58141469Y-172404755D01*
X58162359Y-172370401D01*
X58168070Y-172362009D01*
X58192364Y-172329975D01*
X58196114Y-172320463D01*
X58211208Y-172290072D01*
X58216526Y-172281328D01*
X58227365Y-172242637D01*
X58230610Y-172232987D01*
X58245359Y-172195589D01*
X58246404Y-172185418D01*
X58252742Y-172152069D01*
X58255500Y-172142228D01*
X58255500Y-172102046D01*
X58256022Y-172091865D01*
X58257132Y-172081062D01*
X58260131Y-172051891D01*
X58258393Y-172041808D01*
X58255500Y-172008001D01*
X58255500Y-171465714D01*
X58275207Y-171379371D01*
X58330426Y-171310130D01*
X58410218Y-171271703D01*
X58498782Y-171271703D01*
X58565667Y-171302916D01*
X58565795Y-171302690D01*
X58568785Y-171304371D01*
X58574747Y-171307153D01*
X58577658Y-171309361D01*
X58577663Y-171309363D01*
X58577665Y-171309364D01*
X58669946Y-171345755D01*
X58718436Y-171364877D01*
X58751609Y-171368860D01*
X58806893Y-171375500D01*
X58806898Y-171375500D01*
X59193106Y-171375500D01*
X59237332Y-171370188D01*
X59281564Y-171364877D01*
X59422342Y-171309361D01*
X59514759Y-171239278D01*
X59595462Y-171202811D01*
X59683999Y-171204971D01*
X59755240Y-171239278D01*
X59847658Y-171309361D01*
X59847662Y-171309362D01*
X59847665Y-171309364D01*
X59939946Y-171345755D01*
X59988436Y-171364877D01*
X60021609Y-171368860D01*
X60076893Y-171375500D01*
X60076898Y-171375500D01*
X60463106Y-171375500D01*
X60507333Y-171370188D01*
X60551564Y-171364877D01*
X60692342Y-171309361D01*
X60812922Y-171217922D01*
X60904361Y-171097342D01*
X60959877Y-170956564D01*
X60964598Y-170917247D01*
X60970500Y-170868107D01*
X60970500Y-170724500D01*
X60990207Y-170638157D01*
X61045426Y-170568916D01*
X61125218Y-170530489D01*
X61169500Y-170525500D01*
X62875500Y-170525500D01*
X62961843Y-170545207D01*
G37*
%TD.AperFunction*%
%TA.AperFunction,Conductor*%
G36*
X53519595Y-161445207D02*
G01*
X53554397Y-161466624D01*
X53629391Y-161524170D01*
X53629395Y-161524173D01*
X53629394Y-161524173D01*
X53656908Y-161542557D01*
X53656907Y-161542556D01*
X53741874Y-161591612D01*
X53741873Y-161591611D01*
X53771553Y-161606247D01*
X53862143Y-161643771D01*
X53862147Y-161643772D01*
X53862151Y-161643774D01*
X53862150Y-161643774D01*
X53893474Y-161654407D01*
X53893476Y-161654407D01*
X53893482Y-161654409D01*
X53988236Y-161679799D01*
X53996461Y-161681435D01*
X54020685Y-161686254D01*
X54020693Y-161686255D01*
X54020698Y-161686256D01*
X54074118Y-161693289D01*
X54134122Y-161701189D01*
X54150590Y-161702811D01*
X54183368Y-161704959D01*
X54199900Y-161705500D01*
X62725498Y-161705500D01*
X62725500Y-161705500D01*
X62824118Y-161695787D01*
X62836676Y-161693289D01*
X62925204Y-161695772D01*
X63003888Y-161736421D01*
X63057143Y-161807184D01*
X63074499Y-161888465D01*
X63074500Y-168127772D01*
X63074500Y-169275500D01*
X63054793Y-169361843D01*
X62999574Y-169431084D01*
X62919782Y-169469511D01*
X62875500Y-169474500D01*
X61169500Y-169474500D01*
X61083157Y-169454793D01*
X61013916Y-169399574D01*
X60975489Y-169319782D01*
X60970500Y-169275500D01*
X60970500Y-169131892D01*
X60959877Y-169043439D01*
X60959877Y-169043436D01*
X60921357Y-168945756D01*
X60904364Y-168902665D01*
X60904362Y-168902662D01*
X60904361Y-168902658D01*
X60904359Y-168902656D01*
X60904358Y-168902653D01*
X60835935Y-168812425D01*
X60799466Y-168731719D01*
X60795500Y-168692191D01*
X60795500Y-167761483D01*
X60797660Y-167698255D01*
X60788146Y-167659217D01*
X60786244Y-167649207D01*
X60784030Y-167633098D01*
X60780771Y-167609389D01*
X60776695Y-167600006D01*
X60765877Y-167567840D01*
X60763457Y-167557906D01*
X60749948Y-167533880D01*
X60743767Y-167522887D01*
X60739230Y-167513754D01*
X60723219Y-167476891D01*
X60716762Y-167468955D01*
X60697663Y-167440892D01*
X60692657Y-167431988D01*
X60683785Y-167423116D01*
X60636666Y-167348128D01*
X60625499Y-167282402D01*
X60625499Y-166868071D01*
X60625499Y-166868065D01*
X60622654Y-166831902D01*
X60577681Y-166677106D01*
X60495626Y-166538357D01*
X60467629Y-166510360D01*
X60420510Y-166435372D01*
X60410594Y-166347365D01*
X60439845Y-166263772D01*
X60467631Y-166228930D01*
X60495228Y-166201333D01*
X60577218Y-166062693D01*
X60622155Y-165908020D01*
X60625000Y-165871881D01*
X60625000Y-165707500D01*
X58875001Y-165707500D01*
X58875001Y-165871877D01*
X58877844Y-165908025D01*
X58922780Y-166062693D01*
X59004771Y-166201333D01*
X59032370Y-166228932D01*
X59079489Y-166303920D01*
X59089405Y-166391927D01*
X59060154Y-166475520D01*
X59032372Y-166510358D01*
X59004376Y-166538354D01*
X59004371Y-166538360D01*
X58922319Y-166677104D01*
X58922319Y-166677105D01*
X58877346Y-166831901D01*
X58874500Y-166868067D01*
X58874501Y-167596929D01*
X58877346Y-167633101D01*
X58922320Y-167787896D01*
X59004371Y-167926639D01*
X59004373Y-167926642D01*
X59004374Y-167926643D01*
X59118357Y-168040626D01*
X59257106Y-168122681D01*
X59411902Y-168167654D01*
X59448065Y-168170500D01*
X59448065Y-168170499D01*
X59448066Y-168170500D01*
X59448067Y-168170500D01*
X59448067Y-168170499D01*
X59545500Y-168170499D01*
X59631841Y-168190205D01*
X59701083Y-168245423D01*
X59739510Y-168325215D01*
X59744500Y-168369499D01*
X59744500Y-168534285D01*
X59724793Y-168620628D01*
X59669574Y-168689869D01*
X59589782Y-168728296D01*
X59501218Y-168728296D01*
X59434331Y-168697084D01*
X59434205Y-168697310D01*
X59431230Y-168695637D01*
X59425259Y-168692851D01*
X59422345Y-168690641D01*
X59422343Y-168690640D01*
X59422342Y-168690639D01*
X59422339Y-168690638D01*
X59422334Y-168690635D01*
X59281568Y-168635124D01*
X59281560Y-168635122D01*
X59193107Y-168624500D01*
X59193102Y-168624500D01*
X58806898Y-168624500D01*
X58806893Y-168624500D01*
X58718439Y-168635122D01*
X58718431Y-168635124D01*
X58577665Y-168690635D01*
X58577653Y-168690642D01*
X58485243Y-168760719D01*
X58404536Y-168797188D01*
X58315999Y-168795028D01*
X58244757Y-168760719D01*
X58152346Y-168690642D01*
X58152345Y-168690641D01*
X58152342Y-168690639D01*
X58152338Y-168690637D01*
X58152334Y-168690635D01*
X58011568Y-168635124D01*
X58011560Y-168635122D01*
X57923107Y-168624500D01*
X57923102Y-168624500D01*
X57536898Y-168624500D01*
X57536893Y-168624500D01*
X57448439Y-168635122D01*
X57448431Y-168635124D01*
X57307665Y-168690635D01*
X57307653Y-168690642D01*
X57215243Y-168760719D01*
X57134536Y-168797188D01*
X57045999Y-168795028D01*
X56974757Y-168760719D01*
X56882346Y-168690642D01*
X56882345Y-168690641D01*
X56882342Y-168690639D01*
X56882338Y-168690637D01*
X56882334Y-168690635D01*
X56741568Y-168635124D01*
X56741560Y-168635122D01*
X56653107Y-168624500D01*
X56653102Y-168624500D01*
X56266898Y-168624500D01*
X56266893Y-168624500D01*
X56178439Y-168635122D01*
X56178431Y-168635124D01*
X56037665Y-168690635D01*
X56037653Y-168690642D01*
X55945243Y-168760719D01*
X55864536Y-168797188D01*
X55775999Y-168795028D01*
X55704757Y-168760719D01*
X55612346Y-168690642D01*
X55612345Y-168690641D01*
X55612342Y-168690639D01*
X55612338Y-168690637D01*
X55612334Y-168690635D01*
X55471568Y-168635124D01*
X55471560Y-168635122D01*
X55383107Y-168624500D01*
X55383102Y-168624500D01*
X54996898Y-168624500D01*
X54996893Y-168624500D01*
X54908439Y-168635122D01*
X54908431Y-168635124D01*
X54767665Y-168690635D01*
X54767653Y-168690642D01*
X54675243Y-168760719D01*
X54594536Y-168797188D01*
X54505999Y-168795028D01*
X54434757Y-168760719D01*
X54342346Y-168690642D01*
X54342345Y-168690641D01*
X54342342Y-168690639D01*
X54342338Y-168690637D01*
X54342334Y-168690635D01*
X54201568Y-168635124D01*
X54201560Y-168635122D01*
X54113107Y-168624500D01*
X54113102Y-168624500D01*
X53726898Y-168624500D01*
X53726893Y-168624500D01*
X53638439Y-168635122D01*
X53638431Y-168635124D01*
X53497665Y-168690635D01*
X53497653Y-168690642D01*
X53405243Y-168760719D01*
X53324536Y-168797188D01*
X53235999Y-168795028D01*
X53164757Y-168760719D01*
X53072346Y-168690642D01*
X53072345Y-168690641D01*
X53072342Y-168690639D01*
X53072338Y-168690637D01*
X53072334Y-168690635D01*
X52931568Y-168635124D01*
X52931560Y-168635122D01*
X52843107Y-168624500D01*
X52843102Y-168624500D01*
X52456898Y-168624500D01*
X52456893Y-168624500D01*
X52368439Y-168635122D01*
X52368431Y-168635124D01*
X52227665Y-168690635D01*
X52227653Y-168690642D01*
X52135243Y-168760719D01*
X52054536Y-168797188D01*
X51965999Y-168795028D01*
X51894757Y-168760719D01*
X51802346Y-168690642D01*
X51802345Y-168690641D01*
X51802342Y-168690639D01*
X51802338Y-168690637D01*
X51802334Y-168690635D01*
X51661568Y-168635124D01*
X51661560Y-168635122D01*
X51573107Y-168624500D01*
X51573102Y-168624500D01*
X51186898Y-168624500D01*
X51186893Y-168624500D01*
X51098439Y-168635122D01*
X51098431Y-168635124D01*
X50957665Y-168690635D01*
X50957657Y-168690639D01*
X50837078Y-168782078D01*
X50745639Y-168902657D01*
X50745635Y-168902665D01*
X50690124Y-169043431D01*
X50690122Y-169043439D01*
X50679500Y-169131892D01*
X50679500Y-170868107D01*
X50690122Y-170956560D01*
X50690124Y-170956568D01*
X50745635Y-171097334D01*
X50745639Y-171097342D01*
X50794104Y-171161253D01*
X50837079Y-171217923D01*
X50967647Y-171316936D01*
X51024538Y-171384811D01*
X51046345Y-171470647D01*
X51028749Y-171557445D01*
X50975236Y-171628013D01*
X50896404Y-171668373D01*
X50847404Y-171674500D01*
X45200097Y-171674500D01*
X45113754Y-171654793D01*
X45059386Y-171616217D01*
X44783781Y-171340612D01*
X44736666Y-171265629D01*
X44725500Y-171199908D01*
X44725500Y-169008983D01*
X44727660Y-168945755D01*
X44718144Y-168906709D01*
X44716242Y-168896699D01*
X44710772Y-168856893D01*
X44710771Y-168856891D01*
X44710771Y-168856889D01*
X44706692Y-168847498D01*
X44695880Y-168815347D01*
X44693458Y-168805406D01*
X44692277Y-168803306D01*
X44673762Y-168770378D01*
X44669225Y-168761243D01*
X44668997Y-168760719D01*
X44653219Y-168724391D01*
X44646763Y-168716456D01*
X44627667Y-168688398D01*
X44622658Y-168679489D01*
X44622657Y-168679488D01*
X44622656Y-168679486D01*
X44594247Y-168651078D01*
X44587417Y-168643510D01*
X44580594Y-168635124D01*
X44562054Y-168612335D01*
X44557872Y-168609383D01*
X44553692Y-168606432D01*
X44527740Y-168584571D01*
X44065849Y-168122680D01*
X43577940Y-167634771D01*
X43534755Y-167588531D01*
X43534754Y-167588530D01*
X43526234Y-167583349D01*
X43500407Y-167567643D01*
X43491994Y-167561917D01*
X43486698Y-167557901D01*
X43482250Y-167554528D01*
X43459976Y-167537636D01*
X43450451Y-167533880D01*
X43420071Y-167518790D01*
X43411328Y-167513474D01*
X43372645Y-167502635D01*
X43362984Y-167499386D01*
X43325591Y-167484641D01*
X43325588Y-167484640D01*
X43315407Y-167483594D01*
X43282079Y-167477260D01*
X43280762Y-167476891D01*
X43272228Y-167474500D01*
X43272227Y-167474500D01*
X43232045Y-167474500D01*
X43221864Y-167473978D01*
X43181892Y-167469869D01*
X43181889Y-167469869D01*
X43171809Y-167471607D01*
X43138000Y-167474500D01*
X42089007Y-167474500D01*
X42002664Y-167454793D01*
X41948293Y-167416214D01*
X41902266Y-167370187D01*
X41902263Y-167370185D01*
X41902262Y-167370184D01*
X41749522Y-167274211D01*
X41749521Y-167274210D01*
X41749520Y-167274210D01*
X41579258Y-167214633D01*
X41579257Y-167214632D01*
X41579255Y-167214632D01*
X41400000Y-167194435D01*
X41399998Y-167194435D01*
X41346779Y-167200431D01*
X41258772Y-167190514D01*
X41183784Y-167143395D01*
X41136667Y-167068406D01*
X41125500Y-167002682D01*
X41125500Y-165307500D01*
X58875000Y-165307500D01*
X59550000Y-165307500D01*
X59550000Y-164570000D01*
X59950000Y-164570000D01*
X59950000Y-165307500D01*
X60624999Y-165307500D01*
X60624999Y-165143123D01*
X60622155Y-165106974D01*
X60577219Y-164952306D01*
X60495228Y-164813666D01*
X60381333Y-164699771D01*
X60242693Y-164617781D01*
X60088020Y-164572844D01*
X60051881Y-164570000D01*
X59950000Y-164570000D01*
X59550000Y-164570000D01*
X59549999Y-164569999D01*
X59448123Y-164570001D01*
X59448124Y-164570001D01*
X59411974Y-164572844D01*
X59257306Y-164617780D01*
X59118666Y-164699771D01*
X59004771Y-164813666D01*
X58922781Y-164952306D01*
X58877844Y-165106979D01*
X58875000Y-165143119D01*
X58875000Y-165307500D01*
X41125500Y-165307500D01*
X41125500Y-161624500D01*
X41145207Y-161538157D01*
X41200426Y-161468916D01*
X41280218Y-161430489D01*
X41324500Y-161425500D01*
X53433252Y-161425500D01*
X53519595Y-161445207D01*
G37*
%TD.AperFunction*%
%TD*%
%TA.AperFunction,Conductor*%
%TO.N,+3V3*%
G36*
X65908096Y-160301066D02*
G01*
X65946291Y-160306094D01*
X65996910Y-160312758D01*
X66059695Y-160329581D01*
X66119713Y-160354442D01*
X66176004Y-160386940D01*
X66227549Y-160426493D01*
X66273506Y-160472450D01*
X66313057Y-160523993D01*
X66345558Y-160580287D01*
X66370417Y-160640302D01*
X66387241Y-160703090D01*
X66398933Y-160791903D01*
X66399999Y-160808170D01*
X66399999Y-164291829D01*
X66398933Y-164308096D01*
X66387241Y-164396909D01*
X66370417Y-164459697D01*
X66345558Y-164519712D01*
X66313057Y-164576006D01*
X66273509Y-164627546D01*
X66227546Y-164673509D01*
X66176006Y-164713057D01*
X66119712Y-164745558D01*
X66059697Y-164770417D01*
X65996912Y-164787241D01*
X65941493Y-164794537D01*
X65908095Y-164798934D01*
X65891830Y-164800000D01*
X64474500Y-164800000D01*
X64379212Y-164781046D01*
X64298430Y-164727070D01*
X64244454Y-164646288D01*
X64225500Y-164551000D01*
X64225500Y-160549000D01*
X64244454Y-160453712D01*
X64298430Y-160372930D01*
X64379212Y-160318954D01*
X64474500Y-160300000D01*
X65891829Y-160300000D01*
X65908096Y-160301066D01*
G37*
%TD.AperFunction*%
%TA.AperFunction,Conductor*%
G36*
X62708096Y-156601066D02*
G01*
X62746291Y-156606094D01*
X62796910Y-156612758D01*
X62859695Y-156629581D01*
X62919713Y-156654442D01*
X62976004Y-156686940D01*
X63027549Y-156726493D01*
X63073506Y-156772450D01*
X63113057Y-156823993D01*
X63145558Y-156880287D01*
X63170417Y-156940302D01*
X63187241Y-157003094D01*
X63189980Y-157023902D01*
X63183624Y-157120849D01*
X63140652Y-157207984D01*
X63089470Y-157257842D01*
X62994128Y-157327112D01*
X62994127Y-157327113D01*
X62867469Y-157467780D01*
X62772822Y-157631714D01*
X62714325Y-157811744D01*
X62694540Y-158000000D01*
X62714325Y-158188255D01*
X62743037Y-158276619D01*
X62772821Y-158368284D01*
X62867467Y-158532216D01*
X62910542Y-158580056D01*
X62960217Y-158663548D01*
X62974500Y-158746669D01*
X62974500Y-160951000D01*
X62955546Y-161046288D01*
X62901570Y-161127070D01*
X62820788Y-161181046D01*
X62725500Y-161200000D01*
X54208170Y-161200000D01*
X54191903Y-161198934D01*
X54172597Y-161196392D01*
X54103088Y-161187241D01*
X54040302Y-161170417D01*
X53980287Y-161145558D01*
X53923993Y-161113057D01*
X53872450Y-161073506D01*
X53826493Y-161027549D01*
X53786940Y-160976004D01*
X53754441Y-160919712D01*
X53729582Y-160859697D01*
X53712758Y-160796909D01*
X53701066Y-160708096D01*
X53700000Y-160691829D01*
X53700000Y-157108170D01*
X53701066Y-157091903D01*
X53710018Y-157023902D01*
X53712758Y-157003087D01*
X53729580Y-156940306D01*
X53754443Y-156880282D01*
X53786938Y-156823998D01*
X53826497Y-156772445D01*
X53872445Y-156726497D01*
X53923998Y-156686938D01*
X53980282Y-156654443D01*
X54040306Y-156629580D01*
X54103089Y-156612758D01*
X54153708Y-156606094D01*
X54191904Y-156601066D01*
X54208171Y-156600000D01*
X62691829Y-156600000D01*
X62708096Y-156601066D01*
G37*
%TD.AperFunction*%
%TD*%
M02*
