M48
; DRILL file {KiCad 7.0.7} date Wed Sep 20 03:30:20 2023
; FORMAT={-:-/ absolute / metric / decimal}
; #@! TF.CreationDate,2023-09-20T03:30:20+03:00
; #@! TF.GenerationSoftware,Kicad,Pcbnew,7.0.7
; #@! TF.FileFunction,Plated,1,2,PTH
FMAT,2
METRIC
; #@! TA.AperFunction,Plated,PTH,ViaDrill
T1C0.400
; #@! TA.AperFunction,Plated,PTH,ComponentDrill
T2C0.600
; #@! TA.AperFunction,Plated,PTH,ComponentDrill
T3C1.000
%
G90
G05
T1
X41.4Y-151.4
X41.4Y-168.0
X42.0Y-171.0
X42.4Y-182.0
X42.7Y-148.5
X44.2Y-177.8
X44.9Y-182.9
X45.5Y-163.8
X45.6Y-179.1
X45.8Y-157.4
X45.9Y-174.3
X46.2Y-147.0
X46.3Y-151.4
X47.1Y-181.6
X47.6Y-159.0
X49.7Y-176.9
X50.68Y-163.0
X51.1Y-157.7
X53.4Y-185.7
X54.2Y-181.2
X54.9Y-166.6
X55.2Y-160.2
X55.6Y-181.2
X55.7Y-164.0
X56.6Y-181.6
X57.1Y-157.6
X57.1Y-159.9
X57.8Y-179.8
X58.2Y-158.8
X59.2Y-157.6
X59.2Y-160.1
X59.7Y-172.8
X59.8Y-181.6
X60.4Y-149.1
X61.1Y-179.8
X61.4Y-164.4
X61.4Y-174.8
X61.4Y-183.8
X61.6Y-154.4
X62.3Y-188.0
X62.4Y-181.4
X62.5Y-172.0
X63.6Y-158.0
X64.4Y-169.2
X64.6Y-163.8
X65.6Y-187.9
X66.4Y-168.5
X66.7Y-177.4
X67.0Y-185.7
X68.0Y-177.2
X68.0Y-183.2
T3
X52.215Y-149.248
X52.215Y-151.787
X54.755Y-149.248
X54.755Y-151.787
X57.295Y-149.248
X57.295Y-151.787
T2
X50.425Y-183.937G85X50.425Y-182.837
G05
X50.425Y-188.107G85X50.425Y-187.007
G05
X59.075Y-183.937G85X59.075Y-182.837
G05
X59.075Y-188.107G85X59.075Y-187.007
G05
T0
M30
