%TF.GenerationSoftware,KiCad,Pcbnew,7.0.7*%
%TF.CreationDate,2023-09-20T03:29:36+03:00*%
%TF.ProjectId,TPB v1.1,54504220-7631-42e3-912e-6b696361645f,rev?*%
%TF.SameCoordinates,Original*%
%TF.FileFunction,Paste,Top*%
%TF.FilePolarity,Positive*%
%FSLAX46Y46*%
G04 Gerber Fmt 4.6, Leading zero omitted, Abs format (unit mm)*
G04 Created by KiCad (PCBNEW 7.0.7) date 2023-09-20 03:29:36*
%MOMM*%
%LPD*%
G01*
G04 APERTURE LIST*
G04 Aperture macros list*
%AMRoundRect*
0 Rectangle with rounded corners*
0 $1 Rounding radius*
0 $2 $3 $4 $5 $6 $7 $8 $9 X,Y pos of 4 corners*
0 Add a 4 corners polygon primitive as box body*
4,1,4,$2,$3,$4,$5,$6,$7,$8,$9,$2,$3,0*
0 Add four circle primitives for the rounded corners*
1,1,$1+$1,$2,$3*
1,1,$1+$1,$4,$5*
1,1,$1+$1,$6,$7*
1,1,$1+$1,$8,$9*
0 Add four rect primitives between the rounded corners*
20,1,$1+$1,$2,$3,$4,$5,0*
20,1,$1+$1,$4,$5,$6,$7,0*
20,1,$1+$1,$6,$7,$8,$9,0*
20,1,$1+$1,$8,$9,$2,$3,0*%
%AMOutline4P*
0 Free polygon, 4 corners , with rotation*
0 The origin of the aperture is its center*
0 number of corners: always 4*
0 $1 to $8 corner X, Y*
0 $9 Rotation angle, in degrees counterclockwise*
0 create outline with 4 corners*
4,1,4,$1,$2,$3,$4,$5,$6,$7,$8,$1,$2,$9*%
G04 Aperture macros list end*
%ADD10RoundRect,0.150000X-0.587500X-0.150000X0.587500X-0.150000X0.587500X0.150000X-0.587500X0.150000X0*%
%ADD11R,2.000000X1.500000*%
%ADD12R,2.000000X3.800000*%
%ADD13RoundRect,0.250000X0.450000X-0.325000X0.450000X0.325000X-0.450000X0.325000X-0.450000X-0.325000X0*%
%ADD14RoundRect,0.237500X0.300000X0.237500X-0.300000X0.237500X-0.300000X-0.237500X0.300000X-0.237500X0*%
%ADD15RoundRect,0.237500X-0.300000X-0.237500X0.300000X-0.237500X0.300000X0.237500X-0.300000X0.237500X0*%
%ADD16RoundRect,0.237500X0.250000X0.237500X-0.250000X0.237500X-0.250000X-0.237500X0.250000X-0.237500X0*%
%ADD17RoundRect,0.250000X-0.325000X-0.450000X0.325000X-0.450000X0.325000X0.450000X-0.325000X0.450000X0*%
%ADD18R,1.400000X1.600000*%
%ADD19RoundRect,0.237500X-0.237500X0.250000X-0.237500X-0.250000X0.237500X-0.250000X0.237500X0.250000X0*%
%ADD20RoundRect,0.237500X-0.250000X-0.237500X0.250000X-0.237500X0.250000X0.237500X-0.250000X0.237500X0*%
%ADD21RoundRect,0.250000X0.325000X0.450000X-0.325000X0.450000X-0.325000X-0.450000X0.325000X-0.450000X0*%
%ADD22Outline4P,-0.300000X-0.570000X0.300000X-0.570000X0.300000X0.570000X-0.300000X0.570000X0.000000*%
%ADD23Outline4P,-0.150000X-0.570000X0.150000X-0.570000X0.150000X0.570000X-0.150000X0.570000X0.000000*%
G04 APERTURE END LIST*
D10*
%TO.C,Q2*%
X42400000Y-175640000D03*
X42400000Y-177540000D03*
X44275000Y-176590000D03*
%TD*%
D11*
%TO.C,U2*%
X61450000Y-162500000D03*
X61450000Y-160200000D03*
D12*
X55150000Y-160200000D03*
D11*
X61450000Y-157900000D03*
%TD*%
D13*
%TO.C,D1*%
X65000000Y-176025000D03*
X65000000Y-173975000D03*
%TD*%
D10*
%TO.C,Q1*%
X42462500Y-164550000D03*
X42462500Y-166450000D03*
X44337500Y-165500000D03*
%TD*%
D14*
%TO.C,C1*%
X49122500Y-184150000D03*
X47397500Y-184150000D03*
%TD*%
D15*
%TO.C,C4*%
X65667500Y-156390000D03*
X67392500Y-156390000D03*
%TD*%
D16*
%TO.C,R4*%
X44312500Y-169500000D03*
X42487500Y-169500000D03*
%TD*%
D17*
%TO.C,R10*%
X42375000Y-157500000D03*
X44425000Y-157500000D03*
%TD*%
D15*
%TO.C,C6*%
X65667500Y-164600000D03*
X67392500Y-164600000D03*
%TD*%
D18*
%TO.C,SW2*%
X47680000Y-178860000D03*
X47680000Y-171660000D03*
X50680000Y-178860000D03*
X50680000Y-171660000D03*
%TD*%
D16*
%TO.C,R1*%
X49172500Y-187960000D03*
X47347500Y-187960000D03*
%TD*%
D19*
%TO.C,R8*%
X68000000Y-174087500D03*
X68000000Y-175912500D03*
%TD*%
D20*
%TO.C,R3*%
X42487500Y-172590000D03*
X44312500Y-172590000D03*
%TD*%
D21*
%TO.C,D3*%
X44425000Y-154000000D03*
X42375000Y-154000000D03*
%TD*%
D18*
%TO.C,SW1*%
X47680000Y-168470000D03*
X47680000Y-161270000D03*
X50680000Y-168470000D03*
X50680000Y-161270000D03*
%TD*%
D19*
%TO.C,R9*%
X68000000Y-180087500D03*
X68000000Y-181912500D03*
%TD*%
D16*
%TO.C,R5*%
X44312500Y-180590000D03*
X42487500Y-180590000D03*
%TD*%
%TO.C,R2*%
X44312500Y-161500000D03*
X42487500Y-161500000D03*
%TD*%
D15*
%TO.C,C5*%
X65667500Y-158930000D03*
X67392500Y-158930000D03*
%TD*%
D13*
%TO.C,D2*%
X65000000Y-182025000D03*
X65000000Y-179975000D03*
%TD*%
D15*
%TO.C,C7*%
X65667500Y-161770000D03*
X67392500Y-161770000D03*
%TD*%
D22*
%TO.C,CN1*%
X51645000Y-182797313D03*
X52445000Y-182797313D03*
D23*
X53595000Y-182797313D03*
X54595000Y-182797313D03*
X55095000Y-182797313D03*
X56095000Y-182797313D03*
D22*
X58045000Y-182797313D03*
X57245000Y-182797313D03*
D23*
X56595000Y-182797313D03*
X55595000Y-182797313D03*
X54095000Y-182797313D03*
X53095000Y-182797313D03*
%TD*%
M02*
